G04 #@! TF.GenerationSoftware,KiCad,Pcbnew,(6.0.1-0)*
G04 #@! TF.CreationDate,2022-02-24T13:12:42-05:00*
G04 #@! TF.ProjectId,DC2VGA_Horizontal,44433256-4741-45f4-986f-72697a6f6e74,1*
G04 #@! TF.SameCoordinates,Original*
G04 #@! TF.FileFunction,Copper,L1,Top*
G04 #@! TF.FilePolarity,Positive*
%FSLAX46Y46*%
G04 Gerber Fmt 4.6, Leading zero omitted, Abs format (unit mm)*
G04 Created by KiCad (PCBNEW (6.0.1-0)) date 2022-02-24 13:12:42*
%MOMM*%
%LPD*%
G01*
G04 APERTURE LIST*
G04 Aperture macros list*
%AMRoundRect*
0 Rectangle with rounded corners*
0 $1 Rounding radius*
0 $2 $3 $4 $5 $6 $7 $8 $9 X,Y pos of 4 corners*
0 Add a 4 corners polygon primitive as box body*
4,1,4,$2,$3,$4,$5,$6,$7,$8,$9,$2,$3,0*
0 Add four circle primitives for the rounded corners*
1,1,$1+$1,$2,$3*
1,1,$1+$1,$4,$5*
1,1,$1+$1,$6,$7*
1,1,$1+$1,$8,$9*
0 Add four rect primitives between the rounded corners*
20,1,$1+$1,$2,$3,$4,$5,0*
20,1,$1+$1,$4,$5,$6,$7,0*
20,1,$1+$1,$6,$7,$8,$9,0*
20,1,$1+$1,$8,$9,$2,$3,0*%
G04 Aperture macros list end*
G04 #@! TA.AperFunction,ComponentPad*
%ADD10R,1.700000X1.700000*%
G04 #@! TD*
G04 #@! TA.AperFunction,ComponentPad*
%ADD11C,1.700000*%
G04 #@! TD*
G04 #@! TA.AperFunction,ComponentPad*
%ADD12C,4.066000*%
G04 #@! TD*
G04 #@! TA.AperFunction,ComponentPad*
%ADD13O,1.508000X3.016000*%
G04 #@! TD*
G04 #@! TA.AperFunction,ComponentPad*
%ADD14R,1.524000X1.524000*%
G04 #@! TD*
G04 #@! TA.AperFunction,ComponentPad*
%ADD15RoundRect,0.381000X-0.381000X-0.381000X0.381000X-0.381000X0.381000X0.381000X-0.381000X0.381000X0*%
G04 #@! TD*
G04 #@! TA.AperFunction,SMDPad,CuDef*
%ADD16RoundRect,0.225000X-0.250000X0.225000X-0.250000X-0.225000X0.250000X-0.225000X0.250000X0.225000X0*%
G04 #@! TD*
G04 #@! TA.AperFunction,ViaPad*
%ADD17C,0.700000*%
G04 #@! TD*
G04 #@! TA.AperFunction,Conductor*
%ADD18C,0.250000*%
G04 #@! TD*
G04 APERTURE END LIST*
D10*
X146725000Y-107595000D03*
D11*
X144435000Y-107595000D03*
X142145000Y-107595000D03*
X139855000Y-107595000D03*
X137565000Y-107595000D03*
X147870000Y-109575000D03*
X145580000Y-109575000D03*
X143290000Y-109575000D03*
X141000000Y-109575000D03*
X138710000Y-109575000D03*
X146725000Y-111555000D03*
X144435000Y-111555000D03*
X142145000Y-111555000D03*
X139855000Y-111555000D03*
X137565000Y-111555000D03*
D12*
X129650000Y-109575000D03*
X154640000Y-109575000D03*
D13*
X127950000Y-101350000D03*
X130350000Y-99350000D03*
X135850000Y-99350000D03*
X139550000Y-101350000D03*
X134050000Y-101350000D03*
D14*
X154487181Y-96168903D03*
D15*
X151947181Y-96168903D03*
X149407181Y-96168903D03*
X134167181Y-96168903D03*
X131627181Y-96168903D03*
X141787181Y-96168903D03*
X139247181Y-96168903D03*
X129087181Y-96168903D03*
X136707181Y-96168903D03*
X146867181Y-96168903D03*
X144327181Y-96168903D03*
D16*
X153700000Y-101000000D03*
X153700000Y-102550000D03*
X151550000Y-101000000D03*
X151550000Y-102550000D03*
D17*
X153700000Y-99675000D03*
X150500000Y-101000000D03*
X150225000Y-112200000D03*
X133450000Y-112750000D03*
X133450000Y-110825000D03*
X156425000Y-96425000D03*
X147775000Y-99325000D03*
X145650000Y-101350000D03*
X143550000Y-105325000D03*
D18*
X153700000Y-99675000D02*
X153700000Y-101000000D01*
X146800000Y-113925000D02*
X144425000Y-111550000D01*
X151750000Y-112775000D02*
X150600000Y-113925000D01*
X151750000Y-104500000D02*
X151750000Y-112775000D01*
X153700000Y-102550000D02*
X151750000Y-104500000D01*
X150600000Y-113925000D02*
X146800000Y-113925000D01*
X151475000Y-101000000D02*
X151500000Y-100975000D01*
X150500000Y-101000000D02*
X151475000Y-101000000D01*
X150225000Y-103875000D02*
X151550000Y-102550000D01*
X150225000Y-112200000D02*
X150225000Y-103875000D01*
X150500000Y-99650000D02*
X146725000Y-103425000D01*
X151225000Y-99650000D02*
X150500000Y-99650000D01*
X146725000Y-103425000D02*
X146725000Y-107600000D01*
X154477181Y-96388903D02*
X154477181Y-96397819D01*
X154477181Y-96397819D02*
X151225000Y-99650000D01*
X151937181Y-96388903D02*
X151937181Y-96412819D01*
X144675000Y-107350000D02*
X144425000Y-107600000D01*
X150825000Y-97525000D02*
X150825000Y-97900000D01*
X144675000Y-104050000D02*
X144675000Y-107350000D01*
X151937181Y-96412819D02*
X150825000Y-97525000D01*
X150825000Y-97900000D02*
X144675000Y-104050000D01*
X149397181Y-96388903D02*
X149386097Y-96388903D01*
X146675000Y-98400000D02*
X142150000Y-102925000D01*
X149386097Y-96388903D02*
X147375000Y-98400000D01*
X147375000Y-98400000D02*
X146675000Y-98400000D01*
X142150000Y-102925000D02*
X142150000Y-107600000D01*
X139975000Y-113725000D02*
X142150000Y-111550000D01*
X134425000Y-113725000D02*
X139975000Y-113725000D01*
X133450000Y-112750000D02*
X134425000Y-113725000D01*
X135550000Y-112925000D02*
X138475000Y-112925000D01*
X138475000Y-112925000D02*
X139850000Y-111550000D01*
X133450000Y-110825000D02*
X135550000Y-112925000D01*
X130350000Y-102575000D02*
X130350000Y-99350000D01*
X137675000Y-102425000D02*
X135850000Y-104250000D01*
X139237181Y-97587819D02*
X137675000Y-99150000D01*
X139237181Y-96388903D02*
X139237181Y-97587819D01*
X132025000Y-104250000D02*
X130350000Y-102575000D01*
X135850000Y-104250000D02*
X132025000Y-104250000D01*
X137675000Y-99150000D02*
X137675000Y-102425000D01*
X143550000Y-103450000D02*
X145650000Y-101350000D01*
X143550000Y-103450000D02*
X143550000Y-105325000D01*
G04 #@! TA.AperFunction,Conductor*
G36*
X128075391Y-95528482D02*
G01*
X128102411Y-95575282D01*
X128100474Y-95611041D01*
X128079123Y-95684530D01*
X128077679Y-95692438D01*
X128075304Y-95722618D01*
X128075181Y-95725737D01*
X128075181Y-96029973D01*
X128079065Y-96040644D01*
X128084709Y-96043903D01*
X130085250Y-96043903D01*
X130095921Y-96040019D01*
X130099180Y-96034375D01*
X130099180Y-95725720D01*
X130099060Y-95722647D01*
X130096682Y-95692428D01*
X130095241Y-95684535D01*
X130073888Y-95611041D01*
X130077469Y-95557120D01*
X130114872Y-95518117D01*
X130149751Y-95510000D01*
X130657531Y-95510000D01*
X130708311Y-95528482D01*
X130735331Y-95575282D01*
X130730983Y-95618082D01*
X130717234Y-95652807D01*
X130717232Y-95652815D01*
X130715368Y-95657523D01*
X130704681Y-95745834D01*
X130704682Y-96591971D01*
X130715368Y-96680283D01*
X130769983Y-96818227D01*
X130859683Y-96936401D01*
X130977857Y-97026101D01*
X131029675Y-97046617D01*
X131111089Y-97078851D01*
X131111093Y-97078852D01*
X131115801Y-97080716D01*
X131120831Y-97081325D01*
X131120832Y-97081325D01*
X131151352Y-97085018D01*
X131204112Y-97091403D01*
X131627092Y-97091403D01*
X132050249Y-97091402D01*
X132065037Y-97089613D01*
X132133523Y-97081326D01*
X132133526Y-97081325D01*
X132138561Y-97080716D01*
X132276505Y-97026101D01*
X132394679Y-96936401D01*
X132484379Y-96818227D01*
X132537125Y-96685004D01*
X132537129Y-96684995D01*
X132537130Y-96684991D01*
X132538994Y-96680283D01*
X132549681Y-96591972D01*
X132549680Y-95745835D01*
X132538994Y-95657523D01*
X132537125Y-95652802D01*
X132523379Y-95618082D01*
X132521870Y-95564063D01*
X132555436Y-95521713D01*
X132596831Y-95510000D01*
X133197531Y-95510000D01*
X133248311Y-95528482D01*
X133275331Y-95575282D01*
X133270983Y-95618082D01*
X133257234Y-95652807D01*
X133257232Y-95652815D01*
X133255368Y-95657523D01*
X133244681Y-95745834D01*
X133244682Y-96591971D01*
X133255368Y-96680283D01*
X133309983Y-96818227D01*
X133399683Y-96936401D01*
X133517857Y-97026101D01*
X133569675Y-97046617D01*
X133651089Y-97078851D01*
X133651093Y-97078852D01*
X133655801Y-97080716D01*
X133660831Y-97081325D01*
X133660832Y-97081325D01*
X133691352Y-97085018D01*
X133744112Y-97091403D01*
X134167092Y-97091403D01*
X134590249Y-97091402D01*
X134605037Y-97089613D01*
X134673523Y-97081326D01*
X134673526Y-97081325D01*
X134678561Y-97080716D01*
X134816505Y-97026101D01*
X134934679Y-96936401D01*
X135024379Y-96818227D01*
X135077125Y-96685004D01*
X135077129Y-96684995D01*
X135077130Y-96684991D01*
X135078994Y-96680283D01*
X135087247Y-96612086D01*
X135695182Y-96612086D01*
X135695302Y-96615159D01*
X135697680Y-96645378D01*
X135699122Y-96653274D01*
X135741087Y-96797716D01*
X135745008Y-96806778D01*
X135821101Y-96935443D01*
X135827147Y-96943237D01*
X135932847Y-97048937D01*
X135940641Y-97054983D01*
X136069306Y-97131076D01*
X136078368Y-97134997D01*
X136222805Y-97176960D01*
X136230716Y-97178405D01*
X136260896Y-97180780D01*
X136264014Y-97180903D01*
X136568251Y-97180903D01*
X136578922Y-97177019D01*
X136582181Y-97171375D01*
X136582181Y-97166972D01*
X136832181Y-97166972D01*
X136836065Y-97177643D01*
X136841709Y-97180902D01*
X137150364Y-97180902D01*
X137153437Y-97180782D01*
X137183656Y-97178404D01*
X137191552Y-97176962D01*
X137335994Y-97134997D01*
X137345056Y-97131076D01*
X137473721Y-97054983D01*
X137481515Y-97048937D01*
X137587215Y-96943237D01*
X137593261Y-96935443D01*
X137669354Y-96806778D01*
X137673275Y-96797716D01*
X137715238Y-96653279D01*
X137716683Y-96645368D01*
X137719058Y-96615188D01*
X137719181Y-96612070D01*
X137719181Y-96307833D01*
X137715297Y-96297162D01*
X137709653Y-96293903D01*
X136846111Y-96293903D01*
X136835440Y-96297787D01*
X136832181Y-96303431D01*
X136832181Y-97166972D01*
X136582181Y-97166972D01*
X136582181Y-96307833D01*
X136578297Y-96297162D01*
X136572653Y-96293903D01*
X135709112Y-96293903D01*
X135698441Y-96297787D01*
X135695182Y-96303431D01*
X135695182Y-96612086D01*
X135087247Y-96612086D01*
X135089681Y-96591972D01*
X135089680Y-95745835D01*
X135078994Y-95657523D01*
X135077125Y-95652802D01*
X135063379Y-95618082D01*
X135061870Y-95564063D01*
X135095436Y-95521713D01*
X135136831Y-95510000D01*
X135644611Y-95510000D01*
X135695391Y-95528482D01*
X135722411Y-95575282D01*
X135720474Y-95611041D01*
X135699123Y-95684530D01*
X135697679Y-95692438D01*
X135695304Y-95722618D01*
X135695181Y-95725737D01*
X135695181Y-96029973D01*
X135699065Y-96040644D01*
X135704709Y-96043903D01*
X137705250Y-96043903D01*
X137715921Y-96040019D01*
X137719180Y-96034375D01*
X137719180Y-95725720D01*
X137719060Y-95722647D01*
X137716682Y-95692428D01*
X137715241Y-95684535D01*
X137693888Y-95611041D01*
X137697469Y-95557120D01*
X137734872Y-95518117D01*
X137769751Y-95510000D01*
X138277531Y-95510000D01*
X138328311Y-95528482D01*
X138355331Y-95575282D01*
X138350983Y-95618082D01*
X138337234Y-95652807D01*
X138337232Y-95652815D01*
X138335368Y-95657523D01*
X138324681Y-95745834D01*
X138324682Y-96591971D01*
X138335368Y-96680283D01*
X138389983Y-96818227D01*
X138479683Y-96936401D01*
X138597857Y-97026101D01*
X138649675Y-97046617D01*
X138731089Y-97078851D01*
X138731093Y-97078852D01*
X138735801Y-97080716D01*
X138740831Y-97081325D01*
X138740832Y-97081325D01*
X138771352Y-97085018D01*
X138824112Y-97091403D01*
X138872681Y-97091403D01*
X138923461Y-97109885D01*
X138950481Y-97156685D01*
X138951681Y-97170403D01*
X138951681Y-97436839D01*
X138933199Y-97487619D01*
X138928542Y-97492700D01*
X137509524Y-98911718D01*
X137505929Y-98914822D01*
X137501829Y-98916826D01*
X137496869Y-98922173D01*
X137469669Y-98951495D01*
X137467612Y-98953630D01*
X137454346Y-98966896D01*
X137452284Y-98969902D01*
X137450990Y-98971459D01*
X137448149Y-98974694D01*
X137429498Y-98994800D01*
X137426795Y-99001576D01*
X137424825Y-99006513D01*
X137416596Y-99021925D01*
X137409459Y-99032328D01*
X137407775Y-99039426D01*
X137403361Y-99058027D01*
X137399872Y-99069058D01*
X137390086Y-99093586D01*
X137389500Y-99099563D01*
X137389500Y-99107193D01*
X137387365Y-99125432D01*
X137384902Y-99135812D01*
X137385886Y-99143042D01*
X137385886Y-99143043D01*
X137388778Y-99164291D01*
X137389500Y-99174945D01*
X137389500Y-102274020D01*
X137371018Y-102324800D01*
X137366361Y-102329881D01*
X135754881Y-103941361D01*
X135705905Y-103964199D01*
X135699020Y-103964500D01*
X132175980Y-103964500D01*
X132125200Y-103946018D01*
X132120119Y-103941361D01*
X130658639Y-102479881D01*
X130635801Y-102430905D01*
X130635500Y-102424020D01*
X130635500Y-102151924D01*
X133135500Y-102151924D01*
X133135717Y-102153985D01*
X133135717Y-102153992D01*
X133148333Y-102274020D01*
X133150557Y-102295182D01*
X133209961Y-102478009D01*
X133212030Y-102481592D01*
X133212031Y-102481595D01*
X133286560Y-102610682D01*
X133306079Y-102644490D01*
X133308851Y-102647569D01*
X133308852Y-102647570D01*
X133350908Y-102694278D01*
X133434710Y-102787349D01*
X133590231Y-102900342D01*
X133594020Y-102902029D01*
X133762064Y-102976848D01*
X133762067Y-102976849D01*
X133765847Y-102978532D01*
X133769893Y-102979392D01*
X133769896Y-102979393D01*
X133949838Y-103017641D01*
X133949843Y-103017642D01*
X133953882Y-103018500D01*
X134146118Y-103018500D01*
X134150157Y-103017642D01*
X134150162Y-103017641D01*
X134330108Y-102979392D01*
X134330110Y-102979391D01*
X134334153Y-102978532D01*
X134337935Y-102976848D01*
X134505989Y-102902025D01*
X134505992Y-102902023D01*
X134509768Y-102900342D01*
X134594653Y-102838670D01*
X134661937Y-102789785D01*
X134661936Y-102789785D01*
X134665290Y-102787349D01*
X134749092Y-102694278D01*
X134791148Y-102647570D01*
X134791149Y-102647569D01*
X134793921Y-102644490D01*
X134813440Y-102610682D01*
X134887969Y-102481595D01*
X134887970Y-102481592D01*
X134890039Y-102478009D01*
X134949443Y-102295182D01*
X134951667Y-102274020D01*
X134964283Y-102153992D01*
X134964283Y-102153985D01*
X134964500Y-102151924D01*
X134964500Y-100692023D01*
X134982982Y-100641243D01*
X135029782Y-100614223D01*
X135083000Y-100623607D01*
X135105956Y-100644277D01*
X135106079Y-100644490D01*
X135108850Y-100647567D01*
X135108851Y-100647569D01*
X135122467Y-100662691D01*
X135234710Y-100787349D01*
X135390231Y-100900342D01*
X135394020Y-100902029D01*
X135562064Y-100976848D01*
X135562067Y-100976849D01*
X135565847Y-100978532D01*
X135569893Y-100979392D01*
X135569896Y-100979393D01*
X135749838Y-101017641D01*
X135749843Y-101017642D01*
X135753882Y-101018500D01*
X135946118Y-101018500D01*
X135950157Y-101017642D01*
X135950162Y-101017641D01*
X136130108Y-100979392D01*
X136130110Y-100979391D01*
X136134153Y-100978532D01*
X136172744Y-100961350D01*
X136305989Y-100902025D01*
X136305992Y-100902023D01*
X136309768Y-100900342D01*
X136340601Y-100877941D01*
X136461937Y-100789785D01*
X136461936Y-100789785D01*
X136465290Y-100787349D01*
X136577533Y-100662691D01*
X136591148Y-100647570D01*
X136591149Y-100647569D01*
X136593921Y-100644490D01*
X136612250Y-100612744D01*
X136687969Y-100481595D01*
X136687970Y-100481592D01*
X136690039Y-100478009D01*
X136749443Y-100295182D01*
X136749876Y-100291064D01*
X136764283Y-100153992D01*
X136764283Y-100153985D01*
X136764500Y-100151924D01*
X136764500Y-98548076D01*
X136755853Y-98465800D01*
X136749876Y-98408936D01*
X136749876Y-98408934D01*
X136749443Y-98404818D01*
X136690039Y-98221991D01*
X136686445Y-98215765D01*
X136595992Y-98059097D01*
X136593921Y-98055510D01*
X136569218Y-98028074D01*
X136497569Y-97948500D01*
X136465290Y-97912651D01*
X136309769Y-97799658D01*
X136279821Y-97786324D01*
X136137936Y-97723152D01*
X136137933Y-97723151D01*
X136134153Y-97721468D01*
X136130107Y-97720608D01*
X136130104Y-97720607D01*
X135950162Y-97682359D01*
X135950157Y-97682358D01*
X135946118Y-97681500D01*
X135753882Y-97681500D01*
X135749843Y-97682358D01*
X135749838Y-97682359D01*
X135569892Y-97720608D01*
X135569890Y-97720609D01*
X135565847Y-97721468D01*
X135562070Y-97723150D01*
X135562069Y-97723150D01*
X135394011Y-97797975D01*
X135394008Y-97797977D01*
X135390232Y-97799658D01*
X135386884Y-97802090D01*
X135386883Y-97802091D01*
X135353836Y-97826101D01*
X135234710Y-97912651D01*
X135202431Y-97948500D01*
X135130783Y-98028074D01*
X135106079Y-98055510D01*
X135104008Y-98059097D01*
X135013556Y-98215765D01*
X135009961Y-98221991D01*
X134950557Y-98404818D01*
X134950124Y-98408934D01*
X134950124Y-98408936D01*
X134944148Y-98465800D01*
X134935500Y-98548076D01*
X134935500Y-100007977D01*
X134917018Y-100058757D01*
X134870218Y-100085777D01*
X134817000Y-100076393D01*
X134794044Y-100055723D01*
X134793921Y-100055510D01*
X134759257Y-100017011D01*
X134685863Y-99935500D01*
X134665290Y-99912651D01*
X134509769Y-99799658D01*
X134497800Y-99794329D01*
X134337936Y-99723152D01*
X134337933Y-99723151D01*
X134334153Y-99721468D01*
X134330107Y-99720608D01*
X134330104Y-99720607D01*
X134150162Y-99682359D01*
X134150157Y-99682358D01*
X134146118Y-99681500D01*
X133953882Y-99681500D01*
X133949843Y-99682358D01*
X133949838Y-99682359D01*
X133769892Y-99720608D01*
X133769890Y-99720609D01*
X133765847Y-99721468D01*
X133762070Y-99723150D01*
X133762069Y-99723150D01*
X133594011Y-99797975D01*
X133594008Y-99797977D01*
X133590232Y-99799658D01*
X133586884Y-99802090D01*
X133586883Y-99802091D01*
X133553624Y-99826255D01*
X133434710Y-99912651D01*
X133306079Y-100055510D01*
X133304008Y-100059097D01*
X133218661Y-100206923D01*
X133209961Y-100221991D01*
X133150557Y-100404818D01*
X133150124Y-100408934D01*
X133150124Y-100408936D01*
X133136047Y-100542876D01*
X133135500Y-100548076D01*
X133135500Y-102151924D01*
X130635500Y-102151924D01*
X130635500Y-101029235D01*
X130653982Y-100978455D01*
X130682368Y-100957065D01*
X130805986Y-100902026D01*
X130805987Y-100902025D01*
X130809768Y-100900342D01*
X130840601Y-100877941D01*
X130961937Y-100789785D01*
X130961936Y-100789785D01*
X130965290Y-100787349D01*
X131077533Y-100662691D01*
X131091148Y-100647570D01*
X131091149Y-100647569D01*
X131093921Y-100644490D01*
X131112250Y-100612744D01*
X131187969Y-100481595D01*
X131187970Y-100481592D01*
X131190039Y-100478009D01*
X131249443Y-100295182D01*
X131249876Y-100291064D01*
X131264283Y-100153992D01*
X131264283Y-100153985D01*
X131264500Y-100151924D01*
X131264500Y-98548076D01*
X131255853Y-98465800D01*
X131249876Y-98408936D01*
X131249876Y-98408934D01*
X131249443Y-98404818D01*
X131190039Y-98221991D01*
X131186445Y-98215765D01*
X131095992Y-98059097D01*
X131093921Y-98055510D01*
X131069218Y-98028074D01*
X130997569Y-97948500D01*
X130965290Y-97912651D01*
X130809769Y-97799658D01*
X130779821Y-97786324D01*
X130637936Y-97723152D01*
X130637933Y-97723151D01*
X130634153Y-97721468D01*
X130630107Y-97720608D01*
X130630104Y-97720607D01*
X130450162Y-97682359D01*
X130450157Y-97682358D01*
X130446118Y-97681500D01*
X130253882Y-97681500D01*
X130249843Y-97682358D01*
X130249838Y-97682359D01*
X130069892Y-97720608D01*
X130069890Y-97720609D01*
X130065847Y-97721468D01*
X130062070Y-97723150D01*
X130062069Y-97723150D01*
X129894011Y-97797975D01*
X129894008Y-97797977D01*
X129890232Y-97799658D01*
X129886884Y-97802090D01*
X129886883Y-97802091D01*
X129853836Y-97826101D01*
X129734710Y-97912651D01*
X129702431Y-97948500D01*
X129630783Y-98028074D01*
X129606079Y-98055510D01*
X129604008Y-98059097D01*
X129513556Y-98215765D01*
X129509961Y-98221991D01*
X129450557Y-98404818D01*
X129450124Y-98408934D01*
X129450124Y-98408936D01*
X129444148Y-98465800D01*
X129435500Y-98548076D01*
X129435500Y-100151924D01*
X129435717Y-100153985D01*
X129435717Y-100153992D01*
X129450124Y-100291064D01*
X129450557Y-100295182D01*
X129509961Y-100478009D01*
X129512030Y-100481592D01*
X129512031Y-100481595D01*
X129587750Y-100612744D01*
X129606079Y-100644490D01*
X129608851Y-100647569D01*
X129608852Y-100647570D01*
X129622467Y-100662691D01*
X129734710Y-100787349D01*
X129890231Y-100900342D01*
X129894020Y-100902029D01*
X130017632Y-100957065D01*
X130056505Y-100994604D01*
X130064500Y-101029235D01*
X130064500Y-102523526D01*
X130064153Y-102528255D01*
X130062671Y-102532571D01*
X130062945Y-102539862D01*
X130064444Y-102579798D01*
X130064500Y-102582762D01*
X130064500Y-102601552D01*
X130065166Y-102605129D01*
X130065355Y-102607172D01*
X130065633Y-102611469D01*
X130066045Y-102622427D01*
X130066661Y-102638853D01*
X130071640Y-102650442D01*
X130076717Y-102667155D01*
X130077691Y-102672384D01*
X130077692Y-102672388D01*
X130079028Y-102679559D01*
X130086589Y-102691826D01*
X130092888Y-102702045D01*
X130098220Y-102712310D01*
X130108645Y-102736574D01*
X130112457Y-102741215D01*
X130117848Y-102746606D01*
X130129237Y-102761014D01*
X130131007Y-102763886D01*
X130131010Y-102763889D01*
X130134837Y-102770098D01*
X130149849Y-102781513D01*
X130157722Y-102787500D01*
X130165765Y-102794523D01*
X131786718Y-104415476D01*
X131789822Y-104419071D01*
X131791826Y-104423171D01*
X131797173Y-104428131D01*
X131826495Y-104455331D01*
X131828630Y-104457388D01*
X131841896Y-104470654D01*
X131844902Y-104472716D01*
X131846459Y-104474010D01*
X131849694Y-104476851D01*
X131869800Y-104495502D01*
X131880746Y-104499869D01*
X131881513Y-104500175D01*
X131896925Y-104508404D01*
X131907328Y-104515541D01*
X131924415Y-104519596D01*
X131933024Y-104521639D01*
X131944052Y-104525126D01*
X131968586Y-104534914D01*
X131974563Y-104535500D01*
X131982188Y-104535500D01*
X132000429Y-104537635D01*
X132010812Y-104540099D01*
X132018042Y-104539115D01*
X132018043Y-104539115D01*
X132039298Y-104536222D01*
X132049952Y-104535500D01*
X135798526Y-104535500D01*
X135803255Y-104535847D01*
X135807571Y-104537329D01*
X135854799Y-104535556D01*
X135857762Y-104535500D01*
X135876552Y-104535500D01*
X135880129Y-104534834D01*
X135882172Y-104534645D01*
X135886469Y-104534367D01*
X135906563Y-104533613D01*
X135906565Y-104533613D01*
X135913853Y-104533339D01*
X135925442Y-104528360D01*
X135942155Y-104523283D01*
X135947384Y-104522309D01*
X135947388Y-104522308D01*
X135954559Y-104520972D01*
X135977045Y-104507112D01*
X135987310Y-104501780D01*
X136001922Y-104495502D01*
X136011574Y-104491355D01*
X136016215Y-104487543D01*
X136021606Y-104482152D01*
X136036014Y-104470763D01*
X136038886Y-104468993D01*
X136038889Y-104468990D01*
X136045098Y-104465163D01*
X136062500Y-104442278D01*
X136069523Y-104434235D01*
X137840476Y-102663282D01*
X137844071Y-102660178D01*
X137848171Y-102658174D01*
X137880331Y-102623505D01*
X137882388Y-102621370D01*
X137895654Y-102608104D01*
X137897716Y-102605098D01*
X137899010Y-102603541D01*
X137901852Y-102600305D01*
X137915540Y-102585549D01*
X137920502Y-102580200D01*
X137925175Y-102568487D01*
X137933404Y-102553075D01*
X137940541Y-102542672D01*
X137946639Y-102516976D01*
X137950126Y-102505948D01*
X137959914Y-102481414D01*
X137960500Y-102475437D01*
X137960500Y-102467812D01*
X137962635Y-102449571D01*
X137963414Y-102446288D01*
X137965099Y-102439188D01*
X137961222Y-102410702D01*
X137960500Y-102400048D01*
X137960500Y-102151924D01*
X138635500Y-102151924D01*
X138635717Y-102153985D01*
X138635717Y-102153992D01*
X138648333Y-102274020D01*
X138650557Y-102295182D01*
X138709961Y-102478009D01*
X138712030Y-102481592D01*
X138712031Y-102481595D01*
X138786560Y-102610682D01*
X138806079Y-102644490D01*
X138808851Y-102647569D01*
X138808852Y-102647570D01*
X138850908Y-102694278D01*
X138934710Y-102787349D01*
X139090231Y-102900342D01*
X139094020Y-102902029D01*
X139262064Y-102976848D01*
X139262067Y-102976849D01*
X139265847Y-102978532D01*
X139269893Y-102979392D01*
X139269896Y-102979393D01*
X139449838Y-103017641D01*
X139449843Y-103017642D01*
X139453882Y-103018500D01*
X139646118Y-103018500D01*
X139650157Y-103017642D01*
X139650162Y-103017641D01*
X139830108Y-102979392D01*
X139830110Y-102979391D01*
X139834153Y-102978532D01*
X139837935Y-102976848D01*
X140005989Y-102902025D01*
X140005992Y-102902023D01*
X140009768Y-102900342D01*
X140094653Y-102838670D01*
X140161937Y-102789785D01*
X140161936Y-102789785D01*
X140165290Y-102787349D01*
X140249092Y-102694278D01*
X140291148Y-102647570D01*
X140291149Y-102647569D01*
X140293921Y-102644490D01*
X140313440Y-102610682D01*
X140387969Y-102481595D01*
X140387970Y-102481592D01*
X140390039Y-102478009D01*
X140449443Y-102295182D01*
X140451667Y-102274020D01*
X140464283Y-102153992D01*
X140464283Y-102153985D01*
X140464500Y-102151924D01*
X140464500Y-100548076D01*
X140463954Y-100542876D01*
X140449876Y-100408936D01*
X140449876Y-100408934D01*
X140449443Y-100404818D01*
X140390039Y-100221991D01*
X140381340Y-100206923D01*
X140295992Y-100059097D01*
X140293921Y-100055510D01*
X140165290Y-99912651D01*
X140099531Y-99864874D01*
X140712727Y-99864874D01*
X140712913Y-99868099D01*
X140712913Y-99868101D01*
X140713073Y-99870867D01*
X140713073Y-99870871D01*
X140725695Y-100089765D01*
X140726290Y-100100089D01*
X140727003Y-100103251D01*
X140727003Y-100103254D01*
X140754650Y-100225932D01*
X140778087Y-100329932D01*
X140779306Y-100332934D01*
X140864777Y-100543423D01*
X140866728Y-100548228D01*
X140989832Y-100749115D01*
X141144093Y-100927199D01*
X141325368Y-101077697D01*
X141528789Y-101196566D01*
X141531819Y-101197723D01*
X141745863Y-101279459D01*
X141745868Y-101279460D01*
X141748894Y-101280616D01*
X141752067Y-101281262D01*
X141752072Y-101281263D01*
X141976594Y-101326942D01*
X141976596Y-101326942D01*
X141979770Y-101327588D01*
X141983005Y-101327707D01*
X141983008Y-101327707D01*
X142128083Y-101333027D01*
X142215218Y-101336222D01*
X142448915Y-101306285D01*
X142607691Y-101258650D01*
X142671478Y-101239513D01*
X142671480Y-101239512D01*
X142674584Y-101238581D01*
X142782920Y-101185507D01*
X142883255Y-101136354D01*
X142883259Y-101136352D01*
X142886165Y-101134928D01*
X142888801Y-101133048D01*
X142888804Y-101133046D01*
X143075338Y-100999993D01*
X143075341Y-100999991D01*
X143077976Y-100998111D01*
X143098226Y-100977932D01*
X143242566Y-100834094D01*
X143244865Y-100831803D01*
X143382351Y-100640471D01*
X143486742Y-100429253D01*
X143495759Y-100399575D01*
X143554291Y-100206923D01*
X143554291Y-100206921D01*
X143555233Y-100203822D01*
X143569060Y-100098800D01*
X143574236Y-100059479D01*
X143585986Y-99970231D01*
X143586270Y-99958639D01*
X143587651Y-99902105D01*
X143587651Y-99902097D01*
X143587702Y-99900000D01*
X143587173Y-99893555D01*
X143568663Y-99668422D01*
X143568397Y-99665186D01*
X143560521Y-99633828D01*
X143531706Y-99519114D01*
X143511000Y-99436678D01*
X143509712Y-99433716D01*
X143509710Y-99433710D01*
X143429917Y-99250200D01*
X143417052Y-99220613D01*
X143299836Y-99039426D01*
X143290839Y-99025518D01*
X143290838Y-99025517D01*
X143289076Y-99022793D01*
X143286896Y-99020397D01*
X143286892Y-99020392D01*
X143132692Y-98850929D01*
X143130510Y-98848531D01*
X142945612Y-98702507D01*
X142914578Y-98685375D01*
X142834835Y-98641355D01*
X142739347Y-98588643D01*
X142736297Y-98587563D01*
X142736295Y-98587562D01*
X142520303Y-98511075D01*
X142520299Y-98511074D01*
X142517255Y-98509996D01*
X142285300Y-98468679D01*
X142282057Y-98468639D01*
X142282053Y-98468639D01*
X142167506Y-98467240D01*
X142049711Y-98465800D01*
X142046503Y-98466291D01*
X142046501Y-98466291D01*
X141975181Y-98477205D01*
X141816816Y-98501438D01*
X141592868Y-98574636D01*
X141383883Y-98683426D01*
X141381288Y-98685374D01*
X141381287Y-98685375D01*
X141378685Y-98687329D01*
X141195472Y-98824889D01*
X141193244Y-98827220D01*
X141193240Y-98827224D01*
X141034927Y-98992890D01*
X141032696Y-98995225D01*
X141007386Y-99032328D01*
X140910099Y-99174945D01*
X140899925Y-99189859D01*
X140800727Y-99403564D01*
X140799860Y-99406689D01*
X140799860Y-99406690D01*
X140741279Y-99617929D01*
X140737764Y-99630602D01*
X140737420Y-99633825D01*
X140737419Y-99633828D01*
X140728581Y-99716523D01*
X140712727Y-99864874D01*
X140099531Y-99864874D01*
X140009769Y-99799658D01*
X139997800Y-99794329D01*
X139837936Y-99723152D01*
X139837933Y-99723151D01*
X139834153Y-99721468D01*
X139830107Y-99720608D01*
X139830104Y-99720607D01*
X139650162Y-99682359D01*
X139650157Y-99682358D01*
X139646118Y-99681500D01*
X139453882Y-99681500D01*
X139449843Y-99682358D01*
X139449838Y-99682359D01*
X139269892Y-99720608D01*
X139269890Y-99720609D01*
X139265847Y-99721468D01*
X139262070Y-99723150D01*
X139262069Y-99723150D01*
X139094011Y-99797975D01*
X139094008Y-99797977D01*
X139090232Y-99799658D01*
X139086884Y-99802090D01*
X139086883Y-99802091D01*
X139053624Y-99826255D01*
X138934710Y-99912651D01*
X138806079Y-100055510D01*
X138804008Y-100059097D01*
X138718661Y-100206923D01*
X138709961Y-100221991D01*
X138650557Y-100404818D01*
X138650124Y-100408934D01*
X138650124Y-100408936D01*
X138636047Y-100542876D01*
X138635500Y-100548076D01*
X138635500Y-102151924D01*
X137960500Y-102151924D01*
X137960500Y-99300980D01*
X137978982Y-99250200D01*
X137983639Y-99245119D01*
X139402657Y-97826101D01*
X139406252Y-97822997D01*
X139410352Y-97820993D01*
X139442512Y-97786324D01*
X139444569Y-97784189D01*
X139457835Y-97770923D01*
X139459897Y-97767917D01*
X139461191Y-97766360D01*
X139464033Y-97763124D01*
X139477721Y-97748368D01*
X139482683Y-97743019D01*
X139487355Y-97731309D01*
X139495587Y-97715892D01*
X139498596Y-97711506D01*
X139498598Y-97711502D01*
X139502722Y-97705490D01*
X139508821Y-97679791D01*
X139512310Y-97668760D01*
X139520027Y-97649417D01*
X139520027Y-97649416D01*
X139522095Y-97644233D01*
X139522681Y-97638256D01*
X139522681Y-97630632D01*
X139524816Y-97612391D01*
X139525595Y-97609108D01*
X139525595Y-97609107D01*
X139527280Y-97602007D01*
X139523403Y-97573521D01*
X139522681Y-97562867D01*
X139522681Y-97170402D01*
X139541163Y-97119622D01*
X139587963Y-97092602D01*
X139601681Y-97091402D01*
X139670249Y-97091402D01*
X139685037Y-97089613D01*
X139753523Y-97081326D01*
X139753526Y-97081325D01*
X139758561Y-97080716D01*
X139896505Y-97026101D01*
X140014679Y-96936401D01*
X140104379Y-96818227D01*
X140157125Y-96685004D01*
X140157129Y-96684995D01*
X140157130Y-96684991D01*
X140158994Y-96680283D01*
X140169681Y-96591972D01*
X140169680Y-95745835D01*
X140158994Y-95657523D01*
X140157125Y-95652802D01*
X140143379Y-95618082D01*
X140141870Y-95564063D01*
X140175436Y-95521713D01*
X140216831Y-95510000D01*
X140817531Y-95510000D01*
X140868311Y-95528482D01*
X140895331Y-95575282D01*
X140890983Y-95618082D01*
X140877234Y-95652807D01*
X140877232Y-95652815D01*
X140875368Y-95657523D01*
X140864681Y-95745834D01*
X140864682Y-96591971D01*
X140875368Y-96680283D01*
X140929983Y-96818227D01*
X141019683Y-96936401D01*
X141137857Y-97026101D01*
X141189675Y-97046617D01*
X141271089Y-97078851D01*
X141271093Y-97078852D01*
X141275801Y-97080716D01*
X141280831Y-97081325D01*
X141280832Y-97081325D01*
X141311352Y-97085018D01*
X141364112Y-97091403D01*
X141787092Y-97091403D01*
X142210249Y-97091402D01*
X142225037Y-97089613D01*
X142293523Y-97081326D01*
X142293526Y-97081325D01*
X142298561Y-97080716D01*
X142436505Y-97026101D01*
X142554679Y-96936401D01*
X142644379Y-96818227D01*
X142697125Y-96685004D01*
X142697129Y-96684995D01*
X142697130Y-96684991D01*
X142698994Y-96680283D01*
X142709681Y-96591972D01*
X142709680Y-95745835D01*
X142698994Y-95657523D01*
X142697125Y-95652802D01*
X142683379Y-95618082D01*
X142681870Y-95564063D01*
X142715436Y-95521713D01*
X142756831Y-95510000D01*
X143357531Y-95510000D01*
X143408311Y-95528482D01*
X143435331Y-95575282D01*
X143430983Y-95618082D01*
X143417234Y-95652807D01*
X143417232Y-95652815D01*
X143415368Y-95657523D01*
X143404681Y-95745834D01*
X143404682Y-96591971D01*
X143415368Y-96680283D01*
X143469983Y-96818227D01*
X143559683Y-96936401D01*
X143677857Y-97026101D01*
X143729675Y-97046617D01*
X143811089Y-97078851D01*
X143811093Y-97078852D01*
X143815801Y-97080716D01*
X143820831Y-97081325D01*
X143820832Y-97081325D01*
X143851352Y-97085018D01*
X143904112Y-97091403D01*
X144327092Y-97091403D01*
X144750249Y-97091402D01*
X144765037Y-97089613D01*
X144833523Y-97081326D01*
X144833526Y-97081325D01*
X144838561Y-97080716D01*
X144976505Y-97026101D01*
X145094679Y-96936401D01*
X145184379Y-96818227D01*
X145237125Y-96685004D01*
X145237129Y-96684995D01*
X145237130Y-96684991D01*
X145238994Y-96680283D01*
X145247247Y-96612086D01*
X145855182Y-96612086D01*
X145855302Y-96615159D01*
X145857680Y-96645378D01*
X145859122Y-96653274D01*
X145901087Y-96797716D01*
X145905008Y-96806778D01*
X145981101Y-96935443D01*
X145987147Y-96943237D01*
X146092847Y-97048937D01*
X146100641Y-97054983D01*
X146229306Y-97131076D01*
X146238368Y-97134997D01*
X146382805Y-97176960D01*
X146390716Y-97178405D01*
X146420896Y-97180780D01*
X146424014Y-97180903D01*
X146728251Y-97180903D01*
X146738922Y-97177019D01*
X146742181Y-97171375D01*
X146742181Y-97166972D01*
X146992181Y-97166972D01*
X146996065Y-97177643D01*
X147001709Y-97180902D01*
X147310364Y-97180902D01*
X147313437Y-97180782D01*
X147343656Y-97178404D01*
X147351552Y-97176962D01*
X147495994Y-97134997D01*
X147505056Y-97131076D01*
X147633721Y-97054983D01*
X147641515Y-97048937D01*
X147747215Y-96943237D01*
X147753261Y-96935443D01*
X147829354Y-96806778D01*
X147833275Y-96797716D01*
X147875238Y-96653279D01*
X147876683Y-96645368D01*
X147879058Y-96615188D01*
X147879181Y-96612070D01*
X147879181Y-96307833D01*
X147875297Y-96297162D01*
X147869653Y-96293903D01*
X147006111Y-96293903D01*
X146995440Y-96297787D01*
X146992181Y-96303431D01*
X146992181Y-97166972D01*
X146742181Y-97166972D01*
X146742181Y-96307833D01*
X146738297Y-96297162D01*
X146732653Y-96293903D01*
X145869112Y-96293903D01*
X145858441Y-96297787D01*
X145855182Y-96303431D01*
X145855182Y-96612086D01*
X145247247Y-96612086D01*
X145249681Y-96591972D01*
X145249680Y-95745835D01*
X145238994Y-95657523D01*
X145237125Y-95652802D01*
X145223379Y-95618082D01*
X145221870Y-95564063D01*
X145255436Y-95521713D01*
X145296831Y-95510000D01*
X145804611Y-95510000D01*
X145855391Y-95528482D01*
X145882411Y-95575282D01*
X145880474Y-95611041D01*
X145859123Y-95684530D01*
X145857679Y-95692438D01*
X145855304Y-95722618D01*
X145855181Y-95725737D01*
X145855181Y-96029973D01*
X145859065Y-96040644D01*
X145864709Y-96043903D01*
X147865250Y-96043903D01*
X147875921Y-96040019D01*
X147879180Y-96034375D01*
X147879180Y-95725720D01*
X147879060Y-95722647D01*
X147876682Y-95692428D01*
X147875241Y-95684535D01*
X147853888Y-95611041D01*
X147857469Y-95557120D01*
X147894872Y-95518117D01*
X147929751Y-95510000D01*
X148437531Y-95510000D01*
X148488311Y-95528482D01*
X148515331Y-95575282D01*
X148510983Y-95618082D01*
X148497234Y-95652807D01*
X148497232Y-95652815D01*
X148495368Y-95657523D01*
X148484681Y-95745834D01*
X148484682Y-96591971D01*
X148495368Y-96680283D01*
X148497236Y-96685000D01*
X148497237Y-96685004D01*
X148531740Y-96772150D01*
X148533249Y-96826168D01*
X148514149Y-96857093D01*
X147279881Y-98091361D01*
X147230905Y-98114199D01*
X147224020Y-98114500D01*
X146726473Y-98114500D01*
X146721744Y-98114153D01*
X146717428Y-98112671D01*
X146670201Y-98114444D01*
X146667237Y-98114500D01*
X146648448Y-98114500D01*
X146644871Y-98115166D01*
X146642828Y-98115355D01*
X146638531Y-98115633D01*
X146618437Y-98116387D01*
X146618435Y-98116387D01*
X146611147Y-98116661D01*
X146599558Y-98121640D01*
X146582845Y-98126717D01*
X146577616Y-98127691D01*
X146577612Y-98127692D01*
X146570441Y-98129028D01*
X146555428Y-98138282D01*
X146547955Y-98142888D01*
X146537690Y-98148220D01*
X146513426Y-98158645D01*
X146508785Y-98162457D01*
X146503394Y-98167848D01*
X146488986Y-98179237D01*
X146486114Y-98181007D01*
X146486111Y-98181010D01*
X146479902Y-98184837D01*
X146475486Y-98190645D01*
X146462500Y-98207722D01*
X146455477Y-98215765D01*
X141984524Y-102686718D01*
X141980929Y-102689822D01*
X141976829Y-102691826D01*
X141971869Y-102697173D01*
X141944669Y-102726495D01*
X141942612Y-102728630D01*
X141929346Y-102741896D01*
X141927284Y-102744902D01*
X141925990Y-102746459D01*
X141923149Y-102749694D01*
X141904498Y-102769800D01*
X141901795Y-102776576D01*
X141899825Y-102781513D01*
X141891596Y-102796925D01*
X141884459Y-102807328D01*
X141882775Y-102814426D01*
X141878361Y-102833027D01*
X141874872Y-102844058D01*
X141865086Y-102868586D01*
X141864500Y-102874563D01*
X141864500Y-102882193D01*
X141862365Y-102900432D01*
X141859902Y-102910812D01*
X141860886Y-102918042D01*
X141860886Y-102918043D01*
X141863778Y-102939291D01*
X141864500Y-102949945D01*
X141864500Y-106565054D01*
X141846018Y-106615834D01*
X141807806Y-106640840D01*
X141768335Y-106652457D01*
X141768333Y-106652458D01*
X141764629Y-106653548D01*
X141589010Y-106745359D01*
X141586003Y-106747777D01*
X141586001Y-106747778D01*
X141576193Y-106755664D01*
X141434570Y-106869532D01*
X141307189Y-107021339D01*
X141305327Y-107024727D01*
X141305325Y-107024729D01*
X141298854Y-107036500D01*
X141211720Y-107194996D01*
X141151800Y-107383889D01*
X141129710Y-107580823D01*
X141130033Y-107584669D01*
X141144890Y-107761595D01*
X141146292Y-107778297D01*
X141200915Y-107968790D01*
X141291498Y-108145045D01*
X141414590Y-108300348D01*
X141565504Y-108428786D01*
X141568878Y-108430672D01*
X141568880Y-108430673D01*
X141607615Y-108452321D01*
X141738490Y-108525465D01*
X141742152Y-108526655D01*
X141742157Y-108526657D01*
X141844736Y-108559986D01*
X141926960Y-108586702D01*
X141930797Y-108587160D01*
X141930799Y-108587160D01*
X142119892Y-108609708D01*
X142119895Y-108609708D01*
X142123735Y-108610166D01*
X142321320Y-108594963D01*
X142512190Y-108541671D01*
X142640128Y-108477045D01*
X142685619Y-108454066D01*
X142685621Y-108454065D01*
X142689073Y-108452321D01*
X142845232Y-108330316D01*
X142892610Y-108275428D01*
X142972196Y-108183228D01*
X142972200Y-108183223D01*
X142974720Y-108180303D01*
X142976626Y-108176947D01*
X142976630Y-108176942D01*
X143070695Y-108011356D01*
X143072604Y-108007996D01*
X143073824Y-108004329D01*
X143133935Y-107823630D01*
X143133936Y-107823625D01*
X143135156Y-107819958D01*
X143159993Y-107623351D01*
X143160389Y-107595000D01*
X143141051Y-107397777D01*
X143083774Y-107208065D01*
X143081963Y-107204660D01*
X143081961Y-107204654D01*
X142992551Y-107036500D01*
X142990739Y-107033092D01*
X142983919Y-107024729D01*
X142895894Y-106916801D01*
X142865490Y-106879522D01*
X142853415Y-106869532D01*
X142715773Y-106755665D01*
X142715772Y-106755664D01*
X142712798Y-106753204D01*
X142694979Y-106743569D01*
X142645174Y-106716640D01*
X142538479Y-106658950D01*
X142534797Y-106657810D01*
X142534794Y-106657809D01*
X142491139Y-106644296D01*
X142448095Y-106611624D01*
X142435500Y-106568829D01*
X142435500Y-105318699D01*
X143034288Y-105318699D01*
X143053249Y-105463695D01*
X143112143Y-105597542D01*
X143206236Y-105709479D01*
X143327964Y-105790508D01*
X143467541Y-105834116D01*
X143517056Y-105835023D01*
X143608120Y-105836692D01*
X143608121Y-105836692D01*
X143613747Y-105836795D01*
X143754829Y-105798332D01*
X143879445Y-105721818D01*
X143883218Y-105717650D01*
X143883220Y-105717648D01*
X143973799Y-105617577D01*
X143973800Y-105617576D01*
X143977576Y-105613404D01*
X144041335Y-105481805D01*
X144045321Y-105458116D01*
X144065090Y-105340610D01*
X144065090Y-105340607D01*
X144065596Y-105337601D01*
X144065750Y-105325000D01*
X144045020Y-105180246D01*
X143984495Y-105047129D01*
X143980820Y-105042864D01*
X143980818Y-105042861D01*
X143892716Y-104940615D01*
X143889041Y-104936350D01*
X143878064Y-104929235D01*
X143871530Y-104924999D01*
X143838972Y-104881870D01*
X143835500Y-104858708D01*
X143835500Y-103600980D01*
X143853982Y-103550200D01*
X143858639Y-103545119D01*
X145521313Y-101882445D01*
X145570289Y-101859607D01*
X145578621Y-101859319D01*
X145602468Y-101859756D01*
X145708120Y-101861692D01*
X145708121Y-101861692D01*
X145713747Y-101861795D01*
X145854829Y-101823332D01*
X145979445Y-101746818D01*
X145983218Y-101742650D01*
X145983220Y-101742648D01*
X146073799Y-101642577D01*
X146073800Y-101642576D01*
X146077576Y-101638404D01*
X146141335Y-101506805D01*
X146144343Y-101488930D01*
X146165090Y-101365610D01*
X146165090Y-101365607D01*
X146165596Y-101362601D01*
X146165750Y-101350000D01*
X146155648Y-101279459D01*
X146145818Y-101210816D01*
X146145817Y-101210814D01*
X146145020Y-101205246D01*
X146142275Y-101199209D01*
X146086827Y-101077257D01*
X146086826Y-101077255D01*
X146084495Y-101072129D01*
X146080820Y-101067864D01*
X146080818Y-101067861D01*
X145992716Y-100965615D01*
X145989041Y-100961350D01*
X145939552Y-100929273D01*
X145871054Y-100884874D01*
X145871051Y-100884872D01*
X145866332Y-100881814D01*
X145757310Y-100849209D01*
X145731621Y-100841526D01*
X145731619Y-100841526D01*
X145726233Y-100839915D01*
X145653711Y-100839472D01*
X145585630Y-100839056D01*
X145585628Y-100839056D01*
X145580005Y-100839022D01*
X145439404Y-100879206D01*
X145315732Y-100957237D01*
X145312011Y-100961450D01*
X145312010Y-100961451D01*
X145282730Y-100994604D01*
X145218932Y-101066841D01*
X145156786Y-101199209D01*
X145144010Y-101281263D01*
X145135385Y-101336656D01*
X145134288Y-101343699D01*
X145141619Y-101399761D01*
X145142918Y-101409691D01*
X145131176Y-101462439D01*
X145120446Y-101475796D01*
X143384524Y-103211718D01*
X143380929Y-103214822D01*
X143376829Y-103216826D01*
X143371869Y-103222173D01*
X143344669Y-103251495D01*
X143342612Y-103253630D01*
X143329346Y-103266896D01*
X143327284Y-103269902D01*
X143325990Y-103271459D01*
X143323149Y-103274694D01*
X143304498Y-103294800D01*
X143301795Y-103301576D01*
X143299825Y-103306513D01*
X143291596Y-103321925D01*
X143284459Y-103332328D01*
X143282775Y-103339426D01*
X143278361Y-103358027D01*
X143274872Y-103369058D01*
X143265086Y-103393586D01*
X143264500Y-103399563D01*
X143264500Y-103407193D01*
X143262365Y-103425432D01*
X143259902Y-103435812D01*
X143260886Y-103443042D01*
X143260886Y-103443043D01*
X143263778Y-103464291D01*
X143264500Y-103474945D01*
X143264500Y-104857901D01*
X143246018Y-104908681D01*
X143227656Y-104924713D01*
X143220980Y-104928926D01*
X143215732Y-104932237D01*
X143212011Y-104936450D01*
X143212010Y-104936451D01*
X143122658Y-105037622D01*
X143118932Y-105041841D01*
X143056786Y-105174209D01*
X143034288Y-105318699D01*
X142435500Y-105318699D01*
X142435500Y-103075980D01*
X142453982Y-103025200D01*
X142458639Y-103020119D01*
X146770119Y-98708639D01*
X146819095Y-98685801D01*
X146825980Y-98685500D01*
X147323526Y-98685500D01*
X147328255Y-98685847D01*
X147332571Y-98687329D01*
X147379799Y-98685556D01*
X147382762Y-98685500D01*
X147401552Y-98685500D01*
X147405129Y-98684834D01*
X147407172Y-98684645D01*
X147411469Y-98684367D01*
X147431563Y-98683613D01*
X147431565Y-98683613D01*
X147438853Y-98683339D01*
X147450442Y-98678360D01*
X147467155Y-98673283D01*
X147472384Y-98672309D01*
X147472388Y-98672308D01*
X147479559Y-98670972D01*
X147502045Y-98657112D01*
X147512310Y-98651780D01*
X147514094Y-98651014D01*
X147536574Y-98641355D01*
X147541215Y-98637543D01*
X147546606Y-98632152D01*
X147561014Y-98620763D01*
X147563886Y-98618993D01*
X147563889Y-98618990D01*
X147570098Y-98615163D01*
X147587500Y-98592278D01*
X147594523Y-98584235D01*
X149064216Y-97114542D01*
X149113192Y-97091704D01*
X149120077Y-97091403D01*
X149779859Y-97091402D01*
X149830249Y-97091402D01*
X149845037Y-97089613D01*
X149913523Y-97081326D01*
X149913526Y-97081325D01*
X149918561Y-97080716D01*
X150056505Y-97026101D01*
X150174679Y-96936401D01*
X150264379Y-96818227D01*
X150317125Y-96685004D01*
X150317129Y-96684995D01*
X150317130Y-96684991D01*
X150318994Y-96680283D01*
X150329681Y-96591972D01*
X150329680Y-95745835D01*
X150318994Y-95657523D01*
X150317125Y-95652802D01*
X150303379Y-95618082D01*
X150301870Y-95564063D01*
X150335436Y-95521713D01*
X150376831Y-95510000D01*
X150977531Y-95510000D01*
X151028311Y-95528482D01*
X151055331Y-95575282D01*
X151050983Y-95618082D01*
X151037234Y-95652807D01*
X151037232Y-95652815D01*
X151035368Y-95657523D01*
X151024681Y-95745834D01*
X151024682Y-96591971D01*
X151035368Y-96680283D01*
X151037236Y-96685000D01*
X151037237Y-96685004D01*
X151081667Y-96797223D01*
X151083176Y-96851241D01*
X151064076Y-96882166D01*
X150659524Y-97286718D01*
X150655929Y-97289822D01*
X150651829Y-97291826D01*
X150646869Y-97297173D01*
X150619669Y-97326495D01*
X150617612Y-97328630D01*
X150604346Y-97341896D01*
X150602284Y-97344902D01*
X150600990Y-97346459D01*
X150598149Y-97349694D01*
X150579498Y-97369800D01*
X150576795Y-97376576D01*
X150574825Y-97381513D01*
X150566596Y-97396925D01*
X150559459Y-97407328D01*
X150557775Y-97414426D01*
X150553361Y-97433027D01*
X150549872Y-97444058D01*
X150540086Y-97468586D01*
X150539500Y-97474563D01*
X150539500Y-97482193D01*
X150537365Y-97500432D01*
X150534902Y-97510812D01*
X150535886Y-97518042D01*
X150535886Y-97518043D01*
X150538778Y-97539291D01*
X150539500Y-97549945D01*
X150539500Y-97749020D01*
X150521018Y-97799800D01*
X150516361Y-97804881D01*
X144509524Y-103811718D01*
X144505929Y-103814822D01*
X144501829Y-103816826D01*
X144496869Y-103822173D01*
X144469669Y-103851495D01*
X144467612Y-103853630D01*
X144454346Y-103866896D01*
X144452284Y-103869902D01*
X144450990Y-103871459D01*
X144448149Y-103874694D01*
X144429498Y-103894800D01*
X144426795Y-103901576D01*
X144424825Y-103906513D01*
X144416596Y-103921925D01*
X144409459Y-103932328D01*
X144407775Y-103939426D01*
X144403361Y-103958027D01*
X144399872Y-103969058D01*
X144390086Y-103993586D01*
X144389500Y-103999563D01*
X144389500Y-104007193D01*
X144387365Y-104025432D01*
X144384902Y-104035812D01*
X144385886Y-104043042D01*
X144385886Y-104043043D01*
X144388778Y-104064291D01*
X144389500Y-104074945D01*
X144389500Y-106512285D01*
X144371018Y-106563065D01*
X144324218Y-106590085D01*
X144317666Y-106590959D01*
X144244735Y-106597596D01*
X144241028Y-106598687D01*
X144058338Y-106652456D01*
X144058335Y-106652457D01*
X144054629Y-106653548D01*
X143879010Y-106745359D01*
X143876003Y-106747777D01*
X143876001Y-106747778D01*
X143866193Y-106755664D01*
X143724570Y-106869532D01*
X143597189Y-107021339D01*
X143595327Y-107024727D01*
X143595325Y-107024729D01*
X143588854Y-107036500D01*
X143501720Y-107194996D01*
X143441800Y-107383889D01*
X143419710Y-107580823D01*
X143420033Y-107584669D01*
X143434890Y-107761595D01*
X143436292Y-107778297D01*
X143490915Y-107968790D01*
X143581498Y-108145045D01*
X143704590Y-108300348D01*
X143855504Y-108428786D01*
X143858878Y-108430672D01*
X143858880Y-108430673D01*
X143897615Y-108452321D01*
X144028490Y-108525465D01*
X144032152Y-108526655D01*
X144032157Y-108526657D01*
X144134736Y-108559986D01*
X144216960Y-108586702D01*
X144220797Y-108587160D01*
X144220799Y-108587160D01*
X144409892Y-108609708D01*
X144409895Y-108609708D01*
X144413735Y-108610166D01*
X144611320Y-108594963D01*
X144802190Y-108541671D01*
X144930128Y-108477045D01*
X144975619Y-108454066D01*
X144975621Y-108454065D01*
X144979073Y-108452321D01*
X145135232Y-108330316D01*
X145182610Y-108275428D01*
X145262196Y-108183228D01*
X145262200Y-108183223D01*
X145264720Y-108180303D01*
X145266626Y-108176947D01*
X145266630Y-108176942D01*
X145360695Y-108011356D01*
X145362604Y-108007996D01*
X145363824Y-108004329D01*
X145423935Y-107823630D01*
X145423936Y-107823625D01*
X145425156Y-107819958D01*
X145449993Y-107623351D01*
X145450389Y-107595000D01*
X145431051Y-107397777D01*
X145373774Y-107208065D01*
X145371963Y-107204660D01*
X145371961Y-107204654D01*
X145282551Y-107036500D01*
X145280739Y-107033092D01*
X145273919Y-107024729D01*
X145185894Y-106916801D01*
X145155490Y-106879522D01*
X145143415Y-106869532D01*
X145005772Y-106755664D01*
X145005770Y-106755663D01*
X145002798Y-106753204D01*
X144999403Y-106751368D01*
X144996197Y-106749206D01*
X144997323Y-106747536D01*
X144966060Y-106712354D01*
X144960500Y-106683240D01*
X144960500Y-104200980D01*
X144978982Y-104150200D01*
X144983639Y-104145119D01*
X150990476Y-98138282D01*
X150994071Y-98135178D01*
X150998171Y-98133174D01*
X151030331Y-98098505D01*
X151032388Y-98096370D01*
X151045654Y-98083104D01*
X151047716Y-98080098D01*
X151049010Y-98078541D01*
X151051852Y-98075305D01*
X151065540Y-98060549D01*
X151070502Y-98055200D01*
X151075177Y-98043483D01*
X151083405Y-98028074D01*
X151086412Y-98023690D01*
X151086413Y-98023689D01*
X151090540Y-98017672D01*
X151096638Y-97991977D01*
X151100127Y-97980946D01*
X151107846Y-97961598D01*
X151107846Y-97961597D01*
X151109914Y-97956414D01*
X151110500Y-97950437D01*
X151110500Y-97942808D01*
X151112635Y-97924567D01*
X151113413Y-97921288D01*
X151115098Y-97914188D01*
X151111222Y-97885709D01*
X151110500Y-97875055D01*
X151110500Y-97675980D01*
X151128982Y-97625200D01*
X151133639Y-97620119D01*
X151639216Y-97114542D01*
X151688192Y-97091704D01*
X151695077Y-97091403D01*
X152322233Y-97091402D01*
X152370249Y-97091402D01*
X152385037Y-97089613D01*
X152453523Y-97081326D01*
X152453526Y-97081325D01*
X152458561Y-97080716D01*
X152596505Y-97026101D01*
X152714679Y-96936401D01*
X152804379Y-96818227D01*
X152857125Y-96685004D01*
X152857129Y-96684995D01*
X152857130Y-96684991D01*
X152858994Y-96680283D01*
X152869681Y-96591972D01*
X152869680Y-95745835D01*
X152858994Y-95657523D01*
X152857125Y-95652802D01*
X152843379Y-95618082D01*
X152841870Y-95564063D01*
X152875436Y-95521713D01*
X152916831Y-95510000D01*
X153485681Y-95510000D01*
X153536461Y-95528482D01*
X153563481Y-95575282D01*
X153564681Y-95589000D01*
X153564681Y-96873839D01*
X153546199Y-96924619D01*
X153541542Y-96929700D01*
X151129881Y-99341361D01*
X151080905Y-99364199D01*
X151074020Y-99364500D01*
X150551473Y-99364500D01*
X150546744Y-99364153D01*
X150542428Y-99362671D01*
X150495201Y-99364444D01*
X150492237Y-99364500D01*
X150473448Y-99364500D01*
X150469871Y-99365166D01*
X150467828Y-99365355D01*
X150463531Y-99365633D01*
X150443437Y-99366387D01*
X150443435Y-99366387D01*
X150436147Y-99366661D01*
X150424558Y-99371640D01*
X150407845Y-99376717D01*
X150402616Y-99377691D01*
X150402612Y-99377692D01*
X150395441Y-99379028D01*
X150381499Y-99387622D01*
X150372955Y-99392888D01*
X150362690Y-99398220D01*
X150338426Y-99408645D01*
X150333785Y-99412457D01*
X150328394Y-99417848D01*
X150313986Y-99429237D01*
X150311114Y-99431007D01*
X150311111Y-99431010D01*
X150304902Y-99434837D01*
X150300486Y-99440645D01*
X150287500Y-99457722D01*
X150280477Y-99465765D01*
X146559524Y-103186718D01*
X146555929Y-103189822D01*
X146551829Y-103191826D01*
X146546869Y-103197173D01*
X146519669Y-103226495D01*
X146517612Y-103228630D01*
X146504346Y-103241896D01*
X146502284Y-103244902D01*
X146500990Y-103246459D01*
X146498149Y-103249694D01*
X146479498Y-103269800D01*
X146476795Y-103276576D01*
X146474825Y-103281513D01*
X146466596Y-103296925D01*
X146459459Y-103307328D01*
X146457775Y-103314426D01*
X146453361Y-103333027D01*
X146449872Y-103344058D01*
X146440086Y-103368586D01*
X146439500Y-103374563D01*
X146439500Y-103382193D01*
X146437365Y-103400432D01*
X146434902Y-103410812D01*
X146435886Y-103418042D01*
X146435886Y-103418043D01*
X146438778Y-103439291D01*
X146439500Y-103449945D01*
X146439500Y-106505500D01*
X146421018Y-106556280D01*
X146374218Y-106583300D01*
X146360500Y-106584500D01*
X145859194Y-106584500D01*
X145843941Y-106587534D01*
X145820006Y-106592295D01*
X145820005Y-106592295D01*
X145812376Y-106593813D01*
X145805906Y-106598136D01*
X145784698Y-106612306D01*
X145759286Y-106629286D01*
X145723813Y-106682376D01*
X145714500Y-106729194D01*
X145714500Y-108396547D01*
X145696018Y-108447327D01*
X145649218Y-108474347D01*
X145634466Y-108475540D01*
X145496952Y-108473739D01*
X145489752Y-108474306D01*
X145297653Y-108507315D01*
X145290675Y-108509185D01*
X145107805Y-108576649D01*
X145101298Y-108579753D01*
X144933782Y-108679414D01*
X144927938Y-108683660D01*
X144905115Y-108703677D01*
X144899652Y-108713635D01*
X144900705Y-108718928D01*
X145570149Y-109388372D01*
X145580443Y-109393172D01*
X145586737Y-109391486D01*
X146256761Y-108721462D01*
X146261561Y-108711168D01*
X146259894Y-108704946D01*
X146264604Y-108651113D01*
X146302816Y-108612902D01*
X146336202Y-108605500D01*
X147115527Y-108605500D01*
X147166307Y-108623982D01*
X147193327Y-108670782D01*
X147187794Y-108704297D01*
X147190705Y-108718928D01*
X147860149Y-109388372D01*
X147870443Y-109393172D01*
X147876737Y-109391486D01*
X148546761Y-108721462D01*
X148551561Y-108711168D01*
X148550056Y-108705551D01*
X148545165Y-108701029D01*
X148539445Y-108696640D01*
X148374590Y-108592625D01*
X148368167Y-108589353D01*
X148187121Y-108517122D01*
X148180200Y-108515072D01*
X147989024Y-108477045D01*
X147981854Y-108476292D01*
X147813466Y-108474087D01*
X147762932Y-108454942D01*
X147736527Y-108407793D01*
X147735500Y-108395094D01*
X147735500Y-106729194D01*
X147726187Y-106682376D01*
X147690714Y-106629286D01*
X147665302Y-106612306D01*
X147644094Y-106598136D01*
X147637624Y-106593813D01*
X147629995Y-106592295D01*
X147629994Y-106592295D01*
X147606059Y-106587534D01*
X147590806Y-106584500D01*
X147089500Y-106584500D01*
X147038720Y-106566018D01*
X147011700Y-106519218D01*
X147010500Y-106505500D01*
X147010500Y-103575980D01*
X147028982Y-103525200D01*
X147033639Y-103520119D01*
X149560059Y-100993699D01*
X149984288Y-100993699D01*
X150003249Y-101138695D01*
X150062143Y-101272542D01*
X150065765Y-101276851D01*
X150116585Y-101337309D01*
X150156236Y-101384479D01*
X150277964Y-101465508D01*
X150417541Y-101509116D01*
X150467056Y-101510023D01*
X150558120Y-101511692D01*
X150558121Y-101511692D01*
X150563747Y-101511795D01*
X150704829Y-101473332D01*
X150829445Y-101396818D01*
X150833219Y-101392648D01*
X150837552Y-101389051D01*
X150838512Y-101390207D01*
X150880380Y-101368080D01*
X150933209Y-101379449D01*
X150962090Y-101411520D01*
X150982216Y-101452511D01*
X151073044Y-101543181D01*
X151188344Y-101599541D01*
X151230517Y-101605693D01*
X151260638Y-101610088D01*
X151260644Y-101610088D01*
X151263465Y-101610500D01*
X151548752Y-101610500D01*
X151836534Y-101610499D01*
X151912309Y-101599346D01*
X151917819Y-101596640D01*
X151917821Y-101596640D01*
X152021649Y-101545662D01*
X152021648Y-101545662D01*
X152027511Y-101542784D01*
X152118181Y-101451956D01*
X152174541Y-101336656D01*
X152182622Y-101281263D01*
X152185088Y-101264362D01*
X152185088Y-101264356D01*
X152185500Y-101261535D01*
X152185499Y-100738466D01*
X152185499Y-100738465D01*
X153064500Y-100738465D01*
X153064501Y-101261534D01*
X153075654Y-101337309D01*
X153078360Y-101342819D01*
X153078360Y-101342821D01*
X153100345Y-101387598D01*
X153132216Y-101452511D01*
X153223044Y-101543181D01*
X153338344Y-101599541D01*
X153380517Y-101605693D01*
X153410638Y-101610088D01*
X153410644Y-101610088D01*
X153413465Y-101610500D01*
X153698752Y-101610500D01*
X153986534Y-101610499D01*
X154062309Y-101599346D01*
X154067819Y-101596640D01*
X154067821Y-101596640D01*
X154171649Y-101545662D01*
X154171648Y-101545662D01*
X154177511Y-101542784D01*
X154268181Y-101451956D01*
X154324541Y-101336656D01*
X154332622Y-101281263D01*
X154335088Y-101264362D01*
X154335088Y-101264356D01*
X154335500Y-101261535D01*
X154335499Y-100738466D01*
X154324346Y-100662691D01*
X154316922Y-100647569D01*
X154286613Y-100585839D01*
X154267784Y-100547489D01*
X154176956Y-100456819D01*
X154061656Y-100400459D01*
X154055593Y-100399574D01*
X154055588Y-100399573D01*
X154053094Y-100399209D01*
X154051320Y-100398254D01*
X154049732Y-100397763D01*
X154049829Y-100397451D01*
X154005514Y-100373589D01*
X153985500Y-100321037D01*
X153985500Y-100142998D01*
X154003982Y-100092218D01*
X154023160Y-100075678D01*
X154024648Y-100074765D01*
X154024656Y-100074759D01*
X154029445Y-100071818D01*
X154033218Y-100067650D01*
X154033220Y-100067648D01*
X154123799Y-99967577D01*
X154123800Y-99967576D01*
X154127576Y-99963404D01*
X154157433Y-99901780D01*
X154188881Y-99836870D01*
X154191335Y-99831805D01*
X154195321Y-99808116D01*
X154215090Y-99690610D01*
X154215090Y-99690607D01*
X154215596Y-99687601D01*
X154215750Y-99675000D01*
X154195020Y-99530246D01*
X154163981Y-99461979D01*
X154136827Y-99402257D01*
X154136826Y-99402255D01*
X154134495Y-99397129D01*
X154130820Y-99392864D01*
X154130818Y-99392861D01*
X154042716Y-99290615D01*
X154039041Y-99286350D01*
X153998812Y-99260275D01*
X153921054Y-99209874D01*
X153921051Y-99209872D01*
X153916332Y-99206814D01*
X153809771Y-99174945D01*
X153781621Y-99166526D01*
X153781619Y-99166526D01*
X153776233Y-99164915D01*
X153703711Y-99164472D01*
X153635630Y-99164056D01*
X153635628Y-99164056D01*
X153630005Y-99164022D01*
X153489404Y-99204206D01*
X153365732Y-99282237D01*
X153362011Y-99286450D01*
X153362010Y-99286451D01*
X153333645Y-99318568D01*
X153268932Y-99391841D01*
X153206786Y-99524209D01*
X153184288Y-99668699D01*
X153185018Y-99674280D01*
X153201732Y-99802091D01*
X153203249Y-99813695D01*
X153262143Y-99947542D01*
X153265765Y-99951851D01*
X153351977Y-100054412D01*
X153356236Y-100059479D01*
X153378169Y-100074079D01*
X153379275Y-100074815D01*
X153411305Y-100118339D01*
X153414500Y-100140578D01*
X153414500Y-100321125D01*
X153396018Y-100371905D01*
X153349597Y-100397836D01*
X153349629Y-100397938D01*
X153349144Y-100398089D01*
X153347006Y-100399283D01*
X153337691Y-100400654D01*
X153332181Y-100403360D01*
X153332179Y-100403360D01*
X153279442Y-100429253D01*
X153222489Y-100457216D01*
X153131819Y-100548044D01*
X153075459Y-100663344D01*
X153074575Y-100669407D01*
X153067655Y-100716841D01*
X153064500Y-100738465D01*
X152185499Y-100738465D01*
X152174346Y-100662691D01*
X152166922Y-100647569D01*
X152136613Y-100585839D01*
X152117784Y-100547489D01*
X152026956Y-100456819D01*
X151911656Y-100400459D01*
X151869483Y-100394307D01*
X151839362Y-100389912D01*
X151839356Y-100389912D01*
X151836535Y-100389500D01*
X151551248Y-100389500D01*
X151263466Y-100389501D01*
X151187691Y-100400654D01*
X151182181Y-100403360D01*
X151182179Y-100403360D01*
X151129442Y-100429253D01*
X151072489Y-100457216D01*
X150981819Y-100548044D01*
X150978952Y-100553909D01*
X150978950Y-100553912D01*
X150962334Y-100587906D01*
X150923429Y-100625412D01*
X150869518Y-100629135D01*
X150840965Y-100613583D01*
X150839041Y-100611350D01*
X150798812Y-100585275D01*
X150721054Y-100534874D01*
X150721051Y-100534872D01*
X150716332Y-100531814D01*
X150646283Y-100510865D01*
X150581621Y-100491526D01*
X150581619Y-100491526D01*
X150576233Y-100489915D01*
X150503711Y-100489472D01*
X150435630Y-100489056D01*
X150435628Y-100489056D01*
X150430005Y-100489022D01*
X150289404Y-100529206D01*
X150207350Y-100580978D01*
X150169740Y-100604708D01*
X150148907Y-100609231D01*
X150147725Y-100622740D01*
X150135340Y-100641649D01*
X150068932Y-100716841D01*
X150006786Y-100849209D01*
X149994320Y-100929273D01*
X149986103Y-100982045D01*
X149984288Y-100993699D01*
X149560059Y-100993699D01*
X150020266Y-100533492D01*
X150056449Y-100516619D01*
X150065121Y-100489530D01*
X150071724Y-100482034D01*
X150595119Y-99958639D01*
X150644095Y-99935801D01*
X150650980Y-99935500D01*
X151173526Y-99935500D01*
X151178255Y-99935847D01*
X151182571Y-99937329D01*
X151229799Y-99935556D01*
X151232762Y-99935500D01*
X151251552Y-99935500D01*
X151255129Y-99934834D01*
X151257172Y-99934645D01*
X151261469Y-99934367D01*
X151281563Y-99933613D01*
X151281565Y-99933613D01*
X151288853Y-99933339D01*
X151300442Y-99928360D01*
X151317155Y-99923283D01*
X151322384Y-99922309D01*
X151322388Y-99922308D01*
X151329559Y-99920972D01*
X151352045Y-99907112D01*
X151362310Y-99901780D01*
X151371336Y-99897902D01*
X151386574Y-99891355D01*
X151391215Y-99887543D01*
X151396606Y-99882152D01*
X151411014Y-99870763D01*
X151413886Y-99868993D01*
X151413889Y-99868990D01*
X151420098Y-99865163D01*
X151437500Y-99842278D01*
X151444523Y-99834235D01*
X154164216Y-97114542D01*
X154213192Y-97091704D01*
X154220077Y-97091403D01*
X155264987Y-97091403D01*
X155280240Y-97088369D01*
X155304175Y-97083608D01*
X155304176Y-97083608D01*
X155311805Y-97082090D01*
X155364895Y-97046617D01*
X155400368Y-96993527D01*
X155409681Y-96946709D01*
X155409681Y-95589000D01*
X155428163Y-95538220D01*
X155474963Y-95511200D01*
X155488681Y-95510000D01*
X157311000Y-95510000D01*
X157361780Y-95528482D01*
X157388800Y-95575282D01*
X157390000Y-95589000D01*
X157390000Y-114411000D01*
X157371518Y-114461780D01*
X157324718Y-114488800D01*
X157311000Y-114490000D01*
X126989000Y-114490000D01*
X126938220Y-114471518D01*
X126911200Y-114424718D01*
X126910000Y-114411000D01*
X126910000Y-112743699D01*
X132934288Y-112743699D01*
X132936760Y-112762601D01*
X132949671Y-112861330D01*
X132953249Y-112888695D01*
X133012143Y-113022542D01*
X133015765Y-113026851D01*
X133071462Y-113093110D01*
X133106236Y-113134479D01*
X133227964Y-113215508D01*
X133367541Y-113259116D01*
X133455369Y-113260725D01*
X133508124Y-113261692D01*
X133513747Y-113261795D01*
X133515596Y-113261291D01*
X133566773Y-113273012D01*
X133579723Y-113283481D01*
X134186718Y-113890476D01*
X134189822Y-113894071D01*
X134191826Y-113898171D01*
X134197173Y-113903131D01*
X134226495Y-113930331D01*
X134228630Y-113932388D01*
X134241896Y-113945654D01*
X134244902Y-113947716D01*
X134246459Y-113949010D01*
X134249694Y-113951851D01*
X134269800Y-113970502D01*
X134276576Y-113973205D01*
X134276577Y-113973206D01*
X134281517Y-113975177D01*
X134296926Y-113983405D01*
X134301310Y-113986412D01*
X134307328Y-113990540D01*
X134314424Y-113992224D01*
X134314426Y-113992225D01*
X134333023Y-113996638D01*
X134344054Y-114000127D01*
X134357422Y-114005460D01*
X134368586Y-114009914D01*
X134374563Y-114010500D01*
X134382192Y-114010500D01*
X134400434Y-114012635D01*
X134410812Y-114015098D01*
X134418042Y-114014114D01*
X134418043Y-114014114D01*
X134439291Y-114011222D01*
X134449945Y-114010500D01*
X139923526Y-114010500D01*
X139928255Y-114010847D01*
X139932571Y-114012329D01*
X139979799Y-114010556D01*
X139982762Y-114010500D01*
X140001552Y-114010500D01*
X140005129Y-114009834D01*
X140007172Y-114009645D01*
X140011469Y-114009367D01*
X140031563Y-114008613D01*
X140031565Y-114008613D01*
X140038853Y-114008339D01*
X140050442Y-114003360D01*
X140067155Y-113998283D01*
X140072384Y-113997309D01*
X140072388Y-113997308D01*
X140079559Y-113995972D01*
X140102045Y-113982112D01*
X140112310Y-113976780D01*
X140126922Y-113970502D01*
X140136574Y-113966355D01*
X140141215Y-113962543D01*
X140146606Y-113957152D01*
X140161014Y-113945763D01*
X140163886Y-113943993D01*
X140163889Y-113943990D01*
X140170098Y-113940163D01*
X140187500Y-113917278D01*
X140194523Y-113909235D01*
X141619137Y-112484621D01*
X141668113Y-112461783D01*
X141713538Y-112471520D01*
X141735123Y-112483583D01*
X141738490Y-112485465D01*
X141742152Y-112486655D01*
X141742157Y-112486657D01*
X141861322Y-112525375D01*
X141926960Y-112546702D01*
X141930797Y-112547160D01*
X141930799Y-112547160D01*
X142119892Y-112569708D01*
X142119895Y-112569708D01*
X142123735Y-112570166D01*
X142321320Y-112554963D01*
X142512190Y-112501671D01*
X142636679Y-112438787D01*
X142685619Y-112414066D01*
X142685621Y-112414065D01*
X142689073Y-112412321D01*
X142845232Y-112290316D01*
X142873707Y-112257327D01*
X142972196Y-112143228D01*
X142972200Y-112143223D01*
X142974720Y-112140303D01*
X142976626Y-112136947D01*
X142976630Y-112136942D01*
X143061492Y-111987556D01*
X143072604Y-111967996D01*
X143073824Y-111964329D01*
X143133935Y-111783630D01*
X143133936Y-111783625D01*
X143135156Y-111779958D01*
X143159993Y-111583351D01*
X143160389Y-111555000D01*
X143158999Y-111540823D01*
X143419710Y-111540823D01*
X143436292Y-111738297D01*
X143457240Y-111811350D01*
X143488950Y-111921936D01*
X143490915Y-111928790D01*
X143581498Y-112105045D01*
X143704590Y-112260348D01*
X143855504Y-112388786D01*
X144028490Y-112485465D01*
X144032152Y-112486655D01*
X144032157Y-112486657D01*
X144151322Y-112525375D01*
X144216960Y-112546702D01*
X144220797Y-112547160D01*
X144220799Y-112547160D01*
X144409892Y-112569708D01*
X144409895Y-112569708D01*
X144413735Y-112570166D01*
X144611320Y-112554963D01*
X144802190Y-112501671D01*
X144832156Y-112486534D01*
X144864574Y-112470159D01*
X144918233Y-112463760D01*
X144956054Y-112484812D01*
X146561718Y-114090476D01*
X146564822Y-114094071D01*
X146566826Y-114098171D01*
X146572173Y-114103131D01*
X146601495Y-114130331D01*
X146603630Y-114132388D01*
X146616896Y-114145654D01*
X146619902Y-114147716D01*
X146621459Y-114149010D01*
X146624694Y-114151851D01*
X146644800Y-114170502D01*
X146651576Y-114173205D01*
X146651577Y-114173206D01*
X146656517Y-114175177D01*
X146671926Y-114183405D01*
X146676310Y-114186412D01*
X146682328Y-114190540D01*
X146689424Y-114192224D01*
X146689426Y-114192225D01*
X146708023Y-114196638D01*
X146719054Y-114200127D01*
X146732422Y-114205460D01*
X146743586Y-114209914D01*
X146749563Y-114210500D01*
X146757192Y-114210500D01*
X146775434Y-114212635D01*
X146785812Y-114215098D01*
X146793042Y-114214114D01*
X146793043Y-114214114D01*
X146814291Y-114211222D01*
X146824945Y-114210500D01*
X150548526Y-114210500D01*
X150553255Y-114210847D01*
X150557571Y-114212329D01*
X150604799Y-114210556D01*
X150607762Y-114210500D01*
X150626552Y-114210500D01*
X150630129Y-114209834D01*
X150632172Y-114209645D01*
X150636469Y-114209367D01*
X150656563Y-114208613D01*
X150656565Y-114208613D01*
X150663853Y-114208339D01*
X150675442Y-114203360D01*
X150692155Y-114198283D01*
X150697384Y-114197309D01*
X150697388Y-114197308D01*
X150704559Y-114195972D01*
X150727045Y-114182112D01*
X150737310Y-114176780D01*
X150751922Y-114170502D01*
X150761574Y-114166355D01*
X150766215Y-114162543D01*
X150771606Y-114157152D01*
X150786014Y-114145763D01*
X150788886Y-114143993D01*
X150788889Y-114143990D01*
X150795098Y-114140163D01*
X150812500Y-114117278D01*
X150819523Y-114109235D01*
X151915476Y-113013282D01*
X151919071Y-113010178D01*
X151923171Y-113008174D01*
X151955331Y-112973505D01*
X151957388Y-112971370D01*
X151970654Y-112958104D01*
X151972716Y-112955098D01*
X151974010Y-112953541D01*
X151976852Y-112950305D01*
X151990540Y-112935549D01*
X151995502Y-112930200D01*
X152000174Y-112918490D01*
X152008406Y-112903073D01*
X152011415Y-112898687D01*
X152011417Y-112898683D01*
X152015541Y-112892671D01*
X152021640Y-112866972D01*
X152025129Y-112855941D01*
X152032846Y-112836598D01*
X152032846Y-112836597D01*
X152034914Y-112831414D01*
X152035500Y-112825437D01*
X152035500Y-112817813D01*
X152037635Y-112799572D01*
X152038414Y-112796289D01*
X152038414Y-112796288D01*
X152040099Y-112789188D01*
X152036222Y-112760702D01*
X152035500Y-112750048D01*
X152035500Y-111275827D01*
X153121443Y-111275827D01*
X153122839Y-111281038D01*
X153245269Y-111388405D01*
X153249370Y-111391552D01*
X153493898Y-111554941D01*
X153498370Y-111557523D01*
X153762136Y-111687597D01*
X153766915Y-111689577D01*
X154045388Y-111784106D01*
X154050394Y-111785447D01*
X154338832Y-111842821D01*
X154343949Y-111843495D01*
X154637422Y-111862730D01*
X154642578Y-111862730D01*
X154936051Y-111843495D01*
X154941168Y-111842821D01*
X155229606Y-111785447D01*
X155234612Y-111784106D01*
X155513085Y-111689577D01*
X155517864Y-111687597D01*
X155781630Y-111557523D01*
X155786102Y-111554941D01*
X156030630Y-111391552D01*
X156034731Y-111388405D01*
X156153135Y-111284568D01*
X156158597Y-111274613D01*
X156157544Y-111269320D01*
X154649851Y-109761628D01*
X154639557Y-109756828D01*
X154633263Y-109758514D01*
X153126243Y-111265533D01*
X153121443Y-111275827D01*
X152035500Y-111275827D01*
X152035500Y-109577578D01*
X152352270Y-109577578D01*
X152371505Y-109871051D01*
X152372179Y-109876168D01*
X152429553Y-110164606D01*
X152430894Y-110169612D01*
X152525423Y-110448085D01*
X152527403Y-110452864D01*
X152657477Y-110716629D01*
X152660059Y-110721102D01*
X152823448Y-110965630D01*
X152826595Y-110969731D01*
X152930432Y-111088135D01*
X152940387Y-111093597D01*
X152945680Y-111092544D01*
X154453372Y-109584851D01*
X154457759Y-109575443D01*
X154821828Y-109575443D01*
X154823514Y-109581737D01*
X156330533Y-111088757D01*
X156340827Y-111093557D01*
X156346038Y-111092161D01*
X156453405Y-110969731D01*
X156456552Y-110965630D01*
X156619941Y-110721102D01*
X156622523Y-110716629D01*
X156752597Y-110452864D01*
X156754577Y-110448085D01*
X156849106Y-110169612D01*
X156850447Y-110164606D01*
X156907821Y-109876168D01*
X156908495Y-109871051D01*
X156927730Y-109577578D01*
X156927730Y-109572422D01*
X156908495Y-109278949D01*
X156907821Y-109273832D01*
X156850447Y-108985394D01*
X156849106Y-108980388D01*
X156754577Y-108701915D01*
X156752597Y-108697136D01*
X156622523Y-108433371D01*
X156619941Y-108428898D01*
X156456552Y-108184370D01*
X156453405Y-108180269D01*
X156349568Y-108061865D01*
X156339613Y-108056403D01*
X156334320Y-108057456D01*
X154826628Y-109565149D01*
X154821828Y-109575443D01*
X154457759Y-109575443D01*
X154458172Y-109574557D01*
X154456486Y-109568263D01*
X152949467Y-108061243D01*
X152939173Y-108056443D01*
X152933962Y-108057839D01*
X152826595Y-108180269D01*
X152823448Y-108184370D01*
X152660059Y-108428898D01*
X152657477Y-108433371D01*
X152527403Y-108697136D01*
X152525423Y-108701915D01*
X152430894Y-108980388D01*
X152429553Y-108985394D01*
X152372179Y-109273832D01*
X152371505Y-109278949D01*
X152352270Y-109572422D01*
X152352270Y-109577578D01*
X152035500Y-109577578D01*
X152035500Y-107875387D01*
X153121403Y-107875387D01*
X153122456Y-107880680D01*
X154630149Y-109388372D01*
X154640443Y-109393172D01*
X154646737Y-109391486D01*
X156153757Y-107884467D01*
X156158557Y-107874173D01*
X156157161Y-107868962D01*
X156034731Y-107761595D01*
X156030630Y-107758448D01*
X155786102Y-107595059D01*
X155781630Y-107592477D01*
X155517864Y-107462403D01*
X155513085Y-107460423D01*
X155234612Y-107365894D01*
X155229606Y-107364553D01*
X154941168Y-107307179D01*
X154936051Y-107306505D01*
X154642578Y-107287270D01*
X154637422Y-107287270D01*
X154343949Y-107306505D01*
X154338832Y-107307179D01*
X154050394Y-107364553D01*
X154045388Y-107365894D01*
X153766915Y-107460423D01*
X153762136Y-107462403D01*
X153498371Y-107592477D01*
X153493898Y-107595059D01*
X153249370Y-107758448D01*
X153245269Y-107761595D01*
X153126865Y-107865432D01*
X153121403Y-107875387D01*
X152035500Y-107875387D01*
X152035500Y-104650980D01*
X152053982Y-104600200D01*
X152058639Y-104595119D01*
X153470119Y-103183639D01*
X153519095Y-103160801D01*
X153525980Y-103160500D01*
X153946580Y-103160499D01*
X153986534Y-103160499D01*
X154062309Y-103149346D01*
X154067819Y-103146640D01*
X154067821Y-103146640D01*
X154158518Y-103102109D01*
X154177511Y-103092784D01*
X154268181Y-103001956D01*
X154324541Y-102886656D01*
X154330755Y-102844062D01*
X154335088Y-102814362D01*
X154335088Y-102814356D01*
X154335500Y-102811535D01*
X154335499Y-102288466D01*
X154324346Y-102212691D01*
X154319997Y-102203832D01*
X154286613Y-102135839D01*
X154267784Y-102097489D01*
X154176956Y-102006819D01*
X154061656Y-101950459D01*
X154019483Y-101944307D01*
X153989362Y-101939912D01*
X153989356Y-101939912D01*
X153986535Y-101939500D01*
X153701248Y-101939500D01*
X153413466Y-101939501D01*
X153337691Y-101950654D01*
X153332181Y-101953360D01*
X153332179Y-101953360D01*
X153260839Y-101988387D01*
X153222489Y-102007216D01*
X153131819Y-102098044D01*
X153075459Y-102213344D01*
X153064500Y-102288465D01*
X153064501Y-102535064D01*
X153064501Y-102749019D01*
X153046019Y-102799799D01*
X153041362Y-102804880D01*
X151584524Y-104261718D01*
X151580929Y-104264822D01*
X151576829Y-104266826D01*
X151571869Y-104272173D01*
X151544669Y-104301495D01*
X151542612Y-104303630D01*
X151529346Y-104316896D01*
X151527284Y-104319902D01*
X151525990Y-104321459D01*
X151523149Y-104324694D01*
X151504498Y-104344800D01*
X151501795Y-104351576D01*
X151499825Y-104356513D01*
X151491596Y-104371925D01*
X151484459Y-104382328D01*
X151482775Y-104389426D01*
X151478361Y-104408027D01*
X151474872Y-104419058D01*
X151465086Y-104443586D01*
X151464500Y-104449563D01*
X151464500Y-104457193D01*
X151462365Y-104475432D01*
X151459902Y-104485812D01*
X151460886Y-104493042D01*
X151460886Y-104493043D01*
X151463778Y-104514291D01*
X151464500Y-104524945D01*
X151464500Y-112624020D01*
X151446018Y-112674800D01*
X151441361Y-112679881D01*
X150504881Y-113616361D01*
X150455905Y-113639199D01*
X150449020Y-113639500D01*
X146950980Y-113639500D01*
X146900200Y-113621018D01*
X146895119Y-113616361D01*
X145363189Y-112084431D01*
X145340351Y-112035455D01*
X145350361Y-111989547D01*
X145360695Y-111971357D01*
X145360696Y-111971354D01*
X145362604Y-111967996D01*
X145363824Y-111964329D01*
X145423935Y-111783630D01*
X145423936Y-111783625D01*
X145425156Y-111779958D01*
X145449993Y-111583351D01*
X145450389Y-111555000D01*
X145448999Y-111540823D01*
X145709710Y-111540823D01*
X145726292Y-111738297D01*
X145747240Y-111811350D01*
X145778950Y-111921936D01*
X145780915Y-111928790D01*
X145871498Y-112105045D01*
X145994590Y-112260348D01*
X146145504Y-112388786D01*
X146318490Y-112485465D01*
X146322152Y-112486655D01*
X146322157Y-112486657D01*
X146441322Y-112525375D01*
X146506960Y-112546702D01*
X146510797Y-112547160D01*
X146510799Y-112547160D01*
X146699892Y-112569708D01*
X146699895Y-112569708D01*
X146703735Y-112570166D01*
X146901320Y-112554963D01*
X147092190Y-112501671D01*
X147216679Y-112438787D01*
X147265619Y-112414066D01*
X147265621Y-112414065D01*
X147269073Y-112412321D01*
X147425232Y-112290316D01*
X147453707Y-112257327D01*
X147508630Y-112193699D01*
X149709288Y-112193699D01*
X149710018Y-112199280D01*
X149721923Y-112290316D01*
X149728249Y-112338695D01*
X149787143Y-112472542D01*
X149790765Y-112476851D01*
X149812500Y-112502708D01*
X149881236Y-112584479D01*
X150002964Y-112665508D01*
X150142541Y-112709116D01*
X150192056Y-112710023D01*
X150283120Y-112711692D01*
X150283121Y-112711692D01*
X150288747Y-112711795D01*
X150429829Y-112673332D01*
X150554445Y-112596818D01*
X150558218Y-112592650D01*
X150558220Y-112592648D01*
X150648799Y-112492577D01*
X150648800Y-112492576D01*
X150652576Y-112488404D01*
X150716335Y-112356805D01*
X150720321Y-112333116D01*
X150740090Y-112215610D01*
X150740090Y-112215607D01*
X150740596Y-112212601D01*
X150740750Y-112200000D01*
X150724200Y-112084431D01*
X150720818Y-112060816D01*
X150720817Y-112060814D01*
X150720020Y-112055246D01*
X150713620Y-112041169D01*
X150661827Y-111927257D01*
X150661826Y-111927255D01*
X150659495Y-111922129D01*
X150655820Y-111917864D01*
X150655818Y-111917861D01*
X150567716Y-111815615D01*
X150564041Y-111811350D01*
X150553064Y-111804235D01*
X150546530Y-111799999D01*
X150513972Y-111756870D01*
X150510500Y-111733708D01*
X150510500Y-104025980D01*
X150528982Y-103975200D01*
X150533639Y-103970119D01*
X151320119Y-103183639D01*
X151369095Y-103160801D01*
X151375980Y-103160500D01*
X151796580Y-103160499D01*
X151836534Y-103160499D01*
X151912309Y-103149346D01*
X151917819Y-103146640D01*
X151917821Y-103146640D01*
X152008518Y-103102109D01*
X152027511Y-103092784D01*
X152118181Y-103001956D01*
X152174541Y-102886656D01*
X152180755Y-102844062D01*
X152185088Y-102814362D01*
X152185088Y-102814356D01*
X152185500Y-102811535D01*
X152185499Y-102288466D01*
X152174346Y-102212691D01*
X152169997Y-102203832D01*
X152136613Y-102135839D01*
X152117784Y-102097489D01*
X152026956Y-102006819D01*
X151911656Y-101950459D01*
X151869483Y-101944307D01*
X151839362Y-101939912D01*
X151839356Y-101939912D01*
X151836535Y-101939500D01*
X151551248Y-101939500D01*
X151263466Y-101939501D01*
X151187691Y-101950654D01*
X151182181Y-101953360D01*
X151182179Y-101953360D01*
X151110839Y-101988387D01*
X151072489Y-102007216D01*
X150981819Y-102098044D01*
X150925459Y-102213344D01*
X150914500Y-102288465D01*
X150914501Y-102535064D01*
X150914501Y-102749019D01*
X150896019Y-102799799D01*
X150891362Y-102804880D01*
X150059524Y-103636718D01*
X150055929Y-103639822D01*
X150051829Y-103641826D01*
X150046869Y-103647173D01*
X150019669Y-103676495D01*
X150017612Y-103678630D01*
X150004346Y-103691896D01*
X150002284Y-103694902D01*
X150000990Y-103696459D01*
X149998149Y-103699694D01*
X149979498Y-103719800D01*
X149976795Y-103726576D01*
X149974825Y-103731513D01*
X149966596Y-103746925D01*
X149959459Y-103757328D01*
X149957775Y-103764426D01*
X149953361Y-103783027D01*
X149949872Y-103794058D01*
X149940086Y-103818586D01*
X149939500Y-103824563D01*
X149939500Y-103832193D01*
X149937365Y-103850432D01*
X149934902Y-103860812D01*
X149935886Y-103868042D01*
X149935886Y-103868043D01*
X149938778Y-103889291D01*
X149939500Y-103899945D01*
X149939500Y-111732901D01*
X149921018Y-111783681D01*
X149902656Y-111799713D01*
X149895980Y-111803926D01*
X149890732Y-111807237D01*
X149887011Y-111811450D01*
X149887010Y-111811451D01*
X149841722Y-111862730D01*
X149793932Y-111916841D01*
X149731786Y-112049209D01*
X149709288Y-112193699D01*
X147508630Y-112193699D01*
X147552196Y-112143228D01*
X147552200Y-112143223D01*
X147554720Y-112140303D01*
X147556626Y-112136947D01*
X147556630Y-112136942D01*
X147641492Y-111987556D01*
X147652604Y-111967996D01*
X147653824Y-111964329D01*
X147713935Y-111783630D01*
X147713936Y-111783625D01*
X147715156Y-111779958D01*
X147739993Y-111583351D01*
X147740389Y-111555000D01*
X147721051Y-111357777D01*
X147714461Y-111335948D01*
X147677219Y-111212598D01*
X147663774Y-111168065D01*
X147661963Y-111164660D01*
X147661961Y-111164654D01*
X147572551Y-110996500D01*
X147570739Y-110993092D01*
X147563919Y-110984729D01*
X147447930Y-110842514D01*
X147445490Y-110839522D01*
X147439478Y-110834548D01*
X147295773Y-110715665D01*
X147295772Y-110715664D01*
X147292798Y-110713204D01*
X147274979Y-110703569D01*
X147231843Y-110680246D01*
X147118479Y-110618950D01*
X146929172Y-110560350D01*
X146732089Y-110539636D01*
X146728243Y-110539986D01*
X146728242Y-110539986D01*
X146707859Y-110541841D01*
X146534735Y-110557596D01*
X146531028Y-110558687D01*
X146348338Y-110612456D01*
X146348335Y-110612457D01*
X146344629Y-110613548D01*
X146169010Y-110705359D01*
X146166003Y-110707777D01*
X146166001Y-110707778D01*
X146089207Y-110769522D01*
X146014570Y-110829532D01*
X145953450Y-110902372D01*
X145897674Y-110968844D01*
X145887189Y-110981339D01*
X145885327Y-110984727D01*
X145885325Y-110984729D01*
X145878854Y-110996500D01*
X145791720Y-111154996D01*
X145731800Y-111343889D01*
X145709710Y-111540823D01*
X145448999Y-111540823D01*
X145431051Y-111357777D01*
X145424461Y-111335948D01*
X145387219Y-111212598D01*
X145373774Y-111168065D01*
X145371963Y-111164660D01*
X145371961Y-111164654D01*
X145282551Y-110996500D01*
X145280739Y-110993092D01*
X145273919Y-110984729D01*
X145157930Y-110842514D01*
X145155490Y-110839522D01*
X145149478Y-110834548D01*
X145005773Y-110715665D01*
X145005772Y-110715664D01*
X145002798Y-110713204D01*
X144984979Y-110703569D01*
X144941843Y-110680246D01*
X144828479Y-110618950D01*
X144639172Y-110560350D01*
X144442089Y-110539636D01*
X144438243Y-110539986D01*
X144438242Y-110539986D01*
X144417859Y-110541841D01*
X144244735Y-110557596D01*
X144241028Y-110558687D01*
X144058338Y-110612456D01*
X144058335Y-110612457D01*
X144054629Y-110613548D01*
X143879010Y-110705359D01*
X143876003Y-110707777D01*
X143876001Y-110707778D01*
X143799207Y-110769522D01*
X143724570Y-110829532D01*
X143663450Y-110902372D01*
X143607674Y-110968844D01*
X143597189Y-110981339D01*
X143595327Y-110984727D01*
X143595325Y-110984729D01*
X143588854Y-110996500D01*
X143501720Y-111154996D01*
X143441800Y-111343889D01*
X143419710Y-111540823D01*
X143158999Y-111540823D01*
X143141051Y-111357777D01*
X143134461Y-111335948D01*
X143097219Y-111212598D01*
X143083774Y-111168065D01*
X143081963Y-111164660D01*
X143081961Y-111164654D01*
X142992551Y-110996500D01*
X142990739Y-110993092D01*
X142983919Y-110984729D01*
X142867930Y-110842514D01*
X142865490Y-110839522D01*
X142859478Y-110834548D01*
X142715773Y-110715665D01*
X142715772Y-110715664D01*
X142712798Y-110713204D01*
X142694979Y-110703569D01*
X142651843Y-110680246D01*
X142538479Y-110618950D01*
X142349172Y-110560350D01*
X142152089Y-110539636D01*
X142148243Y-110539986D01*
X142148242Y-110539986D01*
X142127859Y-110541841D01*
X141954735Y-110557596D01*
X141951028Y-110558687D01*
X141768338Y-110612456D01*
X141768335Y-110612457D01*
X141764629Y-110613548D01*
X141589010Y-110705359D01*
X141586003Y-110707777D01*
X141586001Y-110707778D01*
X141509207Y-110769522D01*
X141434570Y-110829532D01*
X141373450Y-110902372D01*
X141317674Y-110968844D01*
X141307189Y-110981339D01*
X141305327Y-110984727D01*
X141305325Y-110984729D01*
X141298854Y-110996500D01*
X141211720Y-111154996D01*
X141151800Y-111343889D01*
X141129710Y-111540823D01*
X141146292Y-111738297D01*
X141167240Y-111811350D01*
X141198950Y-111921936D01*
X141200915Y-111928790D01*
X141202679Y-111932222D01*
X141231117Y-111987556D01*
X141237890Y-112041169D01*
X141216714Y-112079528D01*
X139879881Y-113416361D01*
X139830905Y-113439199D01*
X139824020Y-113439500D01*
X134575980Y-113439500D01*
X134525200Y-113421018D01*
X134520119Y-113416361D01*
X133980106Y-112876348D01*
X133957268Y-112827372D01*
X133958062Y-112807384D01*
X133965596Y-112762601D01*
X133965750Y-112750000D01*
X133954981Y-112674800D01*
X133945818Y-112610816D01*
X133945817Y-112610814D01*
X133945020Y-112605246D01*
X133933122Y-112579078D01*
X133886827Y-112477257D01*
X133886826Y-112477255D01*
X133884495Y-112472129D01*
X133880820Y-112467864D01*
X133880818Y-112467861D01*
X133792716Y-112365615D01*
X133789041Y-112361350D01*
X133745481Y-112333116D01*
X133671054Y-112284874D01*
X133671051Y-112284872D01*
X133666332Y-112281814D01*
X133584454Y-112257327D01*
X133531621Y-112241526D01*
X133531619Y-112241526D01*
X133526233Y-112239915D01*
X133453711Y-112239472D01*
X133385630Y-112239056D01*
X133385628Y-112239056D01*
X133380005Y-112239022D01*
X133239404Y-112279206D01*
X133165313Y-112325954D01*
X133136959Y-112343844D01*
X133115732Y-112357237D01*
X133112011Y-112361450D01*
X133112010Y-112361451D01*
X133026566Y-112458197D01*
X133018932Y-112466841D01*
X133016540Y-112471936D01*
X132970422Y-112570166D01*
X132956786Y-112599209D01*
X132934288Y-112743699D01*
X126910000Y-112743699D01*
X126910000Y-111275827D01*
X128131443Y-111275827D01*
X128132839Y-111281038D01*
X128255269Y-111388405D01*
X128259370Y-111391552D01*
X128503898Y-111554941D01*
X128508370Y-111557523D01*
X128772136Y-111687597D01*
X128776915Y-111689577D01*
X129055388Y-111784106D01*
X129060394Y-111785447D01*
X129348832Y-111842821D01*
X129353949Y-111843495D01*
X129647422Y-111862730D01*
X129652578Y-111862730D01*
X129946051Y-111843495D01*
X129951168Y-111842821D01*
X130239606Y-111785447D01*
X130244612Y-111784106D01*
X130523085Y-111689577D01*
X130527864Y-111687597D01*
X130791630Y-111557523D01*
X130796102Y-111554941D01*
X131040630Y-111391552D01*
X131044731Y-111388405D01*
X131163135Y-111284568D01*
X131168597Y-111274613D01*
X131167544Y-111269320D01*
X129659851Y-109761628D01*
X129649557Y-109756828D01*
X129643263Y-109758514D01*
X128136243Y-111265533D01*
X128131443Y-111275827D01*
X126910000Y-111275827D01*
X126910000Y-109577578D01*
X127362270Y-109577578D01*
X127381505Y-109871051D01*
X127382179Y-109876168D01*
X127439553Y-110164606D01*
X127440894Y-110169612D01*
X127535423Y-110448085D01*
X127537403Y-110452864D01*
X127667477Y-110716629D01*
X127670059Y-110721102D01*
X127833448Y-110965630D01*
X127836595Y-110969731D01*
X127940432Y-111088135D01*
X127950387Y-111093597D01*
X127955680Y-111092544D01*
X129463372Y-109584851D01*
X129467759Y-109575443D01*
X129831828Y-109575443D01*
X129833514Y-109581737D01*
X131340533Y-111088757D01*
X131350827Y-111093557D01*
X131356038Y-111092161D01*
X131463405Y-110969731D01*
X131466552Y-110965630D01*
X131564729Y-110818699D01*
X132934288Y-110818699D01*
X132936760Y-110837601D01*
X132942616Y-110882380D01*
X132953249Y-110963695D01*
X133012143Y-111097542D01*
X133106236Y-111209479D01*
X133227964Y-111290508D01*
X133367541Y-111334116D01*
X133455369Y-111335725D01*
X133508124Y-111336692D01*
X133513747Y-111336795D01*
X133515596Y-111336291D01*
X133566773Y-111348012D01*
X133579723Y-111358481D01*
X135311718Y-113090476D01*
X135314822Y-113094071D01*
X135316826Y-113098171D01*
X135322173Y-113103131D01*
X135351495Y-113130331D01*
X135353630Y-113132388D01*
X135366896Y-113145654D01*
X135369902Y-113147716D01*
X135371459Y-113149010D01*
X135374694Y-113151851D01*
X135394800Y-113170502D01*
X135401576Y-113173205D01*
X135401577Y-113173206D01*
X135406517Y-113175177D01*
X135421926Y-113183405D01*
X135426310Y-113186412D01*
X135432328Y-113190540D01*
X135439424Y-113192224D01*
X135439426Y-113192225D01*
X135458023Y-113196638D01*
X135469054Y-113200127D01*
X135482422Y-113205460D01*
X135493586Y-113209914D01*
X135499563Y-113210500D01*
X135507192Y-113210500D01*
X135525434Y-113212635D01*
X135535812Y-113215098D01*
X135543042Y-113214114D01*
X135543043Y-113214114D01*
X135564291Y-113211222D01*
X135574945Y-113210500D01*
X138423526Y-113210500D01*
X138428255Y-113210847D01*
X138432571Y-113212329D01*
X138479799Y-113210556D01*
X138482762Y-113210500D01*
X138501552Y-113210500D01*
X138505129Y-113209834D01*
X138507172Y-113209645D01*
X138511469Y-113209367D01*
X138531563Y-113208613D01*
X138531565Y-113208613D01*
X138538853Y-113208339D01*
X138550442Y-113203360D01*
X138567155Y-113198283D01*
X138572384Y-113197309D01*
X138572388Y-113197308D01*
X138579559Y-113195972D01*
X138602045Y-113182112D01*
X138612310Y-113176780D01*
X138626922Y-113170502D01*
X138636574Y-113166355D01*
X138641215Y-113162543D01*
X138646606Y-113157152D01*
X138661014Y-113145763D01*
X138663886Y-113143993D01*
X138663889Y-113143990D01*
X138670098Y-113140163D01*
X138687500Y-113117278D01*
X138694523Y-113109235D01*
X139322723Y-112481035D01*
X139371699Y-112458197D01*
X139417126Y-112467936D01*
X139445120Y-112483582D01*
X139445124Y-112483584D01*
X139448490Y-112485465D01*
X139452152Y-112486655D01*
X139452157Y-112486657D01*
X139571322Y-112525375D01*
X139636960Y-112546702D01*
X139640797Y-112547160D01*
X139640799Y-112547160D01*
X139829892Y-112569708D01*
X139829895Y-112569708D01*
X139833735Y-112570166D01*
X140031320Y-112554963D01*
X140222190Y-112501671D01*
X140346679Y-112438787D01*
X140395619Y-112414066D01*
X140395621Y-112414065D01*
X140399073Y-112412321D01*
X140555232Y-112290316D01*
X140583707Y-112257327D01*
X140682196Y-112143228D01*
X140682200Y-112143223D01*
X140684720Y-112140303D01*
X140686626Y-112136947D01*
X140686630Y-112136942D01*
X140771492Y-111987556D01*
X140782604Y-111967996D01*
X140783824Y-111964329D01*
X140843935Y-111783630D01*
X140843936Y-111783625D01*
X140845156Y-111779958D01*
X140869993Y-111583351D01*
X140870389Y-111555000D01*
X140851051Y-111357777D01*
X140844461Y-111335948D01*
X140807219Y-111212598D01*
X140793774Y-111168065D01*
X140791963Y-111164660D01*
X140791961Y-111164654D01*
X140702551Y-110996500D01*
X140700739Y-110993092D01*
X140693919Y-110984729D01*
X140577930Y-110842514D01*
X140575490Y-110839522D01*
X140569478Y-110834548D01*
X140425773Y-110715665D01*
X140425772Y-110715664D01*
X140422798Y-110713204D01*
X140404979Y-110703569D01*
X140361843Y-110680246D01*
X140248479Y-110618950D01*
X140059172Y-110560350D01*
X139862089Y-110539636D01*
X139858243Y-110539986D01*
X139858242Y-110539986D01*
X139837859Y-110541841D01*
X139664735Y-110557596D01*
X139661028Y-110558687D01*
X139478338Y-110612456D01*
X139478335Y-110612457D01*
X139474629Y-110613548D01*
X139299010Y-110705359D01*
X139296003Y-110707777D01*
X139296001Y-110707778D01*
X139219207Y-110769522D01*
X139144570Y-110829532D01*
X139083450Y-110902372D01*
X139027674Y-110968844D01*
X139017189Y-110981339D01*
X139015327Y-110984727D01*
X139015325Y-110984729D01*
X139008854Y-110996500D01*
X138921720Y-111154996D01*
X138861800Y-111343889D01*
X138839710Y-111540823D01*
X138856292Y-111738297D01*
X138877240Y-111811350D01*
X138908950Y-111921936D01*
X138910915Y-111928790D01*
X138931064Y-111967996D01*
X138937722Y-111980951D01*
X138944495Y-112034564D01*
X138923319Y-112072923D01*
X138379881Y-112616361D01*
X138330905Y-112639199D01*
X138324020Y-112639500D01*
X137990941Y-112639500D01*
X137940161Y-112621018D01*
X137913141Y-112574218D01*
X137922525Y-112521000D01*
X137955322Y-112489986D01*
X137959040Y-112488108D01*
X138109073Y-112412321D01*
X138265232Y-112290316D01*
X138293707Y-112257327D01*
X138392196Y-112143228D01*
X138392200Y-112143223D01*
X138394720Y-112140303D01*
X138396626Y-112136947D01*
X138396630Y-112136942D01*
X138481492Y-111987556D01*
X138492604Y-111967996D01*
X138493824Y-111964329D01*
X138553935Y-111783630D01*
X138553936Y-111783625D01*
X138555156Y-111779958D01*
X138579993Y-111583351D01*
X138580389Y-111555000D01*
X138561051Y-111357777D01*
X138554461Y-111335948D01*
X138517219Y-111212598D01*
X138503774Y-111168065D01*
X138501963Y-111164660D01*
X138501961Y-111164654D01*
X138412551Y-110996500D01*
X138410739Y-110993092D01*
X138403919Y-110984729D01*
X138287930Y-110842514D01*
X138285490Y-110839522D01*
X138279478Y-110834548D01*
X138135773Y-110715665D01*
X138135772Y-110715664D01*
X138132798Y-110713204D01*
X138114979Y-110703569D01*
X138071843Y-110680246D01*
X137958479Y-110618950D01*
X137769172Y-110560350D01*
X137572089Y-110539636D01*
X137568243Y-110539986D01*
X137568242Y-110539986D01*
X137547859Y-110541841D01*
X137374735Y-110557596D01*
X137371028Y-110558687D01*
X137188338Y-110612456D01*
X137188335Y-110612457D01*
X137184629Y-110613548D01*
X137009010Y-110705359D01*
X137006003Y-110707777D01*
X137006001Y-110707778D01*
X136929207Y-110769522D01*
X136854570Y-110829532D01*
X136793450Y-110902372D01*
X136737674Y-110968844D01*
X136727189Y-110981339D01*
X136725327Y-110984727D01*
X136725325Y-110984729D01*
X136718854Y-110996500D01*
X136631720Y-111154996D01*
X136571800Y-111343889D01*
X136549710Y-111540823D01*
X136566292Y-111738297D01*
X136587240Y-111811350D01*
X136618950Y-111921936D01*
X136620915Y-111928790D01*
X136711498Y-112105045D01*
X136834590Y-112260348D01*
X136985504Y-112388786D01*
X136988878Y-112390672D01*
X136988880Y-112390673D01*
X137155120Y-112483582D01*
X137155124Y-112483584D01*
X137158490Y-112485465D01*
X137162159Y-112486657D01*
X137165480Y-112488108D01*
X137204613Y-112525375D01*
X137210636Y-112579078D01*
X137180730Y-112624088D01*
X137133851Y-112639500D01*
X135700980Y-112639500D01*
X135650200Y-112621018D01*
X135645119Y-112616361D01*
X133980106Y-110951348D01*
X133957268Y-110902372D01*
X133958062Y-110882384D01*
X133963055Y-110852705D01*
X133965090Y-110840610D01*
X133965090Y-110840607D01*
X133965596Y-110837601D01*
X133965750Y-110825000D01*
X133950871Y-110721102D01*
X133945818Y-110685816D01*
X133945817Y-110685814D01*
X133945020Y-110680246D01*
X133940545Y-110670404D01*
X133886827Y-110552257D01*
X133886826Y-110552255D01*
X133884495Y-110547129D01*
X133880820Y-110542864D01*
X133880818Y-110542861D01*
X133792716Y-110440615D01*
X133791636Y-110439362D01*
X138027909Y-110439362D01*
X138028854Y-110442891D01*
X138028965Y-110443000D01*
X138179863Y-110543827D01*
X138186204Y-110547270D01*
X138365297Y-110624214D01*
X138372161Y-110626444D01*
X138562274Y-110669463D01*
X138569425Y-110670404D01*
X138764191Y-110678057D01*
X138771408Y-110677678D01*
X138964304Y-110649710D01*
X138971321Y-110648025D01*
X139155896Y-110585371D01*
X139162488Y-110582436D01*
X139332552Y-110487195D01*
X139338503Y-110483105D01*
X139383929Y-110445325D01*
X139389651Y-110435514D01*
X139388803Y-110430580D01*
X138719851Y-109761628D01*
X138709557Y-109756828D01*
X138703263Y-109758514D01*
X138032709Y-110429068D01*
X138027909Y-110439362D01*
X133791636Y-110439362D01*
X133789041Y-110436350D01*
X133742647Y-110406279D01*
X133671054Y-110359874D01*
X133671051Y-110359872D01*
X133666332Y-110356814D01*
X133596282Y-110335864D01*
X133531621Y-110316526D01*
X133531619Y-110316526D01*
X133526233Y-110314915D01*
X133453711Y-110314472D01*
X133385630Y-110314056D01*
X133385628Y-110314056D01*
X133380005Y-110314022D01*
X133239404Y-110354206D01*
X133234645Y-110357209D01*
X133120755Y-110429068D01*
X133115732Y-110432237D01*
X133112011Y-110436450D01*
X133112010Y-110436451D01*
X133050006Y-110506657D01*
X133018932Y-110541841D01*
X132956786Y-110674209D01*
X132934288Y-110818699D01*
X131564729Y-110818699D01*
X131629941Y-110721102D01*
X131632523Y-110716629D01*
X131762597Y-110452864D01*
X131764577Y-110448085D01*
X131859106Y-110169612D01*
X131860447Y-110164606D01*
X131917821Y-109876168D01*
X131918495Y-109871051D01*
X131937730Y-109577578D01*
X131937730Y-109572422D01*
X131936241Y-109549698D01*
X137605903Y-109549698D01*
X137618651Y-109744201D01*
X137619780Y-109751328D01*
X137667759Y-109940243D01*
X137670172Y-109947057D01*
X137751773Y-110124066D01*
X137755380Y-110130313D01*
X137839487Y-110249322D01*
X137848816Y-110255794D01*
X137852795Y-110255428D01*
X138523372Y-109584851D01*
X138527759Y-109575443D01*
X138891828Y-109575443D01*
X138893514Y-109581737D01*
X139561566Y-110249789D01*
X139571860Y-110254589D01*
X139576695Y-110253294D01*
X139618105Y-110203503D01*
X139622195Y-110197552D01*
X139717436Y-110027488D01*
X139720371Y-110020896D01*
X139783025Y-109836321D01*
X139784710Y-109829304D01*
X139812864Y-109635127D01*
X139813260Y-109630486D01*
X139814652Y-109577327D01*
X139814500Y-109572685D01*
X139813410Y-109560823D01*
X139984710Y-109560823D01*
X140001292Y-109758297D01*
X140055915Y-109948790D01*
X140146498Y-110125045D01*
X140269590Y-110280348D01*
X140420504Y-110408786D01*
X140423878Y-110410672D01*
X140423880Y-110410673D01*
X140462464Y-110432237D01*
X140593490Y-110505465D01*
X140597152Y-110506655D01*
X140597157Y-110506657D01*
X140699736Y-110539986D01*
X140781960Y-110566702D01*
X140785797Y-110567160D01*
X140785799Y-110567160D01*
X140974892Y-110589708D01*
X140974895Y-110589708D01*
X140978735Y-110590166D01*
X141176320Y-110574963D01*
X141367190Y-110521671D01*
X141512866Y-110448085D01*
X141530135Y-110439362D01*
X142607909Y-110439362D01*
X142608854Y-110442891D01*
X142608965Y-110443000D01*
X142759863Y-110543827D01*
X142766204Y-110547270D01*
X142945297Y-110624214D01*
X142952161Y-110626444D01*
X143142274Y-110669463D01*
X143149425Y-110670404D01*
X143344191Y-110678057D01*
X143351408Y-110677678D01*
X143544304Y-110649710D01*
X143551321Y-110648025D01*
X143735896Y-110585371D01*
X143742488Y-110582436D01*
X143912552Y-110487195D01*
X143918503Y-110483105D01*
X143963929Y-110445325D01*
X143967407Y-110439362D01*
X144897909Y-110439362D01*
X144898854Y-110442891D01*
X144898965Y-110443000D01*
X145049863Y-110543827D01*
X145056204Y-110547270D01*
X145235297Y-110624214D01*
X145242161Y-110626444D01*
X145432274Y-110669463D01*
X145439425Y-110670404D01*
X145634191Y-110678057D01*
X145641408Y-110677678D01*
X145834304Y-110649710D01*
X145841321Y-110648025D01*
X146025896Y-110585371D01*
X146032488Y-110582436D01*
X146202552Y-110487195D01*
X146208503Y-110483105D01*
X146253929Y-110445325D01*
X146257407Y-110439362D01*
X147187909Y-110439362D01*
X147188854Y-110442891D01*
X147188965Y-110443000D01*
X147339863Y-110543827D01*
X147346204Y-110547270D01*
X147525297Y-110624214D01*
X147532161Y-110626444D01*
X147722274Y-110669463D01*
X147729425Y-110670404D01*
X147924191Y-110678057D01*
X147931408Y-110677678D01*
X148124304Y-110649710D01*
X148131321Y-110648025D01*
X148315896Y-110585371D01*
X148322488Y-110582436D01*
X148492552Y-110487195D01*
X148498503Y-110483105D01*
X148543929Y-110445325D01*
X148549651Y-110435514D01*
X148548803Y-110430580D01*
X147879851Y-109761628D01*
X147869557Y-109756828D01*
X147863263Y-109758514D01*
X147192709Y-110429068D01*
X147187909Y-110439362D01*
X146257407Y-110439362D01*
X146259651Y-110435514D01*
X146258803Y-110430580D01*
X145589851Y-109761628D01*
X145579557Y-109756828D01*
X145573263Y-109758514D01*
X144902709Y-110429068D01*
X144897909Y-110439362D01*
X143967407Y-110439362D01*
X143969651Y-110435514D01*
X143968803Y-110430580D01*
X143299851Y-109761628D01*
X143289557Y-109756828D01*
X143283263Y-109758514D01*
X142612709Y-110429068D01*
X142607909Y-110439362D01*
X141530135Y-110439362D01*
X141540619Y-110434066D01*
X141540621Y-110434065D01*
X141544073Y-110432321D01*
X141642779Y-110355203D01*
X141697190Y-110312693D01*
X141697192Y-110312691D01*
X141700232Y-110310316D01*
X141747610Y-110255428D01*
X141827196Y-110163228D01*
X141827200Y-110163223D01*
X141829720Y-110160303D01*
X141831626Y-110156947D01*
X141831630Y-110156942D01*
X141925695Y-109991356D01*
X141927604Y-109987996D01*
X141928824Y-109984329D01*
X141988935Y-109803630D01*
X141988936Y-109803625D01*
X141990156Y-109799958D01*
X142014993Y-109603351D01*
X142015389Y-109575000D01*
X142012908Y-109549698D01*
X142185903Y-109549698D01*
X142198651Y-109744201D01*
X142199780Y-109751328D01*
X142247759Y-109940243D01*
X142250172Y-109947057D01*
X142331773Y-110124066D01*
X142335380Y-110130313D01*
X142419487Y-110249322D01*
X142428816Y-110255794D01*
X142432795Y-110255428D01*
X143103372Y-109584851D01*
X143107759Y-109575443D01*
X143471828Y-109575443D01*
X143473514Y-109581737D01*
X144141566Y-110249789D01*
X144151860Y-110254589D01*
X144156695Y-110253294D01*
X144198105Y-110203503D01*
X144202195Y-110197552D01*
X144297436Y-110027488D01*
X144300371Y-110020896D01*
X144362153Y-109838891D01*
X144395977Y-109796747D01*
X144448978Y-109786204D01*
X144496355Y-109812197D01*
X144513529Y-109844839D01*
X144537759Y-109940243D01*
X144540172Y-109947057D01*
X144621773Y-110124066D01*
X144625380Y-110130313D01*
X144709487Y-110249322D01*
X144718816Y-110255794D01*
X144722795Y-110255428D01*
X145393372Y-109584851D01*
X145397759Y-109575443D01*
X145761828Y-109575443D01*
X145763514Y-109581737D01*
X146431566Y-110249789D01*
X146441860Y-110254589D01*
X146446695Y-110253294D01*
X146488105Y-110203503D01*
X146492195Y-110197552D01*
X146587436Y-110027488D01*
X146590371Y-110020896D01*
X146652153Y-109838891D01*
X146685977Y-109796747D01*
X146738978Y-109786204D01*
X146786355Y-109812197D01*
X146803529Y-109844839D01*
X146827759Y-109940243D01*
X146830172Y-109947057D01*
X146911773Y-110124066D01*
X146915380Y-110130313D01*
X146999487Y-110249322D01*
X147008816Y-110255794D01*
X147012795Y-110255428D01*
X147683372Y-109584851D01*
X147687759Y-109575443D01*
X148051828Y-109575443D01*
X148053514Y-109581737D01*
X148721566Y-110249789D01*
X148731860Y-110254589D01*
X148736695Y-110253294D01*
X148778105Y-110203503D01*
X148782195Y-110197552D01*
X148877436Y-110027488D01*
X148880371Y-110020896D01*
X148943025Y-109836321D01*
X148944710Y-109829304D01*
X148972864Y-109635127D01*
X148973260Y-109630486D01*
X148974652Y-109577327D01*
X148974500Y-109572685D01*
X148956545Y-109377288D01*
X148955230Y-109370195D01*
X148902321Y-109182592D01*
X148899736Y-109175858D01*
X148813525Y-109001037D01*
X148809756Y-108994887D01*
X148739915Y-108901358D01*
X148730418Y-108895132D01*
X148726139Y-108895638D01*
X148056628Y-109565149D01*
X148051828Y-109575443D01*
X147687759Y-109575443D01*
X147688172Y-109574557D01*
X147686486Y-109568263D01*
X147018622Y-108900399D01*
X147008328Y-108895599D01*
X147003842Y-108896801D01*
X146945749Y-108970490D01*
X146941826Y-108976531D01*
X146851065Y-109149039D01*
X146848304Y-109155703D01*
X146799756Y-109312056D01*
X146767046Y-109355071D01*
X146714340Y-109366997D01*
X146666298Y-109342254D01*
X146648275Y-109310073D01*
X146612321Y-109182592D01*
X146609736Y-109175858D01*
X146523525Y-109001037D01*
X146519756Y-108994887D01*
X146449915Y-108901358D01*
X146440418Y-108895132D01*
X146436139Y-108895638D01*
X145766628Y-109565149D01*
X145761828Y-109575443D01*
X145397759Y-109575443D01*
X145398172Y-109574557D01*
X145396486Y-109568263D01*
X144728622Y-108900399D01*
X144718328Y-108895599D01*
X144713842Y-108896801D01*
X144655749Y-108970490D01*
X144651826Y-108976531D01*
X144561065Y-109149039D01*
X144558304Y-109155703D01*
X144509756Y-109312056D01*
X144477046Y-109355071D01*
X144424340Y-109366997D01*
X144376298Y-109342254D01*
X144358275Y-109310073D01*
X144322321Y-109182592D01*
X144319736Y-109175858D01*
X144233525Y-109001037D01*
X144229756Y-108994887D01*
X144159915Y-108901358D01*
X144150418Y-108895132D01*
X144146139Y-108895638D01*
X143476628Y-109565149D01*
X143471828Y-109575443D01*
X143107759Y-109575443D01*
X143108172Y-109574557D01*
X143106486Y-109568263D01*
X142438622Y-108900399D01*
X142428328Y-108895599D01*
X142423842Y-108896801D01*
X142365749Y-108970490D01*
X142361826Y-108976531D01*
X142271065Y-109149039D01*
X142268304Y-109155703D01*
X142210502Y-109341857D01*
X142209002Y-109348919D01*
X142186092Y-109542481D01*
X142185903Y-109549698D01*
X142012908Y-109549698D01*
X141996051Y-109377777D01*
X141938774Y-109188065D01*
X141936963Y-109184660D01*
X141936961Y-109184654D01*
X141847551Y-109016500D01*
X141845739Y-109013092D01*
X141838919Y-109004729D01*
X141750894Y-108896801D01*
X141720490Y-108859522D01*
X141708415Y-108849532D01*
X141570773Y-108735665D01*
X141570772Y-108735664D01*
X141567798Y-108733204D01*
X141549979Y-108723569D01*
X141531606Y-108713635D01*
X142609652Y-108713635D01*
X142610705Y-108718928D01*
X143280149Y-109388372D01*
X143290443Y-109393172D01*
X143296737Y-109391486D01*
X143966761Y-108721462D01*
X143971561Y-108711168D01*
X143970056Y-108705551D01*
X143965165Y-108701029D01*
X143959445Y-108696640D01*
X143794590Y-108592625D01*
X143788167Y-108589353D01*
X143607121Y-108517122D01*
X143600200Y-108515072D01*
X143409024Y-108477045D01*
X143401854Y-108476292D01*
X143206952Y-108473739D01*
X143199752Y-108474306D01*
X143007653Y-108507315D01*
X143000675Y-108509185D01*
X142817805Y-108576649D01*
X142811298Y-108579753D01*
X142643782Y-108679414D01*
X142637938Y-108683660D01*
X142615115Y-108703677D01*
X142609652Y-108713635D01*
X141531606Y-108713635D01*
X141476168Y-108683660D01*
X141393479Y-108638950D01*
X141204172Y-108580350D01*
X141007089Y-108559636D01*
X141003243Y-108559986D01*
X141003242Y-108559986D01*
X140995243Y-108560714D01*
X140809735Y-108577596D01*
X140806028Y-108578687D01*
X140623338Y-108632456D01*
X140623335Y-108632457D01*
X140619629Y-108633548D01*
X140616202Y-108635340D01*
X140616201Y-108635340D01*
X140611478Y-108637809D01*
X140444010Y-108725359D01*
X140441003Y-108727777D01*
X140441001Y-108727778D01*
X140431192Y-108735665D01*
X140289570Y-108849532D01*
X140162189Y-109001339D01*
X140160327Y-109004727D01*
X140160325Y-109004729D01*
X140153854Y-109016500D01*
X140066720Y-109174996D01*
X140006800Y-109363889D01*
X139984710Y-109560823D01*
X139813410Y-109560823D01*
X139796545Y-109377288D01*
X139795230Y-109370195D01*
X139742321Y-109182592D01*
X139739736Y-109175858D01*
X139653525Y-109001037D01*
X139649756Y-108994887D01*
X139579915Y-108901358D01*
X139570418Y-108895132D01*
X139566139Y-108895638D01*
X138896628Y-109565149D01*
X138891828Y-109575443D01*
X138527759Y-109575443D01*
X138528172Y-109574557D01*
X138526486Y-109568263D01*
X137858622Y-108900399D01*
X137848328Y-108895599D01*
X137843842Y-108896801D01*
X137785749Y-108970490D01*
X137781826Y-108976531D01*
X137691065Y-109149039D01*
X137688304Y-109155703D01*
X137630502Y-109341857D01*
X137629002Y-109348919D01*
X137606092Y-109542481D01*
X137605903Y-109549698D01*
X131936241Y-109549698D01*
X131918495Y-109278949D01*
X131917821Y-109273832D01*
X131860447Y-108985394D01*
X131859106Y-108980388D01*
X131764577Y-108701915D01*
X131762597Y-108697136D01*
X131645340Y-108459362D01*
X136882909Y-108459362D01*
X136883854Y-108462891D01*
X136883965Y-108463000D01*
X137034863Y-108563827D01*
X137041204Y-108567270D01*
X137220297Y-108644214D01*
X137227161Y-108646444D01*
X137417274Y-108689463D01*
X137424425Y-108690404D01*
X137619191Y-108698057D01*
X137626408Y-108697678D01*
X137819304Y-108669710D01*
X137826321Y-108668025D01*
X137922989Y-108635211D01*
X137977016Y-108636389D01*
X138017644Y-108672020D01*
X138025864Y-108694603D01*
X138030703Y-108718926D01*
X138700149Y-109388372D01*
X138710443Y-109393172D01*
X138716737Y-109391486D01*
X139386761Y-108721462D01*
X139391561Y-108711168D01*
X139390056Y-108705551D01*
X139385165Y-108701029D01*
X139379445Y-108696640D01*
X139214590Y-108592625D01*
X139208167Y-108589353D01*
X139027121Y-108517122D01*
X139020200Y-108515072D01*
X138829024Y-108477045D01*
X138821854Y-108476292D01*
X138626952Y-108473739D01*
X138619752Y-108474306D01*
X138427653Y-108507315D01*
X138420675Y-108509185D01*
X138352932Y-108534176D01*
X138298893Y-108534412D01*
X138257346Y-108499857D01*
X138247730Y-108473436D01*
X138243803Y-108450580D01*
X137574851Y-107781628D01*
X137564557Y-107776828D01*
X137558263Y-107778514D01*
X136887709Y-108449068D01*
X136882909Y-108459362D01*
X131645340Y-108459362D01*
X131632523Y-108433371D01*
X131629941Y-108428898D01*
X131466552Y-108184370D01*
X131463405Y-108180269D01*
X131359568Y-108061865D01*
X131349613Y-108056403D01*
X131344320Y-108057456D01*
X129836628Y-109565149D01*
X129831828Y-109575443D01*
X129467759Y-109575443D01*
X129468172Y-109574557D01*
X129466486Y-109568263D01*
X127959467Y-108061243D01*
X127949173Y-108056443D01*
X127943962Y-108057839D01*
X127836595Y-108180269D01*
X127833448Y-108184370D01*
X127670059Y-108428898D01*
X127667477Y-108433371D01*
X127537403Y-108697136D01*
X127535423Y-108701915D01*
X127440894Y-108980388D01*
X127439553Y-108985394D01*
X127382179Y-109273832D01*
X127381505Y-109278949D01*
X127362270Y-109572422D01*
X127362270Y-109577578D01*
X126910000Y-109577578D01*
X126910000Y-107875387D01*
X128131403Y-107875387D01*
X128132456Y-107880680D01*
X129640149Y-109388372D01*
X129650443Y-109393172D01*
X129656737Y-109391486D01*
X131163757Y-107884467D01*
X131168557Y-107874173D01*
X131167161Y-107868962D01*
X131044731Y-107761595D01*
X131040630Y-107758448D01*
X130796102Y-107595059D01*
X130791630Y-107592477D01*
X130745438Y-107569698D01*
X136460903Y-107569698D01*
X136473651Y-107764201D01*
X136474780Y-107771328D01*
X136522759Y-107960243D01*
X136525172Y-107967057D01*
X136606773Y-108144066D01*
X136610380Y-108150313D01*
X136694487Y-108269322D01*
X136703816Y-108275794D01*
X136707795Y-108275428D01*
X137378372Y-107604851D01*
X137382759Y-107595443D01*
X137746828Y-107595443D01*
X137748514Y-107601737D01*
X138416566Y-108269789D01*
X138426860Y-108274589D01*
X138431695Y-108273294D01*
X138473105Y-108223503D01*
X138477195Y-108217552D01*
X138572436Y-108047488D01*
X138575371Y-108040896D01*
X138638025Y-107856321D01*
X138639710Y-107849304D01*
X138667864Y-107655127D01*
X138668260Y-107650486D01*
X138669652Y-107597327D01*
X138669500Y-107592685D01*
X138668410Y-107580823D01*
X138839710Y-107580823D01*
X138840033Y-107584669D01*
X138854890Y-107761595D01*
X138856292Y-107778297D01*
X138910915Y-107968790D01*
X139001498Y-108145045D01*
X139124590Y-108300348D01*
X139275504Y-108428786D01*
X139278878Y-108430672D01*
X139278880Y-108430673D01*
X139317615Y-108452321D01*
X139448490Y-108525465D01*
X139452152Y-108526655D01*
X139452157Y-108526657D01*
X139554736Y-108559986D01*
X139636960Y-108586702D01*
X139640797Y-108587160D01*
X139640799Y-108587160D01*
X139829892Y-108609708D01*
X139829895Y-108609708D01*
X139833735Y-108610166D01*
X140031320Y-108594963D01*
X140222190Y-108541671D01*
X140350128Y-108477045D01*
X140395619Y-108454066D01*
X140395621Y-108454065D01*
X140399073Y-108452321D01*
X140555232Y-108330316D01*
X140602610Y-108275428D01*
X140682196Y-108183228D01*
X140682200Y-108183223D01*
X140684720Y-108180303D01*
X140686626Y-108176947D01*
X140686630Y-108176942D01*
X140780695Y-108011356D01*
X140782604Y-108007996D01*
X140783824Y-108004329D01*
X140843935Y-107823630D01*
X140843936Y-107823625D01*
X140845156Y-107819958D01*
X140869993Y-107623351D01*
X140870389Y-107595000D01*
X140851051Y-107397777D01*
X140793774Y-107208065D01*
X140791963Y-107204660D01*
X140791961Y-107204654D01*
X140702551Y-107036500D01*
X140700739Y-107033092D01*
X140693919Y-107024729D01*
X140605894Y-106916801D01*
X140575490Y-106879522D01*
X140563415Y-106869532D01*
X140425773Y-106755665D01*
X140425772Y-106755664D01*
X140422798Y-106753204D01*
X140404979Y-106743569D01*
X140355174Y-106716640D01*
X140248479Y-106658950D01*
X140059172Y-106600350D01*
X139862089Y-106579636D01*
X139858243Y-106579986D01*
X139858242Y-106579986D01*
X139821827Y-106583300D01*
X139664735Y-106597596D01*
X139661028Y-106598687D01*
X139478338Y-106652456D01*
X139478335Y-106652457D01*
X139474629Y-106653548D01*
X139299010Y-106745359D01*
X139296003Y-106747777D01*
X139296001Y-106747778D01*
X139286193Y-106755664D01*
X139144570Y-106869532D01*
X139017189Y-107021339D01*
X139015327Y-107024727D01*
X139015325Y-107024729D01*
X139008854Y-107036500D01*
X138921720Y-107194996D01*
X138861800Y-107383889D01*
X138839710Y-107580823D01*
X138668410Y-107580823D01*
X138651545Y-107397288D01*
X138650230Y-107390195D01*
X138597321Y-107202592D01*
X138594736Y-107195858D01*
X138508525Y-107021037D01*
X138504756Y-107014887D01*
X138434915Y-106921358D01*
X138425418Y-106915132D01*
X138421139Y-106915638D01*
X137751628Y-107585149D01*
X137746828Y-107595443D01*
X137382759Y-107595443D01*
X137383172Y-107594557D01*
X137381486Y-107588263D01*
X136713622Y-106920399D01*
X136703328Y-106915599D01*
X136698842Y-106916801D01*
X136640749Y-106990490D01*
X136636826Y-106996531D01*
X136546065Y-107169039D01*
X136543304Y-107175703D01*
X136485502Y-107361857D01*
X136484002Y-107368919D01*
X136461092Y-107562481D01*
X136460903Y-107569698D01*
X130745438Y-107569698D01*
X130527864Y-107462403D01*
X130523085Y-107460423D01*
X130244612Y-107365894D01*
X130239606Y-107364553D01*
X129951168Y-107307179D01*
X129946051Y-107306505D01*
X129652578Y-107287270D01*
X129647422Y-107287270D01*
X129353949Y-107306505D01*
X129348832Y-107307179D01*
X129060394Y-107364553D01*
X129055388Y-107365894D01*
X128776915Y-107460423D01*
X128772136Y-107462403D01*
X128508371Y-107592477D01*
X128503898Y-107595059D01*
X128259370Y-107758448D01*
X128255269Y-107761595D01*
X128136865Y-107865432D01*
X128131403Y-107875387D01*
X126910000Y-107875387D01*
X126910000Y-106733635D01*
X136884652Y-106733635D01*
X136885705Y-106738928D01*
X137555149Y-107408372D01*
X137565443Y-107413172D01*
X137571737Y-107411486D01*
X138241761Y-106741462D01*
X138246561Y-106731168D01*
X138245056Y-106725551D01*
X138240165Y-106721029D01*
X138234445Y-106716640D01*
X138069590Y-106612625D01*
X138063167Y-106609353D01*
X137882121Y-106537122D01*
X137875200Y-106535072D01*
X137684024Y-106497045D01*
X137676854Y-106496292D01*
X137481952Y-106493739D01*
X137474752Y-106494306D01*
X137282653Y-106527315D01*
X137275675Y-106529185D01*
X137092805Y-106596649D01*
X137086298Y-106599753D01*
X136918782Y-106699414D01*
X136912938Y-106703660D01*
X136890115Y-106723677D01*
X136884652Y-106733635D01*
X126910000Y-106733635D01*
X126910000Y-102604201D01*
X126928482Y-102553421D01*
X126975282Y-102526401D01*
X127028500Y-102535785D01*
X127058095Y-102565901D01*
X127119376Y-102676456D01*
X127123917Y-102682989D01*
X127251443Y-102831775D01*
X127257216Y-102837273D01*
X127412053Y-102957377D01*
X127418811Y-102961600D01*
X127594638Y-103048117D01*
X127602099Y-103050892D01*
X127791738Y-103100290D01*
X127799604Y-103101507D01*
X127811089Y-103102109D01*
X127821948Y-103098789D01*
X127825000Y-103094090D01*
X127825000Y-103086594D01*
X128075000Y-103086594D01*
X128078884Y-103097265D01*
X128082551Y-103099382D01*
X128197016Y-103082071D01*
X128204727Y-103080091D01*
X128388635Y-103012426D01*
X128395802Y-103008931D01*
X128562343Y-102905671D01*
X128568651Y-102900813D01*
X128711039Y-102766164D01*
X128716238Y-102760141D01*
X128828639Y-102599615D01*
X128832522Y-102592668D01*
X128910349Y-102412818D01*
X128912759Y-102405222D01*
X128953029Y-102212459D01*
X128953809Y-102206462D01*
X128953946Y-102203832D01*
X128954000Y-102201780D01*
X128954000Y-101488930D01*
X128950116Y-101478259D01*
X128944472Y-101475000D01*
X128088930Y-101475000D01*
X128078259Y-101478884D01*
X128075000Y-101484528D01*
X128075000Y-103086594D01*
X127825000Y-103086594D01*
X127825000Y-101211070D01*
X128075000Y-101211070D01*
X128078884Y-101221741D01*
X128084528Y-101225000D01*
X128940070Y-101225000D01*
X128950741Y-101221116D01*
X128954000Y-101215472D01*
X128954000Y-100547020D01*
X128953799Y-100543040D01*
X128938970Y-100397055D01*
X128937370Y-100389259D01*
X128878768Y-100202262D01*
X128875630Y-100194941D01*
X128780624Y-100023544D01*
X128776083Y-100017011D01*
X128648557Y-99868225D01*
X128642784Y-99862727D01*
X128487947Y-99742623D01*
X128481189Y-99738400D01*
X128305362Y-99651883D01*
X128297901Y-99649108D01*
X128108262Y-99599710D01*
X128100396Y-99598493D01*
X128088911Y-99597891D01*
X128078052Y-99601211D01*
X128075000Y-99605910D01*
X128075000Y-101211070D01*
X127825000Y-101211070D01*
X127825000Y-99613406D01*
X127821116Y-99602735D01*
X127817449Y-99600618D01*
X127702984Y-99617929D01*
X127695273Y-99619909D01*
X127511365Y-99687574D01*
X127504198Y-99691069D01*
X127337657Y-99794329D01*
X127331349Y-99799187D01*
X127188961Y-99933836D01*
X127183762Y-99939859D01*
X127071361Y-100100385D01*
X127067478Y-100107332D01*
X127061503Y-100121140D01*
X127024373Y-100160403D01*
X126970692Y-100166614D01*
X126925577Y-100136867D01*
X126910000Y-100089765D01*
X126910000Y-96612086D01*
X128075182Y-96612086D01*
X128075302Y-96615159D01*
X128077680Y-96645378D01*
X128079122Y-96653274D01*
X128121087Y-96797716D01*
X128125008Y-96806778D01*
X128201101Y-96935443D01*
X128207147Y-96943237D01*
X128312847Y-97048937D01*
X128320641Y-97054983D01*
X128449306Y-97131076D01*
X128458368Y-97134997D01*
X128602805Y-97176960D01*
X128610716Y-97178405D01*
X128640896Y-97180780D01*
X128644014Y-97180903D01*
X128948251Y-97180903D01*
X128958922Y-97177019D01*
X128962181Y-97171375D01*
X128962181Y-97166972D01*
X129212181Y-97166972D01*
X129216065Y-97177643D01*
X129221709Y-97180902D01*
X129530364Y-97180902D01*
X129533437Y-97180782D01*
X129563656Y-97178404D01*
X129571552Y-97176962D01*
X129715994Y-97134997D01*
X129725056Y-97131076D01*
X129853721Y-97054983D01*
X129861515Y-97048937D01*
X129967215Y-96943237D01*
X129973261Y-96935443D01*
X130049354Y-96806778D01*
X130053275Y-96797716D01*
X130095238Y-96653279D01*
X130096683Y-96645368D01*
X130099058Y-96615188D01*
X130099181Y-96612070D01*
X130099181Y-96307833D01*
X130095297Y-96297162D01*
X130089653Y-96293903D01*
X129226111Y-96293903D01*
X129215440Y-96297787D01*
X129212181Y-96303431D01*
X129212181Y-97166972D01*
X128962181Y-97166972D01*
X128962181Y-96307833D01*
X128958297Y-96297162D01*
X128952653Y-96293903D01*
X128089112Y-96293903D01*
X128078441Y-96297787D01*
X128075182Y-96303431D01*
X128075182Y-96612086D01*
X126910000Y-96612086D01*
X126910000Y-95589000D01*
X126928482Y-95538220D01*
X126975282Y-95511200D01*
X126989000Y-95510000D01*
X128024611Y-95510000D01*
X128075391Y-95528482D01*
G37*
G04 #@! TD.AperFunction*
M02*
