M48
; DRILL file {KiCad (6.0.1-0)} date Thursday, 24 February 2022 at 13:12:45
; FORMAT={-:-/ absolute / inch / decimal}
; #@! TF.CreationDate,2022-02-24T13:12:45-05:00
; #@! TF.GenerationSoftware,Kicad,Pcbnew,(6.0.1-0)
; #@! TF.FileFunction,MixedPlating,1,2
FMAT,2
INCH
; #@! TA.AperFunction,Plated,PTH,ViaDrill
T1C0.0118
; #@! TA.AperFunction,Plated,PTH,ComponentDrill
T2C0.0394
; #@! TA.AperFunction,Plated,PTH,ComponentDrill
T3C0.1260
%
G90
G05
T1
X5.2539Y-4.3632
X5.2539Y-4.439
X5.6516Y-4.1467
X5.7343Y-3.9902
X5.8179Y-3.9104
X5.9144Y-4.4173
X5.9252Y-3.9764
X6.0512Y-3.9242
X6.1585Y-3.7963
T2
X5.0822Y-3.7862
X5.1822Y-3.7862
X5.2822Y-3.7862
X5.3822Y-3.7862
X5.4159Y-4.236
X5.4159Y-4.3919
X5.461Y-4.314
X5.4822Y-3.7862
X5.5061Y-4.236
X5.5061Y-4.3919
X5.5512Y-4.314
X5.5822Y-3.7862
X5.5963Y-4.236
X5.5963Y-4.3919
X5.6413Y-4.314
X5.6822Y-3.7862
X5.6864Y-4.236
X5.6864Y-4.3919
X5.7315Y-4.314
X5.7766Y-4.236
X5.7766Y-4.3919
X5.7822Y-3.7862
X5.8217Y-4.314
X5.8822Y-3.7862
X5.9822Y-3.7862
X6.0822Y-3.7862
T3
X5.1043Y-4.314
X6.0882Y-4.314
T2
G00X5.0374Y-3.9705
M15
G01X5.0374Y-4.0098
M16
G05
G00X5.1319Y-3.8917
M15
G01X5.1319Y-3.9311
M16
G05
G00X5.2776Y-3.9705
M15
G01X5.2776Y-4.0098
M16
G05
G00X5.3484Y-3.8917
M15
G01X5.3484Y-3.9311
M16
G05
G00X5.4941Y-3.9705
M15
G01X5.4941Y-4.0098
M16
G05
T0
M30
