G04 #@! TF.GenerationSoftware,KiCad,Pcbnew,(6.0.1-0)*
G04 #@! TF.CreationDate,2022-02-24T13:14:34-05:00*
G04 #@! TF.ProjectId,DC2VGA,44433256-4741-42e6-9b69-6361645f7063,1*
G04 #@! TF.SameCoordinates,Original*
G04 #@! TF.FileFunction,Soldermask,Top*
G04 #@! TF.FilePolarity,Negative*
%FSLAX46Y46*%
G04 Gerber Fmt 4.6, Leading zero omitted, Abs format (unit mm)*
G04 Created by KiCad (PCBNEW (6.0.1-0)) date 2022-02-24 13:14:34*
%MOMM*%
%LPD*%
G01*
G04 APERTURE LIST*
G04 Aperture macros list*
%AMRoundRect*
0 Rectangle with rounded corners*
0 $1 Rounding radius*
0 $2 $3 $4 $5 $6 $7 $8 $9 X,Y pos of 4 corners*
0 Add a 4 corners polygon primitive as box body*
4,1,4,$2,$3,$4,$5,$6,$7,$8,$9,$2,$3,0*
0 Add four circle primitives for the rounded corners*
1,1,$1+$1,$2,$3*
1,1,$1+$1,$4,$5*
1,1,$1+$1,$6,$7*
1,1,$1+$1,$8,$9*
0 Add four rect primitives between the rounded corners*
20,1,$1+$1,$2,$3,$4,$5,0*
20,1,$1+$1,$4,$5,$6,$7,0*
20,1,$1+$1,$6,$7,$8,$9,0*
20,1,$1+$1,$8,$9,$2,$3,0*%
G04 Aperture macros list end*
%ADD10C,0.100000*%
%ADD11R,1.820000X1.200000*%
%ADD12RoundRect,0.200000X0.200000X0.275000X-0.200000X0.275000X-0.200000X-0.275000X0.200000X-0.275000X0*%
%ADD13R,1.353299X0.354800*%
%ADD14RoundRect,0.262500X0.337500X0.262500X-0.337500X0.262500X-0.337500X-0.262500X0.337500X-0.262500X0*%
%ADD15RoundRect,0.312500X-0.312500X-0.687500X0.312500X-0.687500X0.312500X0.687500X-0.312500X0.687500X0*%
%ADD16R,1.524000X1.524000*%
%ADD17RoundRect,0.381000X0.381000X0.381000X-0.381000X0.381000X-0.381000X-0.381000X0.381000X-0.381000X0*%
%ADD18RoundRect,0.262500X-0.337500X-0.262500X0.337500X-0.262500X0.337500X0.262500X-0.337500X0.262500X0*%
%ADD19RoundRect,0.312500X0.312500X0.687500X-0.312500X0.687500X-0.312500X-0.687500X0.312500X-0.687500X0*%
%ADD20R,1.200000X1.524000*%
%ADD21RoundRect,0.300000X0.300000X0.462000X-0.300000X0.462000X-0.300000X-0.462000X0.300000X-0.462000X0*%
G04 APERTURE END LIST*
D10*
X134300000Y-95310000D02*
X136090000Y-95310000D01*
X136090000Y-95310000D02*
X136090000Y-99720000D01*
X136090000Y-99720000D02*
X134300000Y-99720000D01*
X134300000Y-99720000D02*
X134300000Y-95310000D01*
G36*
X134300000Y-95310000D02*
G01*
X136090000Y-95310000D01*
X136090000Y-99720000D01*
X134300000Y-99720000D01*
X134300000Y-95310000D01*
G37*
D11*
X149220000Y-103470000D03*
X149220000Y-106390000D03*
D12*
X127565000Y-102040000D03*
X125915000Y-102040000D03*
D11*
X152150000Y-103480000D03*
X152150000Y-106400000D03*
D12*
X132705000Y-102060000D03*
X131055000Y-102060000D03*
D13*
X142583748Y-106920001D03*
X142583748Y-106270000D03*
X142583748Y-105619999D03*
X142583748Y-104970000D03*
X142583748Y-104320001D03*
X142583748Y-103670000D03*
X142583748Y-103020001D03*
X136836252Y-103019999D03*
X136836252Y-103670000D03*
X136836252Y-104319999D03*
X136836252Y-104970000D03*
X136836252Y-105619999D03*
X136836252Y-106270000D03*
X136836252Y-106919999D03*
D11*
X146280000Y-103480000D03*
X146280000Y-106400000D03*
D14*
X131120000Y-104470000D03*
X129120000Y-104470000D03*
X127120000Y-104470000D03*
X131120000Y-106970000D03*
X129120000Y-106970000D03*
X127120000Y-106970000D03*
D15*
X134120000Y-105720000D03*
X124120000Y-105720000D03*
D16*
X151731634Y-110398008D03*
D17*
X149191634Y-110398008D03*
X146651634Y-110398008D03*
X131411634Y-110398008D03*
X128871634Y-110398008D03*
X139031634Y-110398008D03*
X136491634Y-110398008D03*
X126331634Y-110398008D03*
X144111634Y-110398008D03*
X133951634Y-110398008D03*
X141571634Y-110398008D03*
D18*
X127120000Y-99750000D03*
X129120000Y-99750000D03*
X131120000Y-99750000D03*
X127120000Y-97250000D03*
X129120000Y-97250000D03*
X131120000Y-97250000D03*
D19*
X124120000Y-98500000D03*
X134120000Y-98500000D03*
D20*
X137746684Y-98103008D03*
D21*
X138726684Y-100703008D03*
X139716684Y-98103008D03*
X140696684Y-100703008D03*
X141686684Y-98103008D03*
X142666684Y-100703008D03*
X143656684Y-98103008D03*
X144636684Y-100703008D03*
X145626684Y-98103008D03*
X146606684Y-100703008D03*
X147596684Y-98103008D03*
X148576684Y-100703008D03*
X149566684Y-98103008D03*
X150546684Y-100703008D03*
X151536684Y-98103008D03*
X152516684Y-100703008D03*
M02*
