G04 #@! TF.GenerationSoftware,KiCad,Pcbnew,(6.0.1-0)*
G04 #@! TF.CreationDate,2022-02-24T13:14:34-05:00*
G04 #@! TF.ProjectId,DC2VGA,44433256-4741-42e6-9b69-6361645f7063,1*
G04 #@! TF.SameCoordinates,Original*
G04 #@! TF.FileFunction,Legend,Bot*
G04 #@! TF.FilePolarity,Positive*
%FSLAX46Y46*%
G04 Gerber Fmt 4.6, Leading zero omitted, Abs format (unit mm)*
G04 Created by KiCad (PCBNEW (6.0.1-0)) date 2022-02-24 13:14:34*
%MOMM*%
%LPD*%
G01*
G04 APERTURE LIST*
G04 Aperture macros list*
%AMRoundRect*
0 Rectangle with rounded corners*
0 $1 Rounding radius*
0 $2 $3 $4 $5 $6 $7 $8 $9 X,Y pos of 4 corners*
0 Add a 4 corners polygon primitive as box body*
4,1,4,$2,$3,$4,$5,$6,$7,$8,$9,$2,$3,0*
0 Add four circle primitives for the rounded corners*
1,1,$1+$1,$2,$3*
1,1,$1+$1,$4,$5*
1,1,$1+$1,$6,$7*
1,1,$1+$1,$8,$9*
0 Add four rect primitives between the rounded corners*
20,1,$1+$1,$2,$3,$4,$5,0*
20,1,$1+$1,$4,$5,$6,$7,0*
20,1,$1+$1,$6,$7,$8,$9,0*
20,1,$1+$1,$8,$9,$2,$3,0*%
G04 Aperture macros list end*
%ADD10C,0.150000*%
%ADD11C,0.120000*%
%ADD12C,0.200000*%
%ADD13C,0.100000*%
%ADD14RoundRect,0.200000X0.200000X0.275000X-0.200000X0.275000X-0.200000X-0.275000X0.200000X-0.275000X0*%
%ADD15RoundRect,0.200000X-0.200000X-0.275000X0.200000X-0.275000X0.200000X0.275000X-0.200000X0.275000X0*%
%ADD16RoundRect,0.262500X0.337500X0.262500X-0.337500X0.262500X-0.337500X-0.262500X0.337500X-0.262500X0*%
%ADD17RoundRect,0.312500X-0.312500X-0.687500X0.312500X-0.687500X0.312500X0.687500X-0.312500X0.687500X0*%
%ADD18RoundRect,0.225000X-0.225000X-0.250000X0.225000X-0.250000X0.225000X0.250000X-0.225000X0.250000X0*%
%ADD19R,1.524000X1.524000*%
%ADD20RoundRect,0.381000X0.381000X0.381000X-0.381000X0.381000X-0.381000X-0.381000X0.381000X-0.381000X0*%
%ADD21RoundRect,0.225000X0.225000X0.250000X-0.225000X0.250000X-0.225000X-0.250000X0.225000X-0.250000X0*%
%ADD22RoundRect,0.262500X-0.337500X-0.262500X0.337500X-0.262500X0.337500X0.262500X-0.337500X0.262500X0*%
%ADD23RoundRect,0.312500X0.312500X0.687500X-0.312500X0.687500X-0.312500X-0.687500X0.312500X-0.687500X0*%
%ADD24R,1.200000X1.524000*%
%ADD25RoundRect,0.300000X0.300000X0.462000X-0.300000X0.462000X-0.300000X-0.462000X0.300000X-0.462000X0*%
G04 APERTURE END LIST*
D10*
X132138095Y-108952380D02*
X132138095Y-107952380D01*
X131900000Y-107952380D01*
X131757142Y-108000000D01*
X131661904Y-108095238D01*
X131614285Y-108190476D01*
X131566666Y-108380952D01*
X131566666Y-108523809D01*
X131614285Y-108714285D01*
X131661904Y-108809523D01*
X131757142Y-108904761D01*
X131900000Y-108952380D01*
X132138095Y-108952380D01*
X130566666Y-108857142D02*
X130614285Y-108904761D01*
X130757142Y-108952380D01*
X130852380Y-108952380D01*
X130995238Y-108904761D01*
X131090476Y-108809523D01*
X131138095Y-108714285D01*
X131185714Y-108523809D01*
X131185714Y-108380952D01*
X131138095Y-108190476D01*
X131090476Y-108095238D01*
X130995238Y-108000000D01*
X130852380Y-107952380D01*
X130757142Y-107952380D01*
X130614285Y-108000000D01*
X130566666Y-108047619D01*
X129423809Y-108904761D02*
X129280952Y-108952380D01*
X129042857Y-108952380D01*
X128947619Y-108904761D01*
X128900000Y-108857142D01*
X128852380Y-108761904D01*
X128852380Y-108666666D01*
X128900000Y-108571428D01*
X128947619Y-108523809D01*
X129042857Y-108476190D01*
X129233333Y-108428571D01*
X129328571Y-108380952D01*
X129376190Y-108333333D01*
X129423809Y-108238095D01*
X129423809Y-108142857D01*
X129376190Y-108047619D01*
X129328571Y-108000000D01*
X129233333Y-107952380D01*
X128995238Y-107952380D01*
X128852380Y-108000000D01*
X128423809Y-108952380D02*
X128423809Y-108285714D01*
X128423809Y-107952380D02*
X128471428Y-108000000D01*
X128423809Y-108047619D01*
X128376190Y-108000000D01*
X128423809Y-107952380D01*
X128423809Y-108047619D01*
X127519047Y-108952380D02*
X127519047Y-107952380D01*
X127519047Y-108904761D02*
X127614285Y-108952380D01*
X127804761Y-108952380D01*
X127900000Y-108904761D01*
X127947619Y-108857142D01*
X127995238Y-108761904D01*
X127995238Y-108476190D01*
X127947619Y-108380952D01*
X127900000Y-108333333D01*
X127804761Y-108285714D01*
X127614285Y-108285714D01*
X127519047Y-108333333D01*
X126661904Y-108904761D02*
X126757142Y-108952380D01*
X126947619Y-108952380D01*
X127042857Y-108904761D01*
X127090476Y-108809523D01*
X127090476Y-108428571D01*
X127042857Y-108333333D01*
X126947619Y-108285714D01*
X126757142Y-108285714D01*
X126661904Y-108333333D01*
X126614285Y-108428571D01*
X126614285Y-108523809D01*
X127090476Y-108619047D01*
X153095000Y-107419285D02*
X153345000Y-107062142D01*
X153523571Y-107419285D02*
X153523571Y-106669285D01*
X153237857Y-106669285D01*
X153166428Y-106705000D01*
X153130714Y-106740714D01*
X153095000Y-106812142D01*
X153095000Y-106919285D01*
X153130714Y-106990714D01*
X153166428Y-107026428D01*
X153237857Y-107062142D01*
X153523571Y-107062142D01*
X152380714Y-107419285D02*
X152809285Y-107419285D01*
X152595000Y-107419285D02*
X152595000Y-106669285D01*
X152666428Y-106776428D01*
X152737857Y-106847857D01*
X152809285Y-106883571D01*
X148975000Y-108189285D02*
X149225000Y-107832142D01*
X149403571Y-108189285D02*
X149403571Y-107439285D01*
X149117857Y-107439285D01*
X149046428Y-107475000D01*
X149010714Y-107510714D01*
X148975000Y-107582142D01*
X148975000Y-107689285D01*
X149010714Y-107760714D01*
X149046428Y-107796428D01*
X149117857Y-107832142D01*
X149403571Y-107832142D01*
X148725000Y-107439285D02*
X148260714Y-107439285D01*
X148510714Y-107725000D01*
X148403571Y-107725000D01*
X148332142Y-107760714D01*
X148296428Y-107796428D01*
X148260714Y-107867857D01*
X148260714Y-108046428D01*
X148296428Y-108117857D01*
X148332142Y-108153571D01*
X148403571Y-108189285D01*
X148617857Y-108189285D01*
X148689285Y-108153571D01*
X148725000Y-108117857D01*
X127786666Y-105315238D02*
X127929523Y-105267619D01*
X128167619Y-105267619D01*
X128262857Y-105315238D01*
X128310476Y-105362857D01*
X128358095Y-105458095D01*
X128358095Y-105553333D01*
X128310476Y-105648571D01*
X128262857Y-105696190D01*
X128167619Y-105743809D01*
X127977142Y-105791428D01*
X127881904Y-105839047D01*
X127834285Y-105886666D01*
X127786666Y-105981904D01*
X127786666Y-106077142D01*
X127834285Y-106172380D01*
X127881904Y-106220000D01*
X127977142Y-106267619D01*
X128215238Y-106267619D01*
X128358095Y-106220000D01*
X128691428Y-106267619D02*
X128929523Y-105267619D01*
X129120000Y-105981904D01*
X129310476Y-105267619D01*
X129548571Y-106267619D01*
X129881904Y-106172380D02*
X129929523Y-106220000D01*
X130024761Y-106267619D01*
X130262857Y-106267619D01*
X130358095Y-106220000D01*
X130405714Y-106172380D01*
X130453333Y-106077142D01*
X130453333Y-105981904D01*
X130405714Y-105839047D01*
X129834285Y-105267619D01*
X130453333Y-105267619D01*
X137405000Y-105807857D02*
X137440714Y-105843571D01*
X137547857Y-105879285D01*
X137619285Y-105879285D01*
X137726428Y-105843571D01*
X137797857Y-105772142D01*
X137833571Y-105700714D01*
X137869285Y-105557857D01*
X137869285Y-105450714D01*
X137833571Y-105307857D01*
X137797857Y-105236428D01*
X137726428Y-105165000D01*
X137619285Y-105129285D01*
X137547857Y-105129285D01*
X137440714Y-105165000D01*
X137405000Y-105200714D01*
X136762142Y-105379285D02*
X136762142Y-105879285D01*
X136940714Y-105093571D02*
X137119285Y-105629285D01*
X136655000Y-105629285D01*
X134556190Y-109272380D02*
X134556190Y-108272380D01*
X133556190Y-109272380D02*
X134127619Y-109272380D01*
X133841904Y-109272380D02*
X133841904Y-108272380D01*
X133937142Y-108415238D01*
X134032380Y-108510476D01*
X134127619Y-108558095D01*
X144365000Y-104727857D02*
X144400714Y-104763571D01*
X144507857Y-104799285D01*
X144579285Y-104799285D01*
X144686428Y-104763571D01*
X144757857Y-104692142D01*
X144793571Y-104620714D01*
X144829285Y-104477857D01*
X144829285Y-104370714D01*
X144793571Y-104227857D01*
X144757857Y-104156428D01*
X144686428Y-104085000D01*
X144579285Y-104049285D01*
X144507857Y-104049285D01*
X144400714Y-104085000D01*
X144365000Y-104120714D01*
X143722142Y-104049285D02*
X143865000Y-104049285D01*
X143936428Y-104085000D01*
X143972142Y-104120714D01*
X144043571Y-104227857D01*
X144079285Y-104370714D01*
X144079285Y-104656428D01*
X144043571Y-104727857D01*
X144007857Y-104763571D01*
X143936428Y-104799285D01*
X143793571Y-104799285D01*
X143722142Y-104763571D01*
X143686428Y-104727857D01*
X143650714Y-104656428D01*
X143650714Y-104477857D01*
X143686428Y-104406428D01*
X143722142Y-104370714D01*
X143793571Y-104335000D01*
X143936428Y-104335000D01*
X144007857Y-104370714D01*
X144043571Y-104406428D01*
X144079285Y-104477857D01*
X144375000Y-108057857D02*
X144410714Y-108093571D01*
X144517857Y-108129285D01*
X144589285Y-108129285D01*
X144696428Y-108093571D01*
X144767857Y-108022142D01*
X144803571Y-107950714D01*
X144839285Y-107807857D01*
X144839285Y-107700714D01*
X144803571Y-107557857D01*
X144767857Y-107486428D01*
X144696428Y-107415000D01*
X144589285Y-107379285D01*
X144517857Y-107379285D01*
X144410714Y-107415000D01*
X144375000Y-107450714D01*
X143696428Y-107379285D02*
X144053571Y-107379285D01*
X144089285Y-107736428D01*
X144053571Y-107700714D01*
X143982142Y-107665000D01*
X143803571Y-107665000D01*
X143732142Y-107700714D01*
X143696428Y-107736428D01*
X143660714Y-107807857D01*
X143660714Y-107986428D01*
X143696428Y-108057857D01*
X143732142Y-108093571D01*
X143803571Y-108129285D01*
X143982142Y-108129285D01*
X144053571Y-108093571D01*
X144089285Y-108057857D01*
X130453333Y-98904761D02*
X130310476Y-98952380D01*
X130072380Y-98952380D01*
X129977142Y-98904761D01*
X129929523Y-98857142D01*
X129881904Y-98761904D01*
X129881904Y-98666666D01*
X129929523Y-98571428D01*
X129977142Y-98523809D01*
X130072380Y-98476190D01*
X130262857Y-98428571D01*
X130358095Y-98380952D01*
X130405714Y-98333333D01*
X130453333Y-98238095D01*
X130453333Y-98142857D01*
X130405714Y-98047619D01*
X130358095Y-98000000D01*
X130262857Y-97952380D01*
X130024761Y-97952380D01*
X129881904Y-98000000D01*
X129548571Y-97952380D02*
X129310476Y-98952380D01*
X129120000Y-98238095D01*
X128929523Y-98952380D01*
X128691428Y-97952380D01*
X127786666Y-98952380D02*
X128358095Y-98952380D01*
X128072380Y-98952380D02*
X128072380Y-97952380D01*
X128167619Y-98095238D01*
X128262857Y-98190476D01*
X128358095Y-98238095D01*
X145308095Y-97162380D02*
X145308095Y-96162380D01*
X144927142Y-96162380D01*
X144831904Y-96210000D01*
X144784285Y-96257619D01*
X144736666Y-96352857D01*
X144736666Y-96495714D01*
X144784285Y-96590952D01*
X144831904Y-96638571D01*
X144927142Y-96686190D01*
X145308095Y-96686190D01*
X143784285Y-97162380D02*
X144355714Y-97162380D01*
X144070000Y-97162380D02*
X144070000Y-96162380D01*
X144165238Y-96305238D01*
X144260476Y-96400476D01*
X144355714Y-96448095D01*
X153125000Y-105679285D02*
X153375000Y-105322142D01*
X153553571Y-105679285D02*
X153553571Y-104929285D01*
X153267857Y-104929285D01*
X153196428Y-104965000D01*
X153160714Y-105000714D01*
X153125000Y-105072142D01*
X153125000Y-105179285D01*
X153160714Y-105250714D01*
X153196428Y-105286428D01*
X153267857Y-105322142D01*
X153553571Y-105322142D01*
X152839285Y-105000714D02*
X152803571Y-104965000D01*
X152732142Y-104929285D01*
X152553571Y-104929285D01*
X152482142Y-104965000D01*
X152446428Y-105000714D01*
X152410714Y-105072142D01*
X152410714Y-105143571D01*
X152446428Y-105250714D01*
X152875000Y-105679285D01*
X152410714Y-105679285D01*
X148955000Y-104909285D02*
X149205000Y-104552142D01*
X149383571Y-104909285D02*
X149383571Y-104159285D01*
X149097857Y-104159285D01*
X149026428Y-104195000D01*
X148990714Y-104230714D01*
X148955000Y-104302142D01*
X148955000Y-104409285D01*
X148990714Y-104480714D01*
X149026428Y-104516428D01*
X149097857Y-104552142D01*
X149383571Y-104552142D01*
X148312142Y-104409285D02*
X148312142Y-104909285D01*
X148490714Y-104123571D02*
X148669285Y-104659285D01*
X148205000Y-104659285D01*
D11*
X150967258Y-106487500D02*
X150492742Y-106487500D01*
X150967258Y-107532500D02*
X150492742Y-107532500D01*
X146722742Y-107552500D02*
X147197258Y-107552500D01*
X146722742Y-106507500D02*
X147197258Y-106507500D01*
X132165000Y-105985000D02*
X132715000Y-105435000D01*
X131615000Y-105435000D02*
X132165000Y-105985000D01*
X126030000Y-106040000D02*
X126580000Y-105490000D01*
X125480000Y-105490000D02*
X126030000Y-106040000D01*
X137989420Y-106300000D02*
X138270580Y-106300000D01*
X137989420Y-107320000D02*
X138270580Y-107320000D01*
X142435580Y-104810000D02*
X142154420Y-104810000D01*
X142435580Y-105830000D02*
X142154420Y-105830000D01*
X142465580Y-107540000D02*
X142184420Y-107540000D01*
X142465580Y-106520000D02*
X142184420Y-106520000D01*
X126075000Y-98235000D02*
X125525000Y-98785000D01*
X132760000Y-98730000D02*
X132210000Y-98180000D01*
X126625000Y-98785000D02*
X126075000Y-98235000D01*
X132210000Y-98180000D02*
X131660000Y-98730000D01*
D12*
X137821354Y-96668147D02*
G75*
G03*
X137821354Y-96668147I-92195J0D01*
G01*
D11*
X150977258Y-104807500D02*
X150502742Y-104807500D01*
X150977258Y-105852500D02*
X150502742Y-105852500D01*
X147177258Y-104807500D02*
X146702742Y-104807500D01*
X147177258Y-105852500D02*
X146702742Y-105852500D01*
%LPC*%
D13*
X134300000Y-95310000D02*
X136090000Y-95310000D01*
X136090000Y-95310000D02*
X136090000Y-99720000D01*
X136090000Y-99720000D02*
X134300000Y-99720000D01*
X134300000Y-99720000D02*
X134300000Y-95310000D01*
G36*
X134300000Y-95310000D02*
G01*
X136090000Y-95310000D01*
X136090000Y-99720000D01*
X134300000Y-99720000D01*
X134300000Y-95310000D01*
G37*
D14*
X151555000Y-107010000D03*
X149905000Y-107010000D03*
D15*
X146135000Y-107030000D03*
X147785000Y-107030000D03*
D16*
X131120000Y-104470000D03*
X129120000Y-104470000D03*
X127120000Y-104470000D03*
X131120000Y-106970000D03*
X129120000Y-106970000D03*
X127120000Y-106970000D03*
D17*
X134120000Y-105720000D03*
X124120000Y-105720000D03*
D18*
X137355000Y-106810000D03*
X138905000Y-106810000D03*
D19*
X151731634Y-110398008D03*
D20*
X149191634Y-110398008D03*
X146651634Y-110398008D03*
X131411634Y-110398008D03*
X128871634Y-110398008D03*
X139031634Y-110398008D03*
X136491634Y-110398008D03*
X126331634Y-110398008D03*
X144111634Y-110398008D03*
X133951634Y-110398008D03*
X141571634Y-110398008D03*
D21*
X143070000Y-105320000D03*
X141520000Y-105320000D03*
X143100000Y-107030000D03*
X141550000Y-107030000D03*
D22*
X127120000Y-99750000D03*
X129120000Y-99750000D03*
X131120000Y-99750000D03*
X127120000Y-97250000D03*
X129120000Y-97250000D03*
X131120000Y-97250000D03*
D23*
X124120000Y-98500000D03*
X134120000Y-98500000D03*
D24*
X137746684Y-98103008D03*
D25*
X138726684Y-100703008D03*
X139716684Y-98103008D03*
X140696684Y-100703008D03*
X141686684Y-98103008D03*
X142666684Y-100703008D03*
X143656684Y-98103008D03*
X144636684Y-100703008D03*
X145626684Y-98103008D03*
X146606684Y-100703008D03*
X147596684Y-98103008D03*
X148576684Y-100703008D03*
X149566684Y-98103008D03*
X150546684Y-100703008D03*
X151536684Y-98103008D03*
X152516684Y-100703008D03*
D14*
X151565000Y-105330000D03*
X149915000Y-105330000D03*
X147765000Y-105330000D03*
X146115000Y-105330000D03*
M02*
