M48
; DRILL file {KiCad (6.0.1-0)} date Thursday, 24 February 2022 at 13:14:36
; FORMAT={-:-/ absolute / inch / decimal}
; #@! TF.CreationDate,2022-02-24T13:14:36-05:00
; #@! TF.GenerationSoftware,Kicad,Pcbnew,(6.0.1-0)
; #@! TF.FileFunction,MixedPlating,1,2
FMAT,2
INCH
; #@! TA.AperFunction,Plated,PTH,ViaDrill
T1C0.0118
; #@! TA.AperFunction,Plated,PTH,ComponentDrill
T2C0.0217
; #@! TA.AperFunction,Plated,PTH,ComponentDrill
T3C0.0295
; #@! TA.AperFunction,Plated,PTH,ComponentDrill
T4C0.0394
%
G90
G05
T1
X5.0228Y-3.9732
X5.253Y-3.9478
X5.2677Y-4.0167
X5.2736Y-4.06
X5.3071Y-4.0138
X5.4043Y-4.1965
X5.4577Y-4.1594
X5.4892Y-4.0553
X5.5039Y-4.1138
X5.5197Y-4.1929
X5.548Y-4.0551
X5.6693Y-4.1469
X5.6697Y-4.2138
X5.6941Y-4.0563
X5.6988Y-4.1803
X6.0244Y-3.8154
X6.0358Y-4.2976
T4
X4.9737Y-4.3464
X5.0737Y-4.3464
X5.1737Y-4.3464
X5.2737Y-4.3464
X5.3737Y-4.3464
X5.4737Y-4.3464
X5.5737Y-4.3464
X5.6737Y-4.3464
X5.7737Y-4.3464
X5.8737Y-4.3464
X5.9737Y-4.3464
T2
G00X5.0018Y-3.8287
M15
G01X5.0077Y-3.8287
M16
G05
G00X5.0018Y-3.9272
M15
G01X5.0077Y-3.9272
M16
G05
G00X5.0077Y-4.113
M15
G01X5.0018Y-4.113
M16
G05
G00X5.0077Y-4.2114
M15
G01X5.0018Y-4.2114
M16
G05
G00X5.0805Y-3.8287
M15
G01X5.0864Y-3.8287
M16
G05
G00X5.0805Y-3.9272
M15
G01X5.0864Y-3.9272
M16
G05
G00X5.0864Y-4.113
M15
G01X5.0805Y-4.113
M16
G05
G00X5.0864Y-4.2114
M15
G01X5.0805Y-4.2114
M16
G05
G00X5.1593Y-3.8287
M15
G01X5.1652Y-3.8287
M16
G05
G00X5.1593Y-3.9272
M15
G01X5.1652Y-3.9272
M16
G05
G00X5.1652Y-4.113
M15
G01X5.1593Y-4.113
M16
G05
G00X5.1652Y-4.2114
M15
G01X5.1593Y-4.2114
M16
G05
G00X5.4231Y-3.8751
M15
G01X5.4231Y-3.8495
M16
G05
G00X5.4617Y-3.9775
M15
G01X5.4617Y-3.9519
M16
G05
G00X5.5007Y-3.8751
M15
G01X5.5007Y-3.8495
M16
G05
G00X5.5392Y-3.9775
M15
G01X5.5392Y-3.9519
M16
G05
G00X5.5782Y-3.8751
M15
G01X5.5782Y-3.8495
M16
G05
G00X5.6168Y-3.9775
M15
G01X5.6168Y-3.9519
M16
G05
G00X5.6558Y-3.8751
M15
G01X5.6558Y-3.8495
M16
G05
G00X5.6944Y-3.9775
M15
G01X5.6944Y-3.9519
M16
G05
G00X5.7333Y-3.8751
M15
G01X5.7333Y-3.8495
M16
G05
G00X5.7719Y-3.9775
M15
G01X5.7719Y-3.9519
M16
G05
G00X5.8109Y-3.8751
M15
G01X5.8109Y-3.8495
M16
G05
G00X5.8495Y-3.9775
M15
G01X5.8495Y-3.9519
M16
G05
G00X5.8885Y-3.8751
M15
G01X5.8885Y-3.8495
M16
G05
G00X5.927Y-3.9775
M15
G01X5.927Y-3.9519
M16
G05
G00X5.966Y-3.8751
M15
G01X5.966Y-3.8495
M16
G05
G00X6.0046Y-3.9775
M15
G01X6.0046Y-3.9519
M16
G05
T3
G00X4.8866Y-3.8927
M15
G01X4.8866Y-3.8632
M16
G05
G00X4.8866Y-4.1474
M15
G01X4.8866Y-4.177
M16
G05
G00X5.2803Y-3.8927
M15
G01X5.2803Y-3.8632
M16
G05
G00X5.2803Y-4.1474
M15
G01X5.2803Y-4.177
M16
G05
T0
M30
