G04 #@! TF.GenerationSoftware,KiCad,Pcbnew,(6.0.1-0)*
G04 #@! TF.CreationDate,2022-02-24T13:14:34-05:00*
G04 #@! TF.ProjectId,DC2VGA,44433256-4741-42e6-9b69-6361645f7063,1*
G04 #@! TF.SameCoordinates,Original*
G04 #@! TF.FileFunction,Legend,Top*
G04 #@! TF.FilePolarity,Positive*
%FSLAX46Y46*%
G04 Gerber Fmt 4.6, Leading zero omitted, Abs format (unit mm)*
G04 Created by KiCad (PCBNEW (6.0.1-0)) date 2022-02-24 13:14:34*
%MOMM*%
%LPD*%
G01*
G04 APERTURE LIST*
G04 Aperture macros list*
%AMRoundRect*
0 Rectangle with rounded corners*
0 $1 Rounding radius*
0 $2 $3 $4 $5 $6 $7 $8 $9 X,Y pos of 4 corners*
0 Add a 4 corners polygon primitive as box body*
4,1,4,$2,$3,$4,$5,$6,$7,$8,$9,$2,$3,0*
0 Add four circle primitives for the rounded corners*
1,1,$1+$1,$2,$3*
1,1,$1+$1,$4,$5*
1,1,$1+$1,$6,$7*
1,1,$1+$1,$8,$9*
0 Add four rect primitives between the rounded corners*
20,1,$1+$1,$2,$3,$4,$5,0*
20,1,$1+$1,$4,$5,$6,$7,0*
20,1,$1+$1,$6,$7,$8,$9,0*
20,1,$1+$1,$8,$9,$2,$3,0*%
G04 Aperture macros list end*
%ADD10C,0.150000*%
%ADD11C,0.125000*%
%ADD12C,0.187500*%
%ADD13C,0.127000*%
%ADD14C,0.120000*%
%ADD15C,0.300000*%
%ADD16C,0.100000*%
%ADD17R,1.820000X1.200000*%
%ADD18RoundRect,0.200000X0.200000X0.275000X-0.200000X0.275000X-0.200000X-0.275000X0.200000X-0.275000X0*%
%ADD19R,1.353299X0.354800*%
%ADD20RoundRect,0.262500X0.337500X0.262500X-0.337500X0.262500X-0.337500X-0.262500X0.337500X-0.262500X0*%
%ADD21RoundRect,0.312500X-0.312500X-0.687500X0.312500X-0.687500X0.312500X0.687500X-0.312500X0.687500X0*%
%ADD22R,1.524000X1.524000*%
%ADD23RoundRect,0.381000X0.381000X0.381000X-0.381000X0.381000X-0.381000X-0.381000X0.381000X-0.381000X0*%
%ADD24RoundRect,0.262500X-0.337500X-0.262500X0.337500X-0.262500X0.337500X0.262500X-0.337500X0.262500X0*%
%ADD25RoundRect,0.312500X0.312500X0.687500X-0.312500X0.687500X-0.312500X-0.687500X0.312500X-0.687500X0*%
%ADD26R,1.200000X1.524000*%
%ADD27RoundRect,0.300000X0.300000X0.462000X-0.300000X0.462000X-0.300000X-0.462000X0.300000X-0.462000X0*%
G04 APERTURE END LIST*
D10*
X126070238Y-107927380D02*
X126070238Y-108736904D01*
X126117857Y-108832142D01*
X126165476Y-108879761D01*
X126260714Y-108927380D01*
X126451190Y-108927380D01*
X126546428Y-108879761D01*
X126594047Y-108832142D01*
X126641666Y-108736904D01*
X126641666Y-107927380D01*
X127070238Y-108879761D02*
X127165476Y-108927380D01*
X127355952Y-108927380D01*
X127451190Y-108879761D01*
X127498809Y-108784523D01*
X127498809Y-108736904D01*
X127451190Y-108641666D01*
X127355952Y-108594047D01*
X127213095Y-108594047D01*
X127117857Y-108546428D01*
X127070238Y-108451190D01*
X127070238Y-108403571D01*
X127117857Y-108308333D01*
X127213095Y-108260714D01*
X127355952Y-108260714D01*
X127451190Y-108308333D01*
X128308333Y-108879761D02*
X128213095Y-108927380D01*
X128022619Y-108927380D01*
X127927380Y-108879761D01*
X127879761Y-108784523D01*
X127879761Y-108403571D01*
X127927380Y-108308333D01*
X128022619Y-108260714D01*
X128213095Y-108260714D01*
X128308333Y-108308333D01*
X128355952Y-108403571D01*
X128355952Y-108498809D01*
X127879761Y-108594047D01*
X128784523Y-108927380D02*
X128784523Y-108260714D01*
X128784523Y-108451190D02*
X128832142Y-108355952D01*
X128879761Y-108308333D01*
X128975000Y-108260714D01*
X129070238Y-108260714D01*
X130117857Y-108879761D02*
X130260714Y-108927380D01*
X130498809Y-108927380D01*
X130594047Y-108879761D01*
X130641666Y-108832142D01*
X130689285Y-108736904D01*
X130689285Y-108641666D01*
X130641666Y-108546428D01*
X130594047Y-108498809D01*
X130498809Y-108451190D01*
X130308333Y-108403571D01*
X130213095Y-108355952D01*
X130165476Y-108308333D01*
X130117857Y-108213095D01*
X130117857Y-108117857D01*
X130165476Y-108022619D01*
X130213095Y-107975000D01*
X130308333Y-107927380D01*
X130546428Y-107927380D01*
X130689285Y-107975000D01*
X131117857Y-108927380D02*
X131117857Y-108260714D01*
X131117857Y-107927380D02*
X131070238Y-107975000D01*
X131117857Y-108022619D01*
X131165476Y-107975000D01*
X131117857Y-107927380D01*
X131117857Y-108022619D01*
X132022619Y-108927380D02*
X132022619Y-107927380D01*
X132022619Y-108879761D02*
X131927380Y-108927380D01*
X131736904Y-108927380D01*
X131641666Y-108879761D01*
X131594047Y-108832142D01*
X131546428Y-108736904D01*
X131546428Y-108451190D01*
X131594047Y-108355952D01*
X131641666Y-108308333D01*
X131736904Y-108260714D01*
X131927380Y-108260714D01*
X132022619Y-108308333D01*
X132879761Y-108879761D02*
X132784523Y-108927380D01*
X132594047Y-108927380D01*
X132498809Y-108879761D01*
X132451190Y-108784523D01*
X132451190Y-108403571D01*
X132498809Y-108308333D01*
X132594047Y-108260714D01*
X132784523Y-108260714D01*
X132879761Y-108308333D01*
X132927380Y-108403571D01*
X132927380Y-108498809D01*
X132451190Y-108594047D01*
D11*
X125742857Y-105396428D02*
X125742857Y-105825000D01*
X125714285Y-105910714D01*
X125657142Y-105967857D01*
X125571428Y-105996428D01*
X125514285Y-105996428D01*
X126257142Y-105967857D02*
X126200000Y-105996428D01*
X126085714Y-105996428D01*
X126028571Y-105967857D01*
X126000000Y-105910714D01*
X126000000Y-105682142D01*
X126028571Y-105625000D01*
X126085714Y-105596428D01*
X126200000Y-105596428D01*
X126257142Y-105625000D01*
X126285714Y-105682142D01*
X126285714Y-105739285D01*
X126000000Y-105796428D01*
X126457142Y-105596428D02*
X126685714Y-105596428D01*
X126542857Y-105996428D02*
X126542857Y-105482142D01*
X126571428Y-105425000D01*
X126628571Y-105396428D01*
X126685714Y-105396428D01*
X126800000Y-105596428D02*
X127028571Y-105596428D01*
X126885714Y-105996428D02*
X126885714Y-105482142D01*
X126914285Y-105425000D01*
X126971428Y-105396428D01*
X127028571Y-105396428D01*
X128028571Y-105939285D02*
X128000000Y-105967857D01*
X127914285Y-105996428D01*
X127857142Y-105996428D01*
X127771428Y-105967857D01*
X127714285Y-105910714D01*
X127685714Y-105853571D01*
X127657142Y-105739285D01*
X127657142Y-105653571D01*
X127685714Y-105539285D01*
X127714285Y-105482142D01*
X127771428Y-105425000D01*
X127857142Y-105396428D01*
X127914285Y-105396428D01*
X128000000Y-105425000D01*
X128028571Y-105453571D01*
X128285714Y-105996428D02*
X128285714Y-105396428D01*
X128542857Y-105996428D02*
X128542857Y-105682142D01*
X128514285Y-105625000D01*
X128457142Y-105596428D01*
X128371428Y-105596428D01*
X128314285Y-105625000D01*
X128285714Y-105653571D01*
X129057142Y-105967857D02*
X129000000Y-105996428D01*
X128885714Y-105996428D01*
X128828571Y-105967857D01*
X128800000Y-105910714D01*
X128800000Y-105682142D01*
X128828571Y-105625000D01*
X128885714Y-105596428D01*
X129000000Y-105596428D01*
X129057142Y-105625000D01*
X129085714Y-105682142D01*
X129085714Y-105739285D01*
X128800000Y-105796428D01*
X129342857Y-105596428D02*
X129342857Y-105996428D01*
X129342857Y-105653571D02*
X129371428Y-105625000D01*
X129428571Y-105596428D01*
X129514285Y-105596428D01*
X129571428Y-105625000D01*
X129600000Y-105682142D01*
X129600000Y-105996428D01*
X129914285Y-105967857D02*
X129914285Y-105996428D01*
X129885714Y-106053571D01*
X129857142Y-106082142D01*
X130600000Y-105453571D02*
X130628571Y-105425000D01*
X130685714Y-105396428D01*
X130828571Y-105396428D01*
X130885714Y-105425000D01*
X130914285Y-105453571D01*
X130942857Y-105510714D01*
X130942857Y-105567857D01*
X130914285Y-105653571D01*
X130571428Y-105996428D01*
X130942857Y-105996428D01*
X131314285Y-105396428D02*
X131371428Y-105396428D01*
X131428571Y-105425000D01*
X131457142Y-105453571D01*
X131485714Y-105510714D01*
X131514285Y-105625000D01*
X131514285Y-105767857D01*
X131485714Y-105882142D01*
X131457142Y-105939285D01*
X131428571Y-105967857D01*
X131371428Y-105996428D01*
X131314285Y-105996428D01*
X131257142Y-105967857D01*
X131228571Y-105939285D01*
X131200000Y-105882142D01*
X131171428Y-105767857D01*
X131171428Y-105625000D01*
X131200000Y-105510714D01*
X131228571Y-105453571D01*
X131257142Y-105425000D01*
X131314285Y-105396428D01*
X131742857Y-105453571D02*
X131771428Y-105425000D01*
X131828571Y-105396428D01*
X131971428Y-105396428D01*
X132028571Y-105425000D01*
X132057142Y-105453571D01*
X132085714Y-105510714D01*
X132085714Y-105567857D01*
X132057142Y-105653571D01*
X131714285Y-105996428D01*
X132085714Y-105996428D01*
X132314285Y-105453571D02*
X132342857Y-105425000D01*
X132400000Y-105396428D01*
X132542857Y-105396428D01*
X132600000Y-105425000D01*
X132628571Y-105453571D01*
X132657142Y-105510714D01*
X132657142Y-105567857D01*
X132628571Y-105653571D01*
X132285714Y-105996428D01*
X132657142Y-105996428D01*
D12*
X125650000Y-98864285D02*
X125650000Y-98114285D01*
X125828571Y-98114285D01*
X125935714Y-98150000D01*
X126007142Y-98221428D01*
X126042857Y-98292857D01*
X126078571Y-98435714D01*
X126078571Y-98542857D01*
X126042857Y-98685714D01*
X126007142Y-98757142D01*
X125935714Y-98828571D01*
X125828571Y-98864285D01*
X125650000Y-98864285D01*
X126828571Y-98792857D02*
X126792857Y-98828571D01*
X126685714Y-98864285D01*
X126614285Y-98864285D01*
X126507142Y-98828571D01*
X126435714Y-98757142D01*
X126400000Y-98685714D01*
X126364285Y-98542857D01*
X126364285Y-98435714D01*
X126400000Y-98292857D01*
X126435714Y-98221428D01*
X126507142Y-98150000D01*
X126614285Y-98114285D01*
X126685714Y-98114285D01*
X126792857Y-98150000D01*
X126828571Y-98185714D01*
X127114285Y-98185714D02*
X127150000Y-98150000D01*
X127221428Y-98114285D01*
X127400000Y-98114285D01*
X127471428Y-98150000D01*
X127507142Y-98185714D01*
X127542857Y-98257142D01*
X127542857Y-98328571D01*
X127507142Y-98435714D01*
X127078571Y-98864285D01*
X127542857Y-98864285D01*
X127757142Y-98114285D02*
X128007142Y-98864285D01*
X128257142Y-98114285D01*
X128900000Y-98150000D02*
X128828571Y-98114285D01*
X128721428Y-98114285D01*
X128614285Y-98150000D01*
X128542857Y-98221428D01*
X128507142Y-98292857D01*
X128471428Y-98435714D01*
X128471428Y-98542857D01*
X128507142Y-98685714D01*
X128542857Y-98757142D01*
X128614285Y-98828571D01*
X128721428Y-98864285D01*
X128792857Y-98864285D01*
X128900000Y-98828571D01*
X128935714Y-98792857D01*
X128935714Y-98542857D01*
X128792857Y-98542857D01*
X129221428Y-98650000D02*
X129578571Y-98650000D01*
X129150000Y-98864285D02*
X129400000Y-98114285D01*
X129650000Y-98864285D01*
X130364285Y-98114285D02*
X130614285Y-98864285D01*
X130864285Y-98114285D01*
X131400000Y-98828571D02*
X131328571Y-98864285D01*
X131185714Y-98864285D01*
X131114285Y-98828571D01*
X131078571Y-98757142D01*
X131078571Y-98471428D01*
X131114285Y-98400000D01*
X131185714Y-98364285D01*
X131328571Y-98364285D01*
X131400000Y-98400000D01*
X131435714Y-98471428D01*
X131435714Y-98542857D01*
X131078571Y-98614285D01*
X131757142Y-98864285D02*
X131757142Y-98364285D01*
X131757142Y-98507142D02*
X131792857Y-98435714D01*
X131828571Y-98400000D01*
X131900000Y-98364285D01*
X131971428Y-98364285D01*
X132114285Y-98364285D02*
X132400000Y-98364285D01*
X132221428Y-98114285D02*
X132221428Y-98757142D01*
X132257142Y-98828571D01*
X132328571Y-98864285D01*
X132400000Y-98864285D01*
X132650000Y-98792857D02*
X132685714Y-98828571D01*
X132650000Y-98864285D01*
X132614285Y-98828571D01*
X132650000Y-98792857D01*
X132650000Y-98864285D01*
D10*
X149085000Y-105247857D02*
X149049285Y-105283571D01*
X148942142Y-105319285D01*
X148870714Y-105319285D01*
X148763571Y-105283571D01*
X148692142Y-105212142D01*
X148656428Y-105140714D01*
X148620714Y-104997857D01*
X148620714Y-104890714D01*
X148656428Y-104747857D01*
X148692142Y-104676428D01*
X148763571Y-104605000D01*
X148870714Y-104569285D01*
X148942142Y-104569285D01*
X149049285Y-104605000D01*
X149085000Y-104640714D01*
X149370714Y-104640714D02*
X149406428Y-104605000D01*
X149477857Y-104569285D01*
X149656428Y-104569285D01*
X149727857Y-104605000D01*
X149763571Y-104640714D01*
X149799285Y-104712142D01*
X149799285Y-104783571D01*
X149763571Y-104890714D01*
X149335000Y-105319285D01*
X149799285Y-105319285D01*
X125435000Y-103659285D02*
X125185000Y-103302142D01*
X125006428Y-103659285D02*
X125006428Y-102909285D01*
X125292142Y-102909285D01*
X125363571Y-102945000D01*
X125399285Y-102980714D01*
X125435000Y-103052142D01*
X125435000Y-103159285D01*
X125399285Y-103230714D01*
X125363571Y-103266428D01*
X125292142Y-103302142D01*
X125006428Y-103302142D01*
X126113571Y-102909285D02*
X125756428Y-102909285D01*
X125720714Y-103266428D01*
X125756428Y-103230714D01*
X125827857Y-103195000D01*
X126006428Y-103195000D01*
X126077857Y-103230714D01*
X126113571Y-103266428D01*
X126149285Y-103337857D01*
X126149285Y-103516428D01*
X126113571Y-103587857D01*
X126077857Y-103623571D01*
X126006428Y-103659285D01*
X125827857Y-103659285D01*
X125756428Y-103623571D01*
X125720714Y-103587857D01*
X152035000Y-105247857D02*
X151999285Y-105283571D01*
X151892142Y-105319285D01*
X151820714Y-105319285D01*
X151713571Y-105283571D01*
X151642142Y-105212142D01*
X151606428Y-105140714D01*
X151570714Y-104997857D01*
X151570714Y-104890714D01*
X151606428Y-104747857D01*
X151642142Y-104676428D01*
X151713571Y-104605000D01*
X151820714Y-104569285D01*
X151892142Y-104569285D01*
X151999285Y-104605000D01*
X152035000Y-104640714D01*
X152749285Y-105319285D02*
X152320714Y-105319285D01*
X152535000Y-105319285D02*
X152535000Y-104569285D01*
X152463571Y-104676428D01*
X152392142Y-104747857D01*
X152320714Y-104783571D01*
X130135000Y-103659285D02*
X129885000Y-103302142D01*
X129706428Y-103659285D02*
X129706428Y-102909285D01*
X129992142Y-102909285D01*
X130063571Y-102945000D01*
X130099285Y-102980714D01*
X130135000Y-103052142D01*
X130135000Y-103159285D01*
X130099285Y-103230714D01*
X130063571Y-103266428D01*
X129992142Y-103302142D01*
X129706428Y-103302142D01*
X130777857Y-102909285D02*
X130635000Y-102909285D01*
X130563571Y-102945000D01*
X130527857Y-102980714D01*
X130456428Y-103087857D01*
X130420714Y-103230714D01*
X130420714Y-103516428D01*
X130456428Y-103587857D01*
X130492142Y-103623571D01*
X130563571Y-103659285D01*
X130706428Y-103659285D01*
X130777857Y-103623571D01*
X130813571Y-103587857D01*
X130849285Y-103516428D01*
X130849285Y-103337857D01*
X130813571Y-103266428D01*
X130777857Y-103230714D01*
X130706428Y-103195000D01*
X130563571Y-103195000D01*
X130492142Y-103230714D01*
X130456428Y-103266428D01*
X130420714Y-103337857D01*
X138998095Y-104782380D02*
X138998095Y-105591904D01*
X139045714Y-105687142D01*
X139093333Y-105734761D01*
X139188571Y-105782380D01*
X139379047Y-105782380D01*
X139474285Y-105734761D01*
X139521904Y-105687142D01*
X139569523Y-105591904D01*
X139569523Y-104782380D01*
X140569523Y-105782380D02*
X139998095Y-105782380D01*
X140283809Y-105782380D02*
X140283809Y-104782380D01*
X140188571Y-104925238D01*
X140093333Y-105020476D01*
X139998095Y-105068095D01*
X142837750Y-107870180D02*
X142837750Y-108108276D01*
X142599654Y-108013038D02*
X142837750Y-108108276D01*
X143075845Y-108013038D01*
X142694892Y-108298752D02*
X142837750Y-108108276D01*
X142980607Y-108298752D01*
X142837750Y-107870180D02*
X142837750Y-108108276D01*
X142599654Y-108013038D02*
X142837750Y-108108276D01*
X143075845Y-108013038D01*
X142694892Y-108298752D02*
X142837750Y-108108276D01*
X142980607Y-108298752D01*
X146175000Y-105257857D02*
X146139285Y-105293571D01*
X146032142Y-105329285D01*
X145960714Y-105329285D01*
X145853571Y-105293571D01*
X145782142Y-105222142D01*
X145746428Y-105150714D01*
X145710714Y-105007857D01*
X145710714Y-104900714D01*
X145746428Y-104757857D01*
X145782142Y-104686428D01*
X145853571Y-104615000D01*
X145960714Y-104579285D01*
X146032142Y-104579285D01*
X146139285Y-104615000D01*
X146175000Y-104650714D01*
X146425000Y-104579285D02*
X146889285Y-104579285D01*
X146639285Y-104865000D01*
X146746428Y-104865000D01*
X146817857Y-104900714D01*
X146853571Y-104936428D01*
X146889285Y-105007857D01*
X146889285Y-105186428D01*
X146853571Y-105257857D01*
X146817857Y-105293571D01*
X146746428Y-105329285D01*
X146532142Y-105329285D01*
X146460714Y-105293571D01*
X146425000Y-105257857D01*
D13*
X150120000Y-104390000D02*
X150120000Y-105470000D01*
X148320000Y-104390000D02*
X148320000Y-105470000D01*
D14*
X126977258Y-102562500D02*
X126502742Y-102562500D01*
X126977258Y-101517500D02*
X126502742Y-101517500D01*
D13*
X151250000Y-104400000D02*
X151250000Y-105480000D01*
X153050000Y-104400000D02*
X153050000Y-105480000D01*
D14*
X132117258Y-101537500D02*
X131642742Y-101537500D01*
X132117258Y-102582500D02*
X131642742Y-102582500D01*
X142034100Y-102290300D02*
X137385900Y-102290300D01*
X137385900Y-107649700D02*
X142034100Y-107649700D01*
X137385900Y-107430139D02*
X137385900Y-107649700D01*
X142034100Y-107649700D02*
X142034100Y-107430141D01*
X142034100Y-102509861D02*
X142034100Y-102290300D01*
X137385900Y-102290300D02*
X137385900Y-102509859D01*
D15*
X141173852Y-106720000D02*
G75*
G03*
X141173852Y-106720000I-53852J0D01*
G01*
D13*
X147180000Y-104400000D02*
X147180000Y-105480000D01*
X145380000Y-104400000D02*
X145380000Y-105480000D01*
%LPC*%
D16*
X134300000Y-95310000D02*
X136090000Y-95310000D01*
X136090000Y-95310000D02*
X136090000Y-99720000D01*
X136090000Y-99720000D02*
X134300000Y-99720000D01*
X134300000Y-99720000D02*
X134300000Y-95310000D01*
G36*
X134300000Y-95310000D02*
G01*
X136090000Y-95310000D01*
X136090000Y-99720000D01*
X134300000Y-99720000D01*
X134300000Y-95310000D01*
G37*
D17*
X149220000Y-103470000D03*
X149220000Y-106390000D03*
D18*
X127565000Y-102040000D03*
X125915000Y-102040000D03*
D17*
X152150000Y-103480000D03*
X152150000Y-106400000D03*
D18*
X132705000Y-102060000D03*
X131055000Y-102060000D03*
D19*
X142583748Y-106920001D03*
X142583748Y-106270000D03*
X142583748Y-105619999D03*
X142583748Y-104970000D03*
X142583748Y-104320001D03*
X142583748Y-103670000D03*
X142583748Y-103020001D03*
X136836252Y-103019999D03*
X136836252Y-103670000D03*
X136836252Y-104319999D03*
X136836252Y-104970000D03*
X136836252Y-105619999D03*
X136836252Y-106270000D03*
X136836252Y-106919999D03*
D17*
X146280000Y-103480000D03*
X146280000Y-106400000D03*
D20*
X131120000Y-104470000D03*
X129120000Y-104470000D03*
X127120000Y-104470000D03*
X131120000Y-106970000D03*
X129120000Y-106970000D03*
X127120000Y-106970000D03*
D21*
X134120000Y-105720000D03*
X124120000Y-105720000D03*
D22*
X151731634Y-110398008D03*
D23*
X149191634Y-110398008D03*
X146651634Y-110398008D03*
X131411634Y-110398008D03*
X128871634Y-110398008D03*
X139031634Y-110398008D03*
X136491634Y-110398008D03*
X126331634Y-110398008D03*
X144111634Y-110398008D03*
X133951634Y-110398008D03*
X141571634Y-110398008D03*
D24*
X127120000Y-99750000D03*
X129120000Y-99750000D03*
X131120000Y-99750000D03*
X127120000Y-97250000D03*
X129120000Y-97250000D03*
X131120000Y-97250000D03*
D25*
X124120000Y-98500000D03*
X134120000Y-98500000D03*
D26*
X137746684Y-98103008D03*
D27*
X138726684Y-100703008D03*
X139716684Y-98103008D03*
X140696684Y-100703008D03*
X141686684Y-98103008D03*
X142666684Y-100703008D03*
X143656684Y-98103008D03*
X144636684Y-100703008D03*
X145626684Y-98103008D03*
X146606684Y-100703008D03*
X147596684Y-98103008D03*
X148576684Y-100703008D03*
X149566684Y-98103008D03*
X150546684Y-100703008D03*
X151536684Y-98103008D03*
X152516684Y-100703008D03*
M02*
