G04 #@! TF.GenerationSoftware,KiCad,Pcbnew,(6.0.1-0)*
G04 #@! TF.CreationDate,2022-02-24T13:14:33-05:00*
G04 #@! TF.ProjectId,DC2VGA,44433256-4741-42e6-9b69-6361645f7063,1*
G04 #@! TF.SameCoordinates,Original*
G04 #@! TF.FileFunction,Copper,L1,Top*
G04 #@! TF.FilePolarity,Positive*
%FSLAX46Y46*%
G04 Gerber Fmt 4.6, Leading zero omitted, Abs format (unit mm)*
G04 Created by KiCad (PCBNEW (6.0.1-0)) date 2022-02-24 13:14:33*
%MOMM*%
%LPD*%
G01*
G04 APERTURE LIST*
G04 Aperture macros list*
%AMRoundRect*
0 Rectangle with rounded corners*
0 $1 Rounding radius*
0 $2 $3 $4 $5 $6 $7 $8 $9 X,Y pos of 4 corners*
0 Add a 4 corners polygon primitive as box body*
4,1,4,$2,$3,$4,$5,$6,$7,$8,$9,$2,$3,0*
0 Add four circle primitives for the rounded corners*
1,1,$1+$1,$2,$3*
1,1,$1+$1,$4,$5*
1,1,$1+$1,$6,$7*
1,1,$1+$1,$8,$9*
0 Add four rect primitives between the rounded corners*
20,1,$1+$1,$2,$3,$4,$5,0*
20,1,$1+$1,$4,$5,$6,$7,0*
20,1,$1+$1,$6,$7,$8,$9,0*
20,1,$1+$1,$8,$9,$2,$3,0*%
G04 Aperture macros list end*
G04 #@! TA.AperFunction,SMDPad,CuDef*
%ADD10R,1.820000X1.200000*%
G04 #@! TD*
G04 #@! TA.AperFunction,SMDPad,CuDef*
%ADD11RoundRect,0.200000X0.200000X0.275000X-0.200000X0.275000X-0.200000X-0.275000X0.200000X-0.275000X0*%
G04 #@! TD*
G04 #@! TA.AperFunction,SMDPad,CuDef*
%ADD12R,1.353299X0.354800*%
G04 #@! TD*
G04 #@! TA.AperFunction,ComponentPad*
%ADD13RoundRect,0.262500X0.337500X0.262500X-0.337500X0.262500X-0.337500X-0.262500X0.337500X-0.262500X0*%
G04 #@! TD*
G04 #@! TA.AperFunction,ComponentPad*
%ADD14RoundRect,0.312500X-0.312500X-0.687500X0.312500X-0.687500X0.312500X0.687500X-0.312500X0.687500X0*%
G04 #@! TD*
G04 #@! TA.AperFunction,ComponentPad*
%ADD15R,1.524000X1.524000*%
G04 #@! TD*
G04 #@! TA.AperFunction,ComponentPad*
%ADD16RoundRect,0.381000X0.381000X0.381000X-0.381000X0.381000X-0.381000X-0.381000X0.381000X-0.381000X0*%
G04 #@! TD*
G04 #@! TA.AperFunction,ComponentPad*
%ADD17RoundRect,0.262500X-0.337500X-0.262500X0.337500X-0.262500X0.337500X0.262500X-0.337500X0.262500X0*%
G04 #@! TD*
G04 #@! TA.AperFunction,ComponentPad*
%ADD18RoundRect,0.312500X0.312500X0.687500X-0.312500X0.687500X-0.312500X-0.687500X0.312500X-0.687500X0*%
G04 #@! TD*
G04 #@! TA.AperFunction,ComponentPad*
%ADD19R,1.200000X1.524000*%
G04 #@! TD*
G04 #@! TA.AperFunction,ComponentPad*
%ADD20RoundRect,0.300000X0.300000X0.462000X-0.300000X0.462000X-0.300000X-0.462000X0.300000X-0.462000X0*%
G04 #@! TD*
G04 #@! TA.AperFunction,ViaPad*
%ADD21C,0.700000*%
G04 #@! TD*
G04 #@! TA.AperFunction,Conductor*
%ADD22C,0.250000*%
G04 #@! TD*
G04 APERTURE END LIST*
D10*
X149220000Y-103470000D03*
X149220000Y-106390000D03*
D11*
X127565000Y-102040000D03*
X125915000Y-102040000D03*
D10*
X152150000Y-103480000D03*
X152150000Y-106400000D03*
D11*
X132705000Y-102060000D03*
X131055000Y-102060000D03*
D12*
X142583748Y-106920001D03*
X142583748Y-106270000D03*
X142583748Y-105619999D03*
X142583748Y-104970000D03*
X142583748Y-104320001D03*
X142583748Y-103670000D03*
X142583748Y-103020001D03*
X136836252Y-103019999D03*
X136836252Y-103670000D03*
X136836252Y-104319999D03*
X136836252Y-104970000D03*
X136836252Y-105619999D03*
X136836252Y-106270000D03*
X136836252Y-106919999D03*
D10*
X146280000Y-103480000D03*
X146280000Y-106400000D03*
D13*
X131120000Y-104470000D03*
X129120000Y-104470000D03*
X127120000Y-104470000D03*
X131120000Y-106970000D03*
X129120000Y-106970000D03*
X127120000Y-106970000D03*
D14*
X134120000Y-105720000D03*
X124120000Y-105720000D03*
D15*
X151731634Y-110398008D03*
D16*
X149191634Y-110398008D03*
X146651634Y-110398008D03*
X131411634Y-110398008D03*
X128871634Y-110398008D03*
X139031634Y-110398008D03*
X136491634Y-110398008D03*
X126331634Y-110398008D03*
X144111634Y-110398008D03*
X133951634Y-110398008D03*
X141571634Y-110398008D03*
D17*
X127120000Y-99750000D03*
X129120000Y-99750000D03*
X131120000Y-99750000D03*
X127120000Y-97250000D03*
X129120000Y-97250000D03*
X131120000Y-97250000D03*
D18*
X124120000Y-98500000D03*
X134120000Y-98500000D03*
D19*
X137746684Y-98103008D03*
D20*
X138726684Y-100703008D03*
X139716684Y-98103008D03*
X140696684Y-100703008D03*
X141686684Y-98103008D03*
X142666684Y-100703008D03*
X143656684Y-98103008D03*
X144636684Y-100703008D03*
X145626684Y-98103008D03*
X146606684Y-100703008D03*
X147596684Y-98103008D03*
X148576684Y-100703008D03*
X149566684Y-98103008D03*
X150546684Y-100703008D03*
X151536684Y-98103008D03*
X152516684Y-100703008D03*
D21*
X137270000Y-106590000D03*
X153310000Y-109160000D03*
X133800000Y-102025000D03*
X153020000Y-96910000D03*
X140920000Y-103000000D03*
X140200000Y-106500000D03*
X144750000Y-106180000D03*
X133950000Y-103125000D03*
X144630000Y-103030000D03*
X139800000Y-104490000D03*
X134800000Y-101950000D03*
X144010000Y-107030000D03*
X133425000Y-100275000D03*
X127580000Y-100920000D03*
X138625000Y-105650000D03*
X139425000Y-103005500D03*
X144000000Y-105330000D03*
D22*
X152516684Y-100703008D02*
X152440000Y-100779692D01*
X152440000Y-103190000D02*
X152150000Y-103480000D01*
X152440000Y-100779692D02*
X152440000Y-103190000D01*
X151536684Y-101623316D02*
X149710000Y-103450000D01*
X149710000Y-103450000D02*
X149220000Y-103450000D01*
X151536684Y-98103008D02*
X151536684Y-101623316D01*
X149280000Y-102160000D02*
X147900000Y-102160000D01*
X150546684Y-100703008D02*
X150546684Y-100893316D01*
X146580000Y-103480000D02*
X146280000Y-103480000D01*
X150546684Y-100893316D02*
X149280000Y-102160000D01*
X147900000Y-102160000D02*
X146580000Y-103480000D01*
X137270000Y-106590000D02*
X137765000Y-106590000D01*
X137765000Y-106590000D02*
X141570000Y-110395000D01*
X141570000Y-110395000D02*
X141570000Y-110400000D01*
X129120000Y-104470000D02*
X130125000Y-105475000D01*
X130125000Y-105475000D02*
X130125000Y-109100000D01*
X130125000Y-109100000D02*
X131425000Y-110400000D01*
X129110000Y-106970000D02*
X129110000Y-110135000D01*
X129110000Y-110135000D02*
X128870000Y-110375000D01*
X133020000Y-101100000D02*
X132500000Y-100580000D01*
X131950000Y-98450000D02*
X130320000Y-98450000D01*
X141583676Y-99620000D02*
X137930000Y-99620000D01*
X132500000Y-99000000D02*
X131950000Y-98450000D01*
X132500000Y-100580000D02*
X132500000Y-99000000D01*
X130320000Y-98450000D02*
X129120000Y-97250000D01*
X137930000Y-99620000D02*
X136450000Y-101100000D01*
X142666684Y-100703008D02*
X141583676Y-99620000D01*
X136450000Y-101100000D02*
X133020000Y-101100000D01*
X143840000Y-103500000D02*
X144750000Y-104410000D01*
X140200000Y-106500000D02*
X140620000Y-106920000D01*
X144750000Y-104410000D02*
X144750000Y-106180000D01*
X143288438Y-102310000D02*
X143840000Y-102861562D01*
X133950000Y-103125000D02*
X135050000Y-103125000D01*
X143840000Y-102861562D02*
X143840000Y-103500000D01*
X140620000Y-106920000D02*
X142580000Y-106920000D01*
X135050000Y-103125000D02*
X135865000Y-102310000D01*
X135865000Y-102310000D02*
X143288438Y-102310000D01*
X134800000Y-101950000D02*
X134950000Y-101800000D01*
X134950000Y-101800000D02*
X143400000Y-101800000D01*
X139800000Y-104490000D02*
X140280000Y-104970000D01*
X140280000Y-104970000D02*
X142590000Y-104970000D01*
X143400000Y-101800000D02*
X144630000Y-103030000D01*
X127120000Y-99750000D02*
X125920000Y-100950000D01*
X125920000Y-100950000D02*
X125920000Y-102040000D01*
X131055000Y-99785000D02*
X131110000Y-99730000D01*
X131055000Y-102060000D02*
X131055000Y-99785000D01*
X129120000Y-99750000D02*
X129120000Y-102470000D01*
X129120000Y-102470000D02*
X131120000Y-104470000D01*
X143730000Y-106270000D02*
X144010000Y-106550000D01*
X142583748Y-106270000D02*
X143730000Y-106270000D01*
X144010000Y-106550000D02*
X144010000Y-107030000D01*
X152150000Y-106400000D02*
X152150000Y-109990000D01*
X152150000Y-109990000D02*
X151740000Y-110400000D01*
X149220000Y-110355000D02*
X149200000Y-110375000D01*
X149220000Y-106390000D02*
X149220000Y-110355000D01*
X146280000Y-106400000D02*
X146280000Y-109980000D01*
X146280000Y-109980000D02*
X146675000Y-110375000D01*
X137295472Y-99179528D02*
X145083204Y-99179528D01*
X136175000Y-100300000D02*
X137295472Y-99179528D01*
X133425000Y-100275000D02*
X133450000Y-100300000D01*
X127580000Y-100920000D02*
X127580000Y-102040000D01*
X145083204Y-99179528D02*
X146606684Y-100703008D01*
X133450000Y-100300000D02*
X136175000Y-100300000D01*
X132710000Y-103360000D02*
X132710000Y-102060000D01*
X133280000Y-103930000D02*
X132710000Y-103360000D01*
X135970000Y-104970000D02*
X134930000Y-103930000D01*
X136836252Y-104970000D02*
X135970000Y-104970000D01*
X134930000Y-103930000D02*
X133280000Y-103930000D01*
X139410501Y-103019999D02*
X136836252Y-103019999D01*
X139425000Y-103005500D02*
X139410501Y-103019999D01*
X138595000Y-105620000D02*
X136840000Y-105620000D01*
X138625000Y-105650000D02*
X138595000Y-105620000D01*
X142583748Y-105619999D02*
X139759999Y-105619999D01*
X138460000Y-104320000D02*
X136840000Y-104320000D01*
X139759999Y-105619999D02*
X138460000Y-104320000D01*
X142583748Y-103670000D02*
X136840000Y-103670000D01*
X143690001Y-104320001D02*
X144000000Y-104630000D01*
X142583748Y-104320001D02*
X143690001Y-104320001D01*
X144000000Y-104630000D02*
X144000000Y-105330000D01*
G04 #@! TA.AperFunction,Conductor*
G36*
X153891780Y-96108482D02*
G01*
X153918800Y-96155282D01*
X153920000Y-96169000D01*
X153920000Y-110961000D01*
X153901518Y-111011780D01*
X153854718Y-111038800D01*
X153841000Y-111040000D01*
X152763134Y-111040000D01*
X152712354Y-111021518D01*
X152685334Y-110974718D01*
X152684134Y-110961000D01*
X152684134Y-109617246D01*
X152673081Y-109561679D01*
X152630977Y-109498665D01*
X152567963Y-109456561D01*
X152529087Y-109448828D01*
X152482889Y-109420794D01*
X152465500Y-109371346D01*
X152465500Y-107269500D01*
X152483982Y-107218720D01*
X152530782Y-107191700D01*
X152544500Y-107190500D01*
X153078762Y-107190500D01*
X153099681Y-107186339D01*
X153126699Y-107180965D01*
X153126700Y-107180964D01*
X153134329Y-107179447D01*
X153197343Y-107137343D01*
X153239447Y-107074329D01*
X153250500Y-107018762D01*
X153250500Y-105781238D01*
X153239447Y-105725671D01*
X153197343Y-105662657D01*
X153134329Y-105620553D01*
X153126700Y-105619036D01*
X153126699Y-105619035D01*
X153082573Y-105610258D01*
X153082572Y-105610258D01*
X153078762Y-105609500D01*
X151221238Y-105609500D01*
X151217428Y-105610258D01*
X151217427Y-105610258D01*
X151173301Y-105619035D01*
X151173300Y-105619036D01*
X151165671Y-105620553D01*
X151102657Y-105662657D01*
X151060553Y-105725671D01*
X151049500Y-105781238D01*
X151049500Y-107018762D01*
X151060553Y-107074329D01*
X151102657Y-107137343D01*
X151165671Y-107179447D01*
X151173300Y-107180964D01*
X151173301Y-107180965D01*
X151200319Y-107186339D01*
X151221238Y-107190500D01*
X151755500Y-107190500D01*
X151806280Y-107208982D01*
X151833300Y-107255782D01*
X151834500Y-107269500D01*
X151834500Y-109366508D01*
X151816018Y-109417288D01*
X151769218Y-109444308D01*
X151755500Y-109445508D01*
X150950872Y-109445508D01*
X150947062Y-109446266D01*
X150947061Y-109446266D01*
X150902935Y-109455043D01*
X150902934Y-109455044D01*
X150895305Y-109456561D01*
X150832291Y-109498665D01*
X150790187Y-109561679D01*
X150779134Y-109617246D01*
X150779134Y-110961000D01*
X150760652Y-111011780D01*
X150713852Y-111038800D01*
X150700134Y-111040000D01*
X150201346Y-111040000D01*
X150150566Y-111021518D01*
X150123546Y-110974718D01*
X150127526Y-110938366D01*
X150126102Y-110937984D01*
X150127441Y-110932986D01*
X150129424Y-110928199D01*
X150144134Y-110816463D01*
X150144133Y-109979554D01*
X150140470Y-109951723D01*
X150130100Y-109872952D01*
X150129424Y-109867817D01*
X150071838Y-109728792D01*
X150068686Y-109724684D01*
X150068684Y-109724681D01*
X149983382Y-109613515D01*
X149980232Y-109609410D01*
X149976127Y-109606260D01*
X149864960Y-109520958D01*
X149864957Y-109520956D01*
X149860849Y-109517804D01*
X149856062Y-109515821D01*
X149856060Y-109515820D01*
X149794265Y-109490224D01*
X149721825Y-109460218D01*
X149610089Y-109445508D01*
X149609056Y-109445508D01*
X149559868Y-109423861D01*
X149535969Y-109375394D01*
X149535500Y-109366797D01*
X149535500Y-107259500D01*
X149553982Y-107208720D01*
X149600782Y-107181700D01*
X149614500Y-107180500D01*
X150148762Y-107180500D01*
X150160345Y-107178196D01*
X150196699Y-107170965D01*
X150196700Y-107170964D01*
X150204329Y-107169447D01*
X150267343Y-107127343D01*
X150309447Y-107064329D01*
X150316276Y-107030000D01*
X150319742Y-107012573D01*
X150319742Y-107012572D01*
X150320500Y-107008762D01*
X150320500Y-105771238D01*
X150309447Y-105715671D01*
X150267343Y-105652657D01*
X150204329Y-105610553D01*
X150196700Y-105609036D01*
X150196699Y-105609035D01*
X150152573Y-105600258D01*
X150152572Y-105600258D01*
X150148762Y-105599500D01*
X148291238Y-105599500D01*
X148287428Y-105600258D01*
X148287427Y-105600258D01*
X148243301Y-105609035D01*
X148243300Y-105609036D01*
X148235671Y-105610553D01*
X148172657Y-105652657D01*
X148130553Y-105715671D01*
X148119500Y-105771238D01*
X148119500Y-107008762D01*
X148120258Y-107012572D01*
X148120258Y-107012573D01*
X148123725Y-107030000D01*
X148130553Y-107064329D01*
X148172657Y-107127343D01*
X148235671Y-107169447D01*
X148243300Y-107170964D01*
X148243301Y-107170965D01*
X148279655Y-107178196D01*
X148291238Y-107180500D01*
X148825500Y-107180500D01*
X148876280Y-107198982D01*
X148903300Y-107245782D01*
X148904500Y-107259500D01*
X148904500Y-109366509D01*
X148886018Y-109417289D01*
X148839218Y-109444309D01*
X148825500Y-109445509D01*
X148773180Y-109445509D01*
X148770615Y-109445847D01*
X148770610Y-109445847D01*
X148689223Y-109456561D01*
X148661443Y-109460218D01*
X148522418Y-109517804D01*
X148518310Y-109520956D01*
X148518307Y-109520958D01*
X148455296Y-109569309D01*
X148403036Y-109609410D01*
X148311430Y-109728793D01*
X148253844Y-109867817D01*
X148253168Y-109872952D01*
X148253168Y-109872953D01*
X148245594Y-109930487D01*
X148239134Y-109979553D01*
X148239135Y-110816462D01*
X148239473Y-110819027D01*
X148239473Y-110819032D01*
X148246773Y-110874483D01*
X148253844Y-110928199D01*
X148255825Y-110932982D01*
X148257166Y-110937987D01*
X148255246Y-110938501D01*
X148257264Y-110984759D01*
X148224365Y-111027630D01*
X148181921Y-111040000D01*
X147661346Y-111040000D01*
X147610566Y-111021518D01*
X147583546Y-110974718D01*
X147587526Y-110938366D01*
X147586102Y-110937984D01*
X147587441Y-110932986D01*
X147589424Y-110928199D01*
X147604134Y-110816463D01*
X147604133Y-109979554D01*
X147600470Y-109951723D01*
X147590100Y-109872952D01*
X147589424Y-109867817D01*
X147531838Y-109728792D01*
X147528686Y-109724684D01*
X147528684Y-109724681D01*
X147443382Y-109613515D01*
X147440232Y-109609410D01*
X147436127Y-109606260D01*
X147324960Y-109520958D01*
X147324957Y-109520956D01*
X147320849Y-109517804D01*
X147316062Y-109515821D01*
X147316060Y-109515820D01*
X147254265Y-109490224D01*
X147181825Y-109460218D01*
X147137678Y-109454406D01*
X147072659Y-109445846D01*
X147072654Y-109445846D01*
X147070089Y-109445508D01*
X147055024Y-109445508D01*
X146674500Y-109445509D01*
X146623720Y-109427027D01*
X146596700Y-109380227D01*
X146595500Y-109366509D01*
X146595500Y-107269500D01*
X146613982Y-107218720D01*
X146660782Y-107191700D01*
X146674500Y-107190500D01*
X147208762Y-107190500D01*
X147229681Y-107186339D01*
X147256699Y-107180965D01*
X147256700Y-107180964D01*
X147264329Y-107179447D01*
X147327343Y-107137343D01*
X147369447Y-107074329D01*
X147380500Y-107018762D01*
X147380500Y-105781238D01*
X147369447Y-105725671D01*
X147327343Y-105662657D01*
X147264329Y-105620553D01*
X147256700Y-105619036D01*
X147256699Y-105619035D01*
X147212573Y-105610258D01*
X147212572Y-105610258D01*
X147208762Y-105609500D01*
X145351238Y-105609500D01*
X145347428Y-105610258D01*
X145347427Y-105610258D01*
X145303301Y-105619035D01*
X145303300Y-105619036D01*
X145295671Y-105620553D01*
X145232657Y-105662657D01*
X145210186Y-105696288D01*
X145166607Y-105728242D01*
X145112684Y-105724708D01*
X145073647Y-105687340D01*
X145065500Y-105652398D01*
X145065500Y-104427209D01*
X145065801Y-104420324D01*
X145067525Y-104400613D01*
X145069147Y-104382078D01*
X145067358Y-104375402D01*
X145067358Y-104375398D01*
X145059210Y-104344988D01*
X145057718Y-104338260D01*
X145052247Y-104307233D01*
X145051047Y-104300428D01*
X145047592Y-104294444D01*
X145045228Y-104287948D01*
X145045339Y-104287908D01*
X145045169Y-104287497D01*
X145045061Y-104287547D01*
X145042140Y-104281283D01*
X145040351Y-104274606D01*
X145030474Y-104260500D01*
X145018321Y-104243145D01*
X145014617Y-104237331D01*
X144998871Y-104210058D01*
X144995415Y-104204072D01*
X144965985Y-104179377D01*
X144960905Y-104174721D01*
X144485179Y-103698995D01*
X144462341Y-103650019D01*
X144476327Y-103597821D01*
X144520593Y-103566826D01*
X144551351Y-103564810D01*
X144624864Y-103574488D01*
X144624865Y-103574488D01*
X144630000Y-103575164D01*
X144771099Y-103556588D01*
X144775885Y-103554605D01*
X144775887Y-103554605D01*
X144828849Y-103532667D01*
X144902582Y-103502126D01*
X144906690Y-103498974D01*
X144906693Y-103498972D01*
X145011384Y-103418639D01*
X145015489Y-103415489D01*
X145037825Y-103386380D01*
X145083401Y-103357345D01*
X145136978Y-103364398D01*
X145173486Y-103404240D01*
X145179500Y-103434472D01*
X145179500Y-104098762D01*
X145180258Y-104102572D01*
X145180258Y-104102573D01*
X145188371Y-104143358D01*
X145190553Y-104154329D01*
X145232657Y-104217343D01*
X145295671Y-104259447D01*
X145303300Y-104260964D01*
X145303301Y-104260965D01*
X145341882Y-104268639D01*
X145351238Y-104270500D01*
X147208762Y-104270500D01*
X147218118Y-104268639D01*
X147256699Y-104260965D01*
X147256700Y-104260964D01*
X147264329Y-104259447D01*
X147327343Y-104217343D01*
X147369447Y-104154329D01*
X147371630Y-104143358D01*
X147379742Y-104102573D01*
X147379742Y-104102572D01*
X147380500Y-104098762D01*
X147380500Y-103158406D01*
X147398982Y-103107626D01*
X147403639Y-103102545D01*
X148007546Y-102498639D01*
X148056522Y-102475801D01*
X148063407Y-102475500D01*
X149262783Y-102475500D01*
X149269669Y-102475801D01*
X149301037Y-102478546D01*
X149301039Y-102478546D01*
X149307922Y-102479148D01*
X149345024Y-102469207D01*
X149351734Y-102467719D01*
X149389572Y-102461047D01*
X149395556Y-102457592D01*
X149402052Y-102455228D01*
X149402093Y-102455339D01*
X149402503Y-102455169D01*
X149402453Y-102455061D01*
X149408717Y-102452140D01*
X149415393Y-102450351D01*
X149435646Y-102436170D01*
X149446855Y-102428321D01*
X149452662Y-102424621D01*
X149485928Y-102405415D01*
X149504059Y-102383807D01*
X149510623Y-102375985D01*
X149515279Y-102370905D01*
X150207538Y-101678647D01*
X150256514Y-101655809D01*
X150263399Y-101655508D01*
X150602808Y-101655507D01*
X150867587Y-101655507D01*
X150918367Y-101673989D01*
X150945387Y-101720789D01*
X150936003Y-101774007D01*
X150923448Y-101790368D01*
X150057455Y-102656361D01*
X150008479Y-102679199D01*
X150001594Y-102679500D01*
X148291238Y-102679500D01*
X148287428Y-102680258D01*
X148287427Y-102680258D01*
X148243301Y-102689035D01*
X148243300Y-102689036D01*
X148235671Y-102690553D01*
X148172657Y-102732657D01*
X148130553Y-102795671D01*
X148119500Y-102851238D01*
X148119500Y-104088762D01*
X148120258Y-104092572D01*
X148120258Y-104092573D01*
X148125720Y-104120030D01*
X148130553Y-104144329D01*
X148172657Y-104207343D01*
X148235671Y-104249447D01*
X148243300Y-104250964D01*
X148243301Y-104250965D01*
X148285944Y-104259447D01*
X148291238Y-104260500D01*
X150148762Y-104260500D01*
X150154056Y-104259447D01*
X150196699Y-104250965D01*
X150196700Y-104250964D01*
X150204329Y-104249447D01*
X150267343Y-104207343D01*
X150309447Y-104144329D01*
X150314281Y-104120030D01*
X150319742Y-104092573D01*
X150319742Y-104092572D01*
X150320500Y-104088762D01*
X150320500Y-103318406D01*
X150338982Y-103267626D01*
X150343639Y-103262545D01*
X151747590Y-101858594D01*
X151752671Y-101853937D01*
X151776804Y-101833687D01*
X151782099Y-101829244D01*
X151801305Y-101795978D01*
X151805005Y-101790171D01*
X151823071Y-101764370D01*
X151827035Y-101758709D01*
X151828823Y-101752034D01*
X151831745Y-101745768D01*
X151831853Y-101745819D01*
X151832023Y-101745410D01*
X151831910Y-101745369D01*
X151834273Y-101738876D01*
X151837731Y-101732888D01*
X151844403Y-101695047D01*
X151845895Y-101688321D01*
X151854041Y-101657919D01*
X151854607Y-101655809D01*
X151855831Y-101651238D01*
X151856642Y-101651455D01*
X151876971Y-101607854D01*
X151925946Y-101585013D01*
X151970773Y-101594417D01*
X151974209Y-101596298D01*
X151978712Y-101599673D01*
X151983980Y-101601648D01*
X151983982Y-101601649D01*
X152073231Y-101635106D01*
X152114292Y-101670237D01*
X152124500Y-101709079D01*
X152124500Y-102610500D01*
X152106018Y-102661280D01*
X152059218Y-102688300D01*
X152045500Y-102689500D01*
X151221238Y-102689500D01*
X151217428Y-102690258D01*
X151217427Y-102690258D01*
X151173301Y-102699035D01*
X151173300Y-102699036D01*
X151165671Y-102700553D01*
X151102657Y-102742657D01*
X151060553Y-102805671D01*
X151059036Y-102813300D01*
X151059035Y-102813301D01*
X151053167Y-102842803D01*
X151049500Y-102861238D01*
X151049500Y-104098762D01*
X151050258Y-104102572D01*
X151050258Y-104102573D01*
X151058371Y-104143358D01*
X151060553Y-104154329D01*
X151102657Y-104217343D01*
X151165671Y-104259447D01*
X151173300Y-104260964D01*
X151173301Y-104260965D01*
X151211882Y-104268639D01*
X151221238Y-104270500D01*
X153078762Y-104270500D01*
X153088118Y-104268639D01*
X153126699Y-104260965D01*
X153126700Y-104260964D01*
X153134329Y-104259447D01*
X153197343Y-104217343D01*
X153239447Y-104154329D01*
X153241630Y-104143358D01*
X153249742Y-104102573D01*
X153249742Y-104102572D01*
X153250500Y-104098762D01*
X153250500Y-102861238D01*
X153246833Y-102842803D01*
X153240965Y-102813301D01*
X153240964Y-102813300D01*
X153239447Y-102805671D01*
X153197343Y-102742657D01*
X153134329Y-102700553D01*
X153126700Y-102699036D01*
X153126699Y-102699035D01*
X153082573Y-102690258D01*
X153082572Y-102690258D01*
X153078762Y-102689500D01*
X152834500Y-102689500D01*
X152783720Y-102671018D01*
X152756700Y-102624218D01*
X152755500Y-102610500D01*
X152755500Y-101734507D01*
X152773982Y-101683727D01*
X152820782Y-101656707D01*
X152834500Y-101655507D01*
X152863114Y-101655507D01*
X152923095Y-101648992D01*
X152927726Y-101647256D01*
X152927730Y-101647255D01*
X153028314Y-101609548D01*
X153054656Y-101599673D01*
X153167087Y-101515411D01*
X153247579Y-101408010D01*
X153247975Y-101407482D01*
X153251349Y-101402980D01*
X153300668Y-101271419D01*
X153304618Y-101235064D01*
X153306954Y-101213556D01*
X153307184Y-101211439D01*
X153307183Y-100194578D01*
X153300668Y-100134597D01*
X153298932Y-100129966D01*
X153298931Y-100129962D01*
X153253324Y-100008305D01*
X153251349Y-100003036D01*
X153167087Y-99890605D01*
X153054656Y-99806343D01*
X152923095Y-99757024D01*
X152918175Y-99756490D01*
X152918173Y-99756489D01*
X152865232Y-99750738D01*
X152863115Y-99750508D01*
X152860985Y-99750508D01*
X152516685Y-99750509D01*
X152170254Y-99750509D01*
X152110273Y-99757024D01*
X152105642Y-99758760D01*
X152105638Y-99758761D01*
X152052344Y-99778740D01*
X151978712Y-99806343D01*
X151974210Y-99809717D01*
X151969271Y-99812421D01*
X151967804Y-99809742D01*
X151926702Y-99822111D01*
X151877052Y-99800777D01*
X151852731Y-99752520D01*
X151852184Y-99743238D01*
X151852184Y-99129750D01*
X151870666Y-99078970D01*
X151922655Y-99051212D01*
X151926942Y-99050747D01*
X151938173Y-99049527D01*
X151938176Y-99049526D01*
X151943095Y-99048992D01*
X151947726Y-99047256D01*
X151947730Y-99047255D01*
X152034634Y-99014676D01*
X152074656Y-98999673D01*
X152187087Y-98915411D01*
X152271349Y-98802980D01*
X152320668Y-98671419D01*
X152321545Y-98663352D01*
X152326954Y-98613556D01*
X152327184Y-98611439D01*
X152327183Y-97594578D01*
X152320668Y-97534597D01*
X152318932Y-97529966D01*
X152318931Y-97529962D01*
X152273324Y-97408305D01*
X152271349Y-97403036D01*
X152187087Y-97290605D01*
X152074656Y-97206343D01*
X151943095Y-97157024D01*
X151938175Y-97156490D01*
X151938173Y-97156489D01*
X151885232Y-97150738D01*
X151883115Y-97150508D01*
X151880985Y-97150508D01*
X151536685Y-97150509D01*
X151190254Y-97150509D01*
X151130273Y-97157024D01*
X151125642Y-97158760D01*
X151125638Y-97158761D01*
X151056398Y-97184718D01*
X150998712Y-97206343D01*
X150886281Y-97290605D01*
X150802019Y-97403036D01*
X150752700Y-97534597D01*
X150752166Y-97539517D01*
X150752165Y-97539519D01*
X150749767Y-97561594D01*
X150746184Y-97594577D01*
X150746185Y-98611438D01*
X150752700Y-98671419D01*
X150754436Y-98676050D01*
X150754437Y-98676054D01*
X150780347Y-98745169D01*
X150802019Y-98802980D01*
X150886281Y-98915411D01*
X150998712Y-98999673D01*
X151130273Y-99048992D01*
X151135193Y-99049526D01*
X151135195Y-99049527D01*
X151150717Y-99051213D01*
X151199204Y-99075072D01*
X151221184Y-99129751D01*
X151221184Y-99750733D01*
X151202702Y-99801513D01*
X151155902Y-99828533D01*
X151102684Y-99819149D01*
X151094806Y-99813949D01*
X151089163Y-99809720D01*
X151089158Y-99809717D01*
X151084656Y-99806343D01*
X150953095Y-99757024D01*
X150948175Y-99756490D01*
X150948173Y-99756489D01*
X150895232Y-99750738D01*
X150893115Y-99750508D01*
X150890985Y-99750508D01*
X150546685Y-99750509D01*
X150200254Y-99750509D01*
X150140273Y-99757024D01*
X150135642Y-99758760D01*
X150135638Y-99758761D01*
X150082344Y-99778740D01*
X150008712Y-99806343D01*
X149896281Y-99890605D01*
X149812019Y-100003036D01*
X149762700Y-100134597D01*
X149756184Y-100194577D01*
X149756185Y-100702503D01*
X149756185Y-101204908D01*
X149737703Y-101255688D01*
X149733046Y-101260769D01*
X149172455Y-101821361D01*
X149123479Y-101844199D01*
X149116594Y-101844500D01*
X147917221Y-101844500D01*
X147910336Y-101844199D01*
X147878964Y-101841454D01*
X147878962Y-101841454D01*
X147872079Y-101840852D01*
X147865406Y-101842640D01*
X147865405Y-101842640D01*
X147858464Y-101844500D01*
X147834978Y-101850793D01*
X147828257Y-101852283D01*
X147806337Y-101856148D01*
X147790428Y-101858953D01*
X147784443Y-101862409D01*
X147777947Y-101864773D01*
X147777906Y-101864661D01*
X147777499Y-101864830D01*
X147777549Y-101864937D01*
X147771281Y-101867860D01*
X147764607Y-101869648D01*
X147758945Y-101873612D01*
X147758944Y-101873613D01*
X147733135Y-101891684D01*
X147727329Y-101895384D01*
X147694072Y-101914585D01*
X147689629Y-101919880D01*
X147669382Y-101944009D01*
X147664726Y-101949089D01*
X147300337Y-102313479D01*
X146947455Y-102666361D01*
X146898479Y-102689199D01*
X146891594Y-102689500D01*
X145351238Y-102689500D01*
X145347428Y-102690258D01*
X145347427Y-102690258D01*
X145303301Y-102699035D01*
X145303300Y-102699036D01*
X145295671Y-102700553D01*
X145232657Y-102742657D01*
X145228337Y-102749123D01*
X145227878Y-102749810D01*
X145227023Y-102750437D01*
X145222832Y-102754628D01*
X145222187Y-102753983D01*
X145184300Y-102781766D01*
X145130376Y-102778234D01*
X145099515Y-102754015D01*
X145018639Y-102648616D01*
X145015489Y-102644511D01*
X145005512Y-102636855D01*
X144906693Y-102561028D01*
X144906690Y-102561026D01*
X144902582Y-102557874D01*
X144809404Y-102519279D01*
X144775887Y-102505395D01*
X144775885Y-102505395D01*
X144771099Y-102503412D01*
X144630000Y-102484836D01*
X144581161Y-102491266D01*
X144528403Y-102479570D01*
X144514988Y-102468803D01*
X143635278Y-101589094D01*
X143630621Y-101584013D01*
X143610371Y-101559880D01*
X143605928Y-101554585D01*
X143572662Y-101535379D01*
X143566855Y-101531679D01*
X143541056Y-101513614D01*
X143541055Y-101513613D01*
X143535393Y-101509649D01*
X143528717Y-101507860D01*
X143522453Y-101504939D01*
X143522503Y-101504831D01*
X143522093Y-101504661D01*
X143522052Y-101504772D01*
X143515556Y-101502408D01*
X143509572Y-101498953D01*
X143471734Y-101492281D01*
X143465022Y-101490792D01*
X143461315Y-101489799D01*
X143417055Y-101458796D01*
X143403078Y-101406596D01*
X143407803Y-101385764D01*
X143448930Y-101276055D01*
X143448930Y-101276054D01*
X143450668Y-101271419D01*
X143454618Y-101235064D01*
X143456954Y-101213556D01*
X143457184Y-101211439D01*
X143457183Y-100194578D01*
X143450668Y-100134597D01*
X143448932Y-100129966D01*
X143448931Y-100129962D01*
X143403324Y-100008305D01*
X143401349Y-100003036D01*
X143317087Y-99890605D01*
X143204656Y-99806343D01*
X143073095Y-99757024D01*
X143068175Y-99756490D01*
X143068173Y-99756489D01*
X143015232Y-99750738D01*
X143013115Y-99750508D01*
X143010985Y-99750508D01*
X142666685Y-99750509D01*
X142320254Y-99750509D01*
X142318137Y-99750739D01*
X142318136Y-99750739D01*
X142265196Y-99756489D01*
X142265194Y-99756490D01*
X142260273Y-99757024D01*
X142239973Y-99764634D01*
X142185936Y-99765151D01*
X142156383Y-99746522D01*
X142039750Y-99629889D01*
X142016912Y-99580914D01*
X142030898Y-99528716D01*
X142075164Y-99497720D01*
X142095611Y-99495028D01*
X144919798Y-99495028D01*
X144970578Y-99513510D01*
X144975659Y-99518167D01*
X145076781Y-99619289D01*
X145099619Y-99668265D01*
X145085633Y-99720463D01*
X145041367Y-99751458D01*
X145012388Y-99753688D01*
X144985232Y-99750738D01*
X144983115Y-99750508D01*
X144980985Y-99750508D01*
X144636685Y-99750509D01*
X144290254Y-99750509D01*
X144230273Y-99757024D01*
X144225642Y-99758760D01*
X144225638Y-99758761D01*
X144172344Y-99778740D01*
X144098712Y-99806343D01*
X143986281Y-99890605D01*
X143902019Y-100003036D01*
X143852700Y-100134597D01*
X143846184Y-100194577D01*
X143846185Y-101211438D01*
X143852700Y-101271419D01*
X143854436Y-101276050D01*
X143854437Y-101276054D01*
X143876394Y-101334624D01*
X143902019Y-101402980D01*
X143905393Y-101407482D01*
X143905789Y-101408010D01*
X143986281Y-101515411D01*
X144098712Y-101599673D01*
X144230273Y-101648992D01*
X144235193Y-101649526D01*
X144235195Y-101649527D01*
X144285206Y-101654960D01*
X144290253Y-101655508D01*
X144636684Y-101655508D01*
X144983114Y-101655507D01*
X145043095Y-101648992D01*
X145047726Y-101647256D01*
X145047730Y-101647255D01*
X145148314Y-101609548D01*
X145174656Y-101599673D01*
X145287087Y-101515411D01*
X145367579Y-101408010D01*
X145367975Y-101407482D01*
X145371349Y-101402980D01*
X145420668Y-101271419D01*
X145424618Y-101235064D01*
X145426954Y-101213556D01*
X145427184Y-101211439D01*
X145427183Y-100194578D01*
X145424003Y-100165302D01*
X145436894Y-100112823D01*
X145480502Y-100080908D01*
X145534422Y-100084490D01*
X145558402Y-100100910D01*
X145793045Y-100335553D01*
X145815883Y-100384529D01*
X145816184Y-100391414D01*
X145816185Y-100808944D01*
X145816185Y-101211438D01*
X145822700Y-101271419D01*
X145824436Y-101276050D01*
X145824437Y-101276054D01*
X145846394Y-101334624D01*
X145872019Y-101402980D01*
X145875393Y-101407482D01*
X145875789Y-101408010D01*
X145956281Y-101515411D01*
X146068712Y-101599673D01*
X146200273Y-101648992D01*
X146205193Y-101649526D01*
X146205195Y-101649527D01*
X146255206Y-101654960D01*
X146260253Y-101655508D01*
X146606684Y-101655508D01*
X146953114Y-101655507D01*
X147013095Y-101648992D01*
X147017726Y-101647256D01*
X147017730Y-101647255D01*
X147118314Y-101609548D01*
X147144656Y-101599673D01*
X147257087Y-101515411D01*
X147337579Y-101408010D01*
X147337975Y-101407482D01*
X147341349Y-101402980D01*
X147390668Y-101271419D01*
X147394618Y-101235064D01*
X147396954Y-101213556D01*
X147397184Y-101211439D01*
X147397183Y-100194578D01*
X147397183Y-100194577D01*
X147786184Y-100194577D01*
X147786185Y-101211438D01*
X147792700Y-101271419D01*
X147794436Y-101276050D01*
X147794437Y-101276054D01*
X147816394Y-101334624D01*
X147842019Y-101402980D01*
X147845393Y-101407482D01*
X147845789Y-101408010D01*
X147926281Y-101515411D01*
X148038712Y-101599673D01*
X148170273Y-101648992D01*
X148175193Y-101649526D01*
X148175195Y-101649527D01*
X148225206Y-101654960D01*
X148230253Y-101655508D01*
X148576684Y-101655508D01*
X148923114Y-101655507D01*
X148983095Y-101648992D01*
X148987726Y-101647256D01*
X148987730Y-101647255D01*
X149088314Y-101609548D01*
X149114656Y-101599673D01*
X149227087Y-101515411D01*
X149307579Y-101408010D01*
X149307975Y-101407482D01*
X149311349Y-101402980D01*
X149360668Y-101271419D01*
X149364618Y-101235064D01*
X149366954Y-101213556D01*
X149367184Y-101211439D01*
X149367183Y-100194578D01*
X149360668Y-100134597D01*
X149358932Y-100129966D01*
X149358931Y-100129962D01*
X149313324Y-100008305D01*
X149311349Y-100003036D01*
X149227087Y-99890605D01*
X149114656Y-99806343D01*
X148983095Y-99757024D01*
X148978175Y-99756490D01*
X148978173Y-99756489D01*
X148925232Y-99750738D01*
X148923115Y-99750508D01*
X148920985Y-99750508D01*
X148576685Y-99750509D01*
X148230254Y-99750509D01*
X148170273Y-99757024D01*
X148165642Y-99758760D01*
X148165638Y-99758761D01*
X148112344Y-99778740D01*
X148038712Y-99806343D01*
X147926281Y-99890605D01*
X147842019Y-100003036D01*
X147792700Y-100134597D01*
X147786184Y-100194577D01*
X147397183Y-100194577D01*
X147390668Y-100134597D01*
X147388932Y-100129966D01*
X147388931Y-100129962D01*
X147343324Y-100008305D01*
X147341349Y-100003036D01*
X147257087Y-99890605D01*
X147144656Y-99806343D01*
X147013095Y-99757024D01*
X147008175Y-99756490D01*
X147008173Y-99756489D01*
X146955232Y-99750738D01*
X146953115Y-99750508D01*
X146950985Y-99750508D01*
X146606685Y-99750509D01*
X146260254Y-99750509D01*
X146200273Y-99757024D01*
X146179973Y-99764634D01*
X146125938Y-99765153D01*
X146096382Y-99746522D01*
X145540229Y-99190369D01*
X145517391Y-99141393D01*
X145531377Y-99089195D01*
X145575643Y-99058200D01*
X145596090Y-99055508D01*
X145966843Y-99055507D01*
X145973114Y-99055507D01*
X146033095Y-99048992D01*
X146037726Y-99047256D01*
X146037730Y-99047255D01*
X146124634Y-99014676D01*
X146164656Y-98999673D01*
X146277087Y-98915411D01*
X146361349Y-98802980D01*
X146410668Y-98671419D01*
X146411545Y-98663352D01*
X146416954Y-98613556D01*
X146417184Y-98611439D01*
X146417183Y-97594578D01*
X146417183Y-97594577D01*
X146806184Y-97594577D01*
X146806185Y-98611438D01*
X146812700Y-98671419D01*
X146814436Y-98676050D01*
X146814437Y-98676054D01*
X146840347Y-98745169D01*
X146862019Y-98802980D01*
X146946281Y-98915411D01*
X147058712Y-98999673D01*
X147190273Y-99048992D01*
X147195193Y-99049526D01*
X147195195Y-99049527D01*
X147237255Y-99054096D01*
X147250253Y-99055508D01*
X147596684Y-99055508D01*
X147943114Y-99055507D01*
X148003095Y-99048992D01*
X148007726Y-99047256D01*
X148007730Y-99047255D01*
X148094634Y-99014676D01*
X148134656Y-98999673D01*
X148247087Y-98915411D01*
X148331349Y-98802980D01*
X148380668Y-98671419D01*
X148381545Y-98663352D01*
X148386954Y-98613556D01*
X148387184Y-98611439D01*
X148387183Y-97594578D01*
X148387183Y-97594577D01*
X148776184Y-97594577D01*
X148776185Y-98611438D01*
X148782700Y-98671419D01*
X148784436Y-98676050D01*
X148784437Y-98676054D01*
X148810347Y-98745169D01*
X148832019Y-98802980D01*
X148916281Y-98915411D01*
X149028712Y-98999673D01*
X149160273Y-99048992D01*
X149165193Y-99049526D01*
X149165195Y-99049527D01*
X149207255Y-99054096D01*
X149220253Y-99055508D01*
X149566684Y-99055508D01*
X149913114Y-99055507D01*
X149973095Y-99048992D01*
X149977726Y-99047256D01*
X149977730Y-99047255D01*
X150064634Y-99014676D01*
X150104656Y-98999673D01*
X150217087Y-98915411D01*
X150301349Y-98802980D01*
X150350668Y-98671419D01*
X150351545Y-98663352D01*
X150356954Y-98613556D01*
X150357184Y-98611439D01*
X150357183Y-97594578D01*
X150350668Y-97534597D01*
X150348932Y-97529966D01*
X150348931Y-97529962D01*
X150303324Y-97408305D01*
X150301349Y-97403036D01*
X150217087Y-97290605D01*
X150104656Y-97206343D01*
X149973095Y-97157024D01*
X149968175Y-97156490D01*
X149968173Y-97156489D01*
X149915232Y-97150738D01*
X149913115Y-97150508D01*
X149910985Y-97150508D01*
X149566685Y-97150509D01*
X149220254Y-97150509D01*
X149160273Y-97157024D01*
X149155642Y-97158760D01*
X149155638Y-97158761D01*
X149086398Y-97184718D01*
X149028712Y-97206343D01*
X148916281Y-97290605D01*
X148832019Y-97403036D01*
X148782700Y-97534597D01*
X148782166Y-97539517D01*
X148782165Y-97539519D01*
X148779767Y-97561594D01*
X148776184Y-97594577D01*
X148387183Y-97594577D01*
X148380668Y-97534597D01*
X148378932Y-97529966D01*
X148378931Y-97529962D01*
X148333324Y-97408305D01*
X148331349Y-97403036D01*
X148247087Y-97290605D01*
X148134656Y-97206343D01*
X148003095Y-97157024D01*
X147998175Y-97156490D01*
X147998173Y-97156489D01*
X147945232Y-97150738D01*
X147943115Y-97150508D01*
X147940985Y-97150508D01*
X147596685Y-97150509D01*
X147250254Y-97150509D01*
X147190273Y-97157024D01*
X147185642Y-97158760D01*
X147185638Y-97158761D01*
X147116398Y-97184718D01*
X147058712Y-97206343D01*
X146946281Y-97290605D01*
X146862019Y-97403036D01*
X146812700Y-97534597D01*
X146812166Y-97539517D01*
X146812165Y-97539519D01*
X146809767Y-97561594D01*
X146806184Y-97594577D01*
X146417183Y-97594577D01*
X146410668Y-97534597D01*
X146408932Y-97529966D01*
X146408931Y-97529962D01*
X146363324Y-97408305D01*
X146361349Y-97403036D01*
X146277087Y-97290605D01*
X146164656Y-97206343D01*
X146033095Y-97157024D01*
X146028175Y-97156490D01*
X146028173Y-97156489D01*
X145975232Y-97150738D01*
X145973115Y-97150508D01*
X145970985Y-97150508D01*
X145626685Y-97150509D01*
X145280254Y-97150509D01*
X145220273Y-97157024D01*
X145215642Y-97158760D01*
X145215638Y-97158761D01*
X145146398Y-97184718D01*
X145088712Y-97206343D01*
X144976281Y-97290605D01*
X144892019Y-97403036D01*
X144842700Y-97534597D01*
X144842166Y-97539517D01*
X144842165Y-97539519D01*
X144839767Y-97561594D01*
X144836184Y-97594577D01*
X144836185Y-98611438D01*
X144842700Y-98671419D01*
X144844436Y-98676050D01*
X144844437Y-98676054D01*
X144858894Y-98714618D01*
X144874388Y-98755946D01*
X144874894Y-98757297D01*
X144875413Y-98811334D01*
X144841076Y-98853062D01*
X144800921Y-98864028D01*
X144546116Y-98864028D01*
X144495336Y-98845546D01*
X144468316Y-98798746D01*
X144472664Y-98755946D01*
X144493961Y-98702156D01*
X144496440Y-98692397D01*
X144506398Y-98610102D01*
X144506684Y-98605360D01*
X144506684Y-98241938D01*
X144502800Y-98231267D01*
X144497156Y-98228008D01*
X142820614Y-98228008D01*
X142809943Y-98231892D01*
X142806684Y-98237536D01*
X142806684Y-98605360D01*
X142806970Y-98610102D01*
X142816928Y-98692397D01*
X142819407Y-98702156D01*
X142840704Y-98755946D01*
X142842213Y-98809964D01*
X142808647Y-98852315D01*
X142767252Y-98864028D01*
X142512447Y-98864028D01*
X142461667Y-98845546D01*
X142434647Y-98798746D01*
X142438474Y-98757297D01*
X142438981Y-98755946D01*
X142470668Y-98671419D01*
X142471545Y-98663352D01*
X142476954Y-98613556D01*
X142477184Y-98611439D01*
X142477183Y-97964078D01*
X142806684Y-97964078D01*
X142810568Y-97974749D01*
X142816212Y-97978008D01*
X143517754Y-97978008D01*
X143528425Y-97974124D01*
X143531684Y-97968480D01*
X143531684Y-97964078D01*
X143781684Y-97964078D01*
X143785568Y-97974749D01*
X143791212Y-97978008D01*
X144492754Y-97978008D01*
X144503425Y-97974124D01*
X144506684Y-97968480D01*
X144506684Y-97600656D01*
X144506398Y-97595914D01*
X144496440Y-97513619D01*
X144493961Y-97503860D01*
X144442339Y-97373478D01*
X144437103Y-97364185D01*
X144352500Y-97252726D01*
X144344966Y-97245192D01*
X144233507Y-97160589D01*
X144224214Y-97155353D01*
X144093832Y-97103731D01*
X144084073Y-97101252D01*
X144001778Y-97091294D01*
X143997036Y-97091008D01*
X143795614Y-97091008D01*
X143784943Y-97094892D01*
X143781684Y-97100536D01*
X143781684Y-97964078D01*
X143531684Y-97964078D01*
X143531684Y-97104938D01*
X143527800Y-97094267D01*
X143522156Y-97091008D01*
X143316332Y-97091008D01*
X143311590Y-97091294D01*
X143229295Y-97101252D01*
X143219536Y-97103731D01*
X143089154Y-97155353D01*
X143079861Y-97160589D01*
X142968402Y-97245192D01*
X142960868Y-97252726D01*
X142876265Y-97364185D01*
X142871029Y-97373478D01*
X142819407Y-97503860D01*
X142816928Y-97513619D01*
X142806970Y-97595914D01*
X142806684Y-97600656D01*
X142806684Y-97964078D01*
X142477183Y-97964078D01*
X142477183Y-97594578D01*
X142470668Y-97534597D01*
X142468932Y-97529966D01*
X142468931Y-97529962D01*
X142423324Y-97408305D01*
X142421349Y-97403036D01*
X142337087Y-97290605D01*
X142224656Y-97206343D01*
X142093095Y-97157024D01*
X142088175Y-97156490D01*
X142088173Y-97156489D01*
X142035232Y-97150738D01*
X142033115Y-97150508D01*
X142030985Y-97150508D01*
X141686685Y-97150509D01*
X141340254Y-97150509D01*
X141280273Y-97157024D01*
X141275642Y-97158760D01*
X141275638Y-97158761D01*
X141206398Y-97184718D01*
X141148712Y-97206343D01*
X141036281Y-97290605D01*
X140952019Y-97403036D01*
X140902700Y-97534597D01*
X140902166Y-97539517D01*
X140902165Y-97539519D01*
X140899767Y-97561594D01*
X140896184Y-97594577D01*
X140896185Y-98611438D01*
X140902700Y-98671419D01*
X140904436Y-98676050D01*
X140904437Y-98676054D01*
X140918894Y-98714618D01*
X140934388Y-98755946D01*
X140934894Y-98757297D01*
X140935413Y-98811334D01*
X140901076Y-98853062D01*
X140860921Y-98864028D01*
X140542447Y-98864028D01*
X140491667Y-98845546D01*
X140464647Y-98798746D01*
X140468474Y-98757297D01*
X140468981Y-98755946D01*
X140500668Y-98671419D01*
X140501545Y-98663352D01*
X140506954Y-98613556D01*
X140507184Y-98611439D01*
X140507183Y-97594578D01*
X140500668Y-97534597D01*
X140498932Y-97529966D01*
X140498931Y-97529962D01*
X140453324Y-97408305D01*
X140451349Y-97403036D01*
X140367087Y-97290605D01*
X140254656Y-97206343D01*
X140123095Y-97157024D01*
X140118175Y-97156490D01*
X140118173Y-97156489D01*
X140065232Y-97150738D01*
X140063115Y-97150508D01*
X140060985Y-97150508D01*
X139716685Y-97150509D01*
X139370254Y-97150509D01*
X139310273Y-97157024D01*
X139305642Y-97158760D01*
X139305638Y-97158761D01*
X139236398Y-97184718D01*
X139178712Y-97206343D01*
X139066281Y-97290605D01*
X138982019Y-97403036D01*
X138932700Y-97534597D01*
X138932166Y-97539517D01*
X138932165Y-97539519D01*
X138929767Y-97561594D01*
X138926184Y-97594577D01*
X138926185Y-98611438D01*
X138932700Y-98671419D01*
X138934436Y-98676050D01*
X138934437Y-98676054D01*
X138948894Y-98714618D01*
X138964388Y-98755946D01*
X138964894Y-98757297D01*
X138965413Y-98811334D01*
X138931076Y-98853062D01*
X138890921Y-98864028D01*
X138675684Y-98864028D01*
X138624904Y-98845546D01*
X138597884Y-98798746D01*
X138596684Y-98785028D01*
X138596684Y-98241938D01*
X138592800Y-98231267D01*
X138587156Y-98228008D01*
X136910614Y-98228008D01*
X136899943Y-98231892D01*
X136896684Y-98237536D01*
X136896684Y-98885746D01*
X136897442Y-98893443D01*
X136909671Y-98954923D01*
X136915510Y-98969018D01*
X136937284Y-99001605D01*
X136950129Y-99054096D01*
X136927460Y-99101355D01*
X136689686Y-99339130D01*
X136474861Y-99553955D01*
X136425885Y-99576793D01*
X136373687Y-99562807D01*
X136342692Y-99518541D01*
X136340000Y-99498094D01*
X136340000Y-97964078D01*
X136896684Y-97964078D01*
X136900568Y-97974749D01*
X136906212Y-97978008D01*
X137607754Y-97978008D01*
X137618425Y-97974124D01*
X137621684Y-97968480D01*
X137621684Y-97964078D01*
X137871684Y-97964078D01*
X137875568Y-97974749D01*
X137881212Y-97978008D01*
X138582754Y-97978008D01*
X138593425Y-97974124D01*
X138596684Y-97968480D01*
X138596684Y-97320270D01*
X138595926Y-97312573D01*
X138583697Y-97251093D01*
X138577857Y-97236995D01*
X138531245Y-97167235D01*
X138520457Y-97156447D01*
X138450697Y-97109835D01*
X138436599Y-97103995D01*
X138375119Y-97091766D01*
X138367422Y-97091008D01*
X137885614Y-97091008D01*
X137874943Y-97094892D01*
X137871684Y-97100536D01*
X137871684Y-97964078D01*
X137621684Y-97964078D01*
X137621684Y-97104938D01*
X137617800Y-97094267D01*
X137612156Y-97091008D01*
X137125946Y-97091008D01*
X137118249Y-97091766D01*
X137056769Y-97103995D01*
X137042671Y-97109835D01*
X136972911Y-97156447D01*
X136962123Y-97167235D01*
X136915511Y-97236995D01*
X136909671Y-97251093D01*
X136897442Y-97312573D01*
X136896684Y-97320270D01*
X136896684Y-97964078D01*
X136340000Y-97964078D01*
X136340000Y-96169000D01*
X136358482Y-96118220D01*
X136405282Y-96091200D01*
X136419000Y-96090000D01*
X153841000Y-96090000D01*
X153891780Y-96108482D01*
G37*
G04 #@! TD.AperFunction*
G04 #@! TA.AperFunction,Conductor*
G36*
X135001780Y-96108482D02*
G01*
X135028800Y-96155282D01*
X135030000Y-96169000D01*
X135030000Y-97434443D01*
X135011518Y-97485223D01*
X134964718Y-97512243D01*
X134911500Y-97502859D01*
X134888325Y-97482535D01*
X134836829Y-97415424D01*
X134829576Y-97408171D01*
X134720288Y-97324311D01*
X134711388Y-97319174D01*
X134584130Y-97266461D01*
X134574206Y-97263802D01*
X134471939Y-97250338D01*
X134466780Y-97250000D01*
X134258930Y-97250000D01*
X134248259Y-97253884D01*
X134245000Y-97259528D01*
X134245000Y-99736070D01*
X134248884Y-99746741D01*
X134254528Y-99750000D01*
X134466780Y-99750000D01*
X134471939Y-99749662D01*
X134574206Y-99736198D01*
X134584130Y-99733539D01*
X134711388Y-99680826D01*
X134720288Y-99675689D01*
X134829576Y-99591829D01*
X134836829Y-99584576D01*
X134888325Y-99517465D01*
X134933901Y-99488430D01*
X134987478Y-99495483D01*
X135023986Y-99535325D01*
X135030000Y-99565557D01*
X135030000Y-99604954D01*
X135029601Y-99611298D01*
X135026511Y-99619347D01*
X135027610Y-99628843D01*
X135029476Y-99644970D01*
X135030000Y-99654051D01*
X135030000Y-99659494D01*
X135031137Y-99664123D01*
X135031211Y-99664736D01*
X135032757Y-99673331D01*
X135035547Y-99697440D01*
X135040737Y-99705077D01*
X135041110Y-99706289D01*
X135041761Y-99707377D01*
X135043964Y-99716346D01*
X135050286Y-99723516D01*
X135050286Y-99723517D01*
X135060019Y-99734556D01*
X135066092Y-99742385D01*
X135079735Y-99762461D01*
X135087873Y-99766824D01*
X135088766Y-99767727D01*
X135089846Y-99768389D01*
X135095953Y-99775316D01*
X135118626Y-99784020D01*
X135127628Y-99788142D01*
X135142619Y-99796180D01*
X135142621Y-99796181D01*
X135149019Y-99799611D01*
X135152098Y-99800000D01*
X135154954Y-99800000D01*
X135161298Y-99800399D01*
X135169347Y-99803489D01*
X135194973Y-99800524D01*
X135204051Y-99800000D01*
X136038094Y-99800000D01*
X136088874Y-99818482D01*
X136115894Y-99865282D01*
X136106510Y-99918500D01*
X136093955Y-99934861D01*
X136067455Y-99961361D01*
X136018479Y-99984199D01*
X136011594Y-99984500D01*
X133922335Y-99984500D01*
X133871555Y-99966018D01*
X133859660Y-99953592D01*
X133855923Y-99948721D01*
X133810489Y-99889511D01*
X133806384Y-99886361D01*
X133804884Y-99884861D01*
X133782046Y-99835885D01*
X133796032Y-99783687D01*
X133840298Y-99752692D01*
X133860745Y-99750000D01*
X133981070Y-99750000D01*
X133991741Y-99746116D01*
X133995000Y-99740472D01*
X133995000Y-98638930D01*
X133991116Y-98628259D01*
X133985472Y-98625000D01*
X133258930Y-98625000D01*
X133248259Y-98628884D01*
X133245000Y-98634528D01*
X133245000Y-99221780D01*
X133245338Y-99226939D01*
X133258802Y-99329206D01*
X133261461Y-99339130D01*
X133314174Y-99466388D01*
X133319311Y-99475288D01*
X133403171Y-99584576D01*
X133410427Y-99591832D01*
X133414765Y-99595161D01*
X133443799Y-99640738D01*
X133436744Y-99694315D01*
X133396900Y-99730822D01*
X133376984Y-99736157D01*
X133283901Y-99748412D01*
X133279115Y-99750395D01*
X133279113Y-99750395D01*
X133258916Y-99758761D01*
X133152418Y-99802874D01*
X133148310Y-99806026D01*
X133148307Y-99806028D01*
X133045571Y-99884861D01*
X133039511Y-99889511D01*
X133036362Y-99893615D01*
X133036361Y-99893616D01*
X132957175Y-99996813D01*
X132911599Y-100025848D01*
X132858022Y-100018795D01*
X132821513Y-99978953D01*
X132815500Y-99948721D01*
X132815500Y-99017209D01*
X132815801Y-99010324D01*
X132818544Y-98978966D01*
X132819147Y-98972078D01*
X132817358Y-98965402D01*
X132817358Y-98965398D01*
X132809210Y-98934988D01*
X132807718Y-98928260D01*
X132802247Y-98897233D01*
X132801047Y-98890428D01*
X132797592Y-98884444D01*
X132795228Y-98877948D01*
X132795339Y-98877908D01*
X132795169Y-98877497D01*
X132795061Y-98877547D01*
X132792140Y-98871283D01*
X132790351Y-98864606D01*
X132782268Y-98853062D01*
X132768321Y-98833145D01*
X132764617Y-98827331D01*
X132748871Y-98800058D01*
X132745415Y-98794072D01*
X132715985Y-98769377D01*
X132710905Y-98764721D01*
X132307254Y-98361070D01*
X133245000Y-98361070D01*
X133248884Y-98371741D01*
X133254528Y-98375000D01*
X133981070Y-98375000D01*
X133991741Y-98371116D01*
X133995000Y-98365472D01*
X133995000Y-97263930D01*
X133991116Y-97253259D01*
X133985472Y-97250000D01*
X133773220Y-97250000D01*
X133768061Y-97250338D01*
X133665794Y-97263802D01*
X133655870Y-97266461D01*
X133528612Y-97319174D01*
X133519712Y-97324311D01*
X133410424Y-97408171D01*
X133403171Y-97415424D01*
X133319311Y-97524712D01*
X133314174Y-97533612D01*
X133261461Y-97660870D01*
X133258802Y-97670794D01*
X133245338Y-97773061D01*
X133245000Y-97778220D01*
X133245000Y-98361070D01*
X132307254Y-98361070D01*
X132185278Y-98239094D01*
X132180621Y-98234013D01*
X132160371Y-98209880D01*
X132155928Y-98204585D01*
X132122662Y-98185379D01*
X132116855Y-98181679D01*
X132091056Y-98163614D01*
X132091055Y-98163613D01*
X132085393Y-98159649D01*
X132078717Y-98157860D01*
X132072453Y-98154939D01*
X132072503Y-98154831D01*
X132072093Y-98154661D01*
X132072052Y-98154772D01*
X132065556Y-98152408D01*
X132059572Y-98148953D01*
X132021734Y-98142281D01*
X132015024Y-98140793D01*
X131990414Y-98134199D01*
X131984596Y-98132640D01*
X131984595Y-98132640D01*
X131977922Y-98130852D01*
X131971039Y-98131454D01*
X131971037Y-98131454D01*
X131939665Y-98134199D01*
X131932780Y-98134500D01*
X131694218Y-98134500D01*
X131643438Y-98116018D01*
X131616418Y-98069218D01*
X131625802Y-98016000D01*
X131666487Y-97981527D01*
X131700876Y-97968635D01*
X131710647Y-97963286D01*
X131819121Y-97881990D01*
X131826990Y-97874121D01*
X131908286Y-97765647D01*
X131913635Y-97755875D01*
X131961454Y-97628320D01*
X131963727Y-97618762D01*
X131969770Y-97563130D01*
X131970000Y-97558883D01*
X131970000Y-97388930D01*
X131966116Y-97378259D01*
X131960472Y-97375000D01*
X130283931Y-97375000D01*
X130273260Y-97378884D01*
X130270001Y-97384528D01*
X130270001Y-97558881D01*
X130270231Y-97563132D01*
X130276273Y-97618756D01*
X130278548Y-97628324D01*
X130326365Y-97755875D01*
X130331714Y-97765647D01*
X130414170Y-97875669D01*
X130414936Y-97878197D01*
X130419331Y-97880830D01*
X130529353Y-97963286D01*
X130539124Y-97968635D01*
X130573513Y-97981527D01*
X130614574Y-98016659D01*
X130623447Y-98069964D01*
X130595979Y-98116502D01*
X130545782Y-98134500D01*
X130483406Y-98134500D01*
X130432626Y-98116018D01*
X130427545Y-98111361D01*
X130316092Y-97999908D01*
X130311502Y-97990065D01*
X130307753Y-97989189D01*
X130295092Y-97978908D01*
X129933639Y-97617455D01*
X129910801Y-97568479D01*
X129910500Y-97561594D01*
X129910499Y-97111070D01*
X130270000Y-97111070D01*
X130273884Y-97121741D01*
X130279528Y-97125000D01*
X130981070Y-97125000D01*
X130991741Y-97121116D01*
X130995000Y-97115472D01*
X130995000Y-97111070D01*
X131245000Y-97111070D01*
X131248884Y-97121741D01*
X131254528Y-97125000D01*
X131956069Y-97125000D01*
X131966740Y-97121116D01*
X131969999Y-97115472D01*
X131969999Y-96941119D01*
X131969769Y-96936868D01*
X131963727Y-96881244D01*
X131961452Y-96871676D01*
X131913635Y-96744125D01*
X131908286Y-96734353D01*
X131826990Y-96625879D01*
X131819121Y-96618010D01*
X131710647Y-96536714D01*
X131700875Y-96531365D01*
X131573320Y-96483546D01*
X131563762Y-96481273D01*
X131508130Y-96475230D01*
X131503883Y-96475000D01*
X131258930Y-96475000D01*
X131248259Y-96478884D01*
X131245000Y-96484528D01*
X131245000Y-97111070D01*
X130995000Y-97111070D01*
X130995000Y-96488931D01*
X130991116Y-96478260D01*
X130985472Y-96475001D01*
X130736119Y-96475001D01*
X130731868Y-96475231D01*
X130676244Y-96481273D01*
X130666676Y-96483548D01*
X130539125Y-96531365D01*
X130529353Y-96536714D01*
X130420879Y-96618010D01*
X130413010Y-96625879D01*
X130331714Y-96734353D01*
X130326365Y-96744125D01*
X130278546Y-96871680D01*
X130276273Y-96881238D01*
X130270230Y-96936870D01*
X130270000Y-96941117D01*
X130270000Y-97111070D01*
X129910499Y-97111070D01*
X129910499Y-96935241D01*
X129910499Y-96933372D01*
X129907502Y-96901657D01*
X129862368Y-96773133D01*
X129781438Y-96663562D01*
X129671867Y-96582632D01*
X129543343Y-96537498D01*
X129531181Y-96536348D01*
X129513485Y-96534675D01*
X129513475Y-96534675D01*
X129511629Y-96534500D01*
X129120840Y-96534500D01*
X128728372Y-96534501D01*
X128726524Y-96534676D01*
X128726516Y-96534676D01*
X128701449Y-96537045D01*
X128701448Y-96537045D01*
X128696657Y-96537498D01*
X128568133Y-96582632D01*
X128458562Y-96663562D01*
X128377632Y-96773133D01*
X128332498Y-96901657D01*
X128329500Y-96933371D01*
X128329501Y-97566628D01*
X128329676Y-97568479D01*
X128331892Y-97591925D01*
X128332498Y-97598343D01*
X128377632Y-97726867D01*
X128458562Y-97836438D01*
X128568133Y-97917368D01*
X128696657Y-97962502D01*
X128708819Y-97963652D01*
X128726515Y-97965325D01*
X128726525Y-97965325D01*
X128728371Y-97965500D01*
X128763938Y-97965500D01*
X129356593Y-97965499D01*
X129407373Y-97983981D01*
X129412454Y-97988638D01*
X130084722Y-98660906D01*
X130089379Y-98665987D01*
X130114072Y-98695415D01*
X130147338Y-98714621D01*
X130153145Y-98718321D01*
X130184607Y-98740351D01*
X130191283Y-98742140D01*
X130197547Y-98745061D01*
X130197497Y-98745169D01*
X130197907Y-98745339D01*
X130197948Y-98745228D01*
X130204444Y-98747592D01*
X130210428Y-98751047D01*
X130248266Y-98757719D01*
X130254976Y-98759207D01*
X130275556Y-98764721D01*
X130285404Y-98767360D01*
X130285405Y-98767360D01*
X130292078Y-98769148D01*
X130298961Y-98768546D01*
X130298963Y-98768546D01*
X130330335Y-98765801D01*
X130337220Y-98765500D01*
X131786594Y-98765500D01*
X131837374Y-98783982D01*
X131842455Y-98788639D01*
X132161361Y-99107545D01*
X132184199Y-99156521D01*
X132184500Y-99163406D01*
X132184500Y-100562783D01*
X132184199Y-100569669D01*
X132180852Y-100607922D01*
X132190793Y-100645024D01*
X132192281Y-100651734D01*
X132198953Y-100689572D01*
X132202408Y-100695556D01*
X132204772Y-100702052D01*
X132204661Y-100702093D01*
X132204831Y-100702503D01*
X132204939Y-100702453D01*
X132207860Y-100708717D01*
X132209649Y-100715393D01*
X132213613Y-100721055D01*
X132213614Y-100721056D01*
X132231679Y-100746855D01*
X132235379Y-100752662D01*
X132254585Y-100785928D01*
X132259880Y-100790371D01*
X132284015Y-100810623D01*
X132289095Y-100815279D01*
X132733456Y-101259640D01*
X132756294Y-101308616D01*
X132742308Y-101360814D01*
X132698042Y-101391809D01*
X132677599Y-101394501D01*
X132474266Y-101394501D01*
X132432934Y-101401047D01*
X132388967Y-101408010D01*
X132388965Y-101408011D01*
X132382825Y-101408983D01*
X132272609Y-101465141D01*
X132185141Y-101552609D01*
X132180681Y-101561363D01*
X132132542Y-101655841D01*
X132128983Y-101662825D01*
X132128010Y-101668967D01*
X132128010Y-101668968D01*
X132114986Y-101751199D01*
X132114500Y-101754265D01*
X132114501Y-102365734D01*
X132121333Y-102408870D01*
X132124843Y-102431032D01*
X132128983Y-102457175D01*
X132185141Y-102567391D01*
X132272609Y-102654859D01*
X132351367Y-102694988D01*
X132388220Y-102734508D01*
X132394500Y-102765376D01*
X132394500Y-103342783D01*
X132394199Y-103349669D01*
X132392082Y-103373870D01*
X132390852Y-103387922D01*
X132400793Y-103425024D01*
X132402281Y-103431734D01*
X132408953Y-103469572D01*
X132412408Y-103475556D01*
X132414772Y-103482052D01*
X132414661Y-103482093D01*
X132414831Y-103482503D01*
X132414939Y-103482453D01*
X132417860Y-103488717D01*
X132419649Y-103495393D01*
X132423613Y-103501055D01*
X132423614Y-103501056D01*
X132441679Y-103526855D01*
X132445382Y-103532667D01*
X132459193Y-103556588D01*
X132464585Y-103565928D01*
X132469880Y-103570371D01*
X132494015Y-103590623D01*
X132499095Y-103595279D01*
X133044727Y-104140912D01*
X133049384Y-104145993D01*
X133074072Y-104175415D01*
X133107324Y-104194613D01*
X133113135Y-104198316D01*
X133138944Y-104216387D01*
X133144607Y-104220352D01*
X133151281Y-104222140D01*
X133157549Y-104225063D01*
X133157499Y-104225170D01*
X133157906Y-104225339D01*
X133157947Y-104225227D01*
X133164443Y-104227591D01*
X133170428Y-104231047D01*
X133177234Y-104232247D01*
X133208257Y-104237717D01*
X133214978Y-104239207D01*
X133229675Y-104243145D01*
X133245405Y-104247360D01*
X133245406Y-104247360D01*
X133252079Y-104249148D01*
X133258962Y-104248546D01*
X133258964Y-104248546D01*
X133290336Y-104245801D01*
X133297221Y-104245500D01*
X134766594Y-104245500D01*
X134817374Y-104263982D01*
X134822455Y-104268639D01*
X135734722Y-105180906D01*
X135739379Y-105185987D01*
X135764072Y-105215415D01*
X135797338Y-105234621D01*
X135803145Y-105238321D01*
X135808644Y-105242171D01*
X135834607Y-105260351D01*
X135841283Y-105262140D01*
X135847547Y-105265061D01*
X135847497Y-105265169D01*
X135847907Y-105265339D01*
X135847948Y-105265228D01*
X135854444Y-105267592D01*
X135860428Y-105271047D01*
X135898266Y-105277719D01*
X135904971Y-105279206D01*
X135921703Y-105283689D01*
X135965968Y-105314685D01*
X135979953Y-105366883D01*
X135978736Y-105375408D01*
X135973197Y-105403257D01*
X135969103Y-105423837D01*
X135969103Y-105816161D01*
X135969861Y-105819970D01*
X135969861Y-105819972D01*
X135976735Y-105854528D01*
X135980156Y-105871728D01*
X135999788Y-105901110D01*
X136012632Y-105953599D01*
X135999789Y-105988887D01*
X135980156Y-106018271D01*
X135978639Y-106025900D01*
X135978638Y-106025901D01*
X135972036Y-106059091D01*
X135969103Y-106073838D01*
X135969103Y-106466162D01*
X135969861Y-106469972D01*
X135969861Y-106469973D01*
X135977841Y-106510089D01*
X135980156Y-106521729D01*
X135991842Y-106539218D01*
X135999788Y-106551111D01*
X136012631Y-106603602D01*
X135999787Y-106638889D01*
X135980156Y-106668270D01*
X135978639Y-106675899D01*
X135978638Y-106675900D01*
X135971454Y-106712017D01*
X135969103Y-106723837D01*
X135969103Y-107116161D01*
X135980156Y-107171728D01*
X136022260Y-107234742D01*
X136085274Y-107276846D01*
X136092903Y-107278363D01*
X136092904Y-107278364D01*
X136125055Y-107284759D01*
X136140841Y-107287899D01*
X137531663Y-107287899D01*
X137547449Y-107284759D01*
X137579600Y-107278364D01*
X137579601Y-107278363D01*
X137587230Y-107276846D01*
X137650244Y-107234742D01*
X137692348Y-107171728D01*
X137698056Y-107143032D01*
X137726090Y-107096833D01*
X137777261Y-107079463D01*
X137831399Y-107102583D01*
X140601967Y-109873152D01*
X140624805Y-109922128D01*
X140624430Y-109939324D01*
X140619134Y-109979553D01*
X140619135Y-110816462D01*
X140619473Y-110819027D01*
X140619473Y-110819032D01*
X140626773Y-110874483D01*
X140633844Y-110928199D01*
X140635825Y-110932982D01*
X140637166Y-110937987D01*
X140635246Y-110938501D01*
X140637264Y-110984759D01*
X140604365Y-111027630D01*
X140561921Y-111040000D01*
X140041346Y-111040000D01*
X139990566Y-111021518D01*
X139963546Y-110974718D01*
X139967526Y-110938366D01*
X139966102Y-110937984D01*
X139967441Y-110932986D01*
X139969424Y-110928199D01*
X139984134Y-110816463D01*
X139984133Y-109979554D01*
X139980470Y-109951723D01*
X139970100Y-109872952D01*
X139969424Y-109867817D01*
X139911838Y-109728792D01*
X139908686Y-109724684D01*
X139908684Y-109724681D01*
X139823382Y-109613515D01*
X139820232Y-109609410D01*
X139816127Y-109606260D01*
X139704960Y-109520958D01*
X139704957Y-109520956D01*
X139700849Y-109517804D01*
X139696062Y-109515821D01*
X139696060Y-109515820D01*
X139634265Y-109490224D01*
X139561825Y-109460218D01*
X139517678Y-109454406D01*
X139452659Y-109445846D01*
X139452654Y-109445846D01*
X139450089Y-109445508D01*
X139447499Y-109445508D01*
X139031635Y-109445509D01*
X138613180Y-109445509D01*
X138610615Y-109445847D01*
X138610610Y-109445847D01*
X138529223Y-109456561D01*
X138501443Y-109460218D01*
X138362418Y-109517804D01*
X138358310Y-109520956D01*
X138358307Y-109520958D01*
X138295296Y-109569309D01*
X138243036Y-109609410D01*
X138151430Y-109728793D01*
X138093844Y-109867817D01*
X138093168Y-109872952D01*
X138093168Y-109872953D01*
X138085594Y-109930487D01*
X138079134Y-109979553D01*
X138079135Y-110816462D01*
X138079473Y-110819027D01*
X138079473Y-110819032D01*
X138086773Y-110874483D01*
X138093844Y-110928199D01*
X138095825Y-110932982D01*
X138097166Y-110937987D01*
X138095246Y-110938501D01*
X138097264Y-110984759D01*
X138064365Y-111027630D01*
X138021921Y-111040000D01*
X137501346Y-111040000D01*
X137450566Y-111021518D01*
X137423546Y-110974718D01*
X137427526Y-110938366D01*
X137426102Y-110937984D01*
X137427441Y-110932986D01*
X137429424Y-110928199D01*
X137444134Y-110816463D01*
X137444133Y-109979554D01*
X137440470Y-109951723D01*
X137430100Y-109872952D01*
X137429424Y-109867817D01*
X137371838Y-109728792D01*
X137368686Y-109724684D01*
X137368684Y-109724681D01*
X137283382Y-109613515D01*
X137280232Y-109609410D01*
X137276127Y-109606260D01*
X137164960Y-109520958D01*
X137164957Y-109520956D01*
X137160849Y-109517804D01*
X137156062Y-109515821D01*
X137156060Y-109515820D01*
X137094265Y-109490224D01*
X137021825Y-109460218D01*
X136977678Y-109454406D01*
X136912659Y-109445846D01*
X136912654Y-109445846D01*
X136910089Y-109445508D01*
X136907499Y-109445508D01*
X136491635Y-109445509D01*
X136073180Y-109445509D01*
X136070615Y-109445847D01*
X136070610Y-109445847D01*
X135989223Y-109456561D01*
X135961443Y-109460218D01*
X135822418Y-109517804D01*
X135818310Y-109520956D01*
X135818307Y-109520958D01*
X135755296Y-109569309D01*
X135703036Y-109609410D01*
X135611430Y-109728793D01*
X135553844Y-109867817D01*
X135553168Y-109872952D01*
X135553168Y-109872953D01*
X135545594Y-109930487D01*
X135539134Y-109979553D01*
X135539135Y-110816462D01*
X135539473Y-110819027D01*
X135539473Y-110819032D01*
X135546773Y-110874483D01*
X135553844Y-110928199D01*
X135555825Y-110932982D01*
X135557166Y-110937987D01*
X135555246Y-110938501D01*
X135557264Y-110984759D01*
X135524365Y-111027630D01*
X135481921Y-111040000D01*
X135019118Y-111040000D01*
X134968338Y-111021518D01*
X134941318Y-110974718D01*
X134943255Y-110938960D01*
X134959691Y-110882384D01*
X134961136Y-110874473D01*
X134963511Y-110844293D01*
X134963634Y-110841175D01*
X134963634Y-110536938D01*
X134959750Y-110526267D01*
X134954106Y-110523008D01*
X132953565Y-110523008D01*
X132942894Y-110526892D01*
X132939635Y-110532536D01*
X132939635Y-110841191D01*
X132939755Y-110844264D01*
X132942133Y-110874483D01*
X132943575Y-110882379D01*
X132960013Y-110938960D01*
X132956432Y-110992880D01*
X132919029Y-111031884D01*
X132884150Y-111040000D01*
X132421346Y-111040000D01*
X132370566Y-111021518D01*
X132343546Y-110974718D01*
X132347526Y-110938366D01*
X132346102Y-110937984D01*
X132347441Y-110932986D01*
X132349424Y-110928199D01*
X132364134Y-110816463D01*
X132364133Y-110259078D01*
X132939634Y-110259078D01*
X132943518Y-110269749D01*
X132949162Y-110273008D01*
X133812704Y-110273008D01*
X133823375Y-110269124D01*
X133826634Y-110263480D01*
X133826634Y-110259078D01*
X134076634Y-110259078D01*
X134080518Y-110269749D01*
X134086162Y-110273008D01*
X134949703Y-110273008D01*
X134960374Y-110269124D01*
X134963633Y-110263480D01*
X134963633Y-109954825D01*
X134963513Y-109951752D01*
X134961135Y-109921533D01*
X134959693Y-109913637D01*
X134917728Y-109769195D01*
X134913807Y-109760133D01*
X134837714Y-109631468D01*
X134831668Y-109623674D01*
X134725968Y-109517974D01*
X134718174Y-109511928D01*
X134589509Y-109435835D01*
X134580447Y-109431914D01*
X134436010Y-109389951D01*
X134428099Y-109388506D01*
X134397919Y-109386131D01*
X134394800Y-109386008D01*
X134090564Y-109386008D01*
X134079893Y-109389892D01*
X134076634Y-109395536D01*
X134076634Y-110259078D01*
X133826634Y-110259078D01*
X133826634Y-109399939D01*
X133822750Y-109389268D01*
X133817106Y-109386009D01*
X133508451Y-109386009D01*
X133505378Y-109386129D01*
X133475159Y-109388507D01*
X133467263Y-109389949D01*
X133322821Y-109431914D01*
X133313759Y-109435835D01*
X133185094Y-109511928D01*
X133177300Y-109517974D01*
X133071600Y-109623674D01*
X133065554Y-109631468D01*
X132989461Y-109760133D01*
X132985540Y-109769195D01*
X132943577Y-109913632D01*
X132942132Y-109921543D01*
X132939757Y-109951723D01*
X132939634Y-109954842D01*
X132939634Y-110259078D01*
X132364133Y-110259078D01*
X132364133Y-109979554D01*
X132360470Y-109951723D01*
X132350100Y-109872952D01*
X132349424Y-109867817D01*
X132291838Y-109728792D01*
X132288686Y-109724684D01*
X132288684Y-109724681D01*
X132203382Y-109613515D01*
X132200232Y-109609410D01*
X132196127Y-109606260D01*
X132084960Y-109520958D01*
X132084957Y-109520956D01*
X132080849Y-109517804D01*
X132076062Y-109515821D01*
X132076060Y-109515820D01*
X132014265Y-109490224D01*
X131941825Y-109460218D01*
X131897678Y-109454406D01*
X131832659Y-109445846D01*
X131832654Y-109445846D01*
X131830089Y-109445508D01*
X131411796Y-109445508D01*
X130993180Y-109445509D01*
X130990615Y-109445847D01*
X130990610Y-109445847D01*
X130978586Y-109447430D01*
X130964215Y-109449322D01*
X130911458Y-109437625D01*
X130898049Y-109426864D01*
X130463638Y-108992454D01*
X130440801Y-108943479D01*
X130440500Y-108936594D01*
X130440500Y-107699660D01*
X130458982Y-107648880D01*
X130505782Y-107621860D01*
X130559000Y-107631244D01*
X130561354Y-107632785D01*
X130563382Y-107633859D01*
X130568133Y-107637368D01*
X130696657Y-107682502D01*
X130708819Y-107683652D01*
X130726515Y-107685325D01*
X130726525Y-107685325D01*
X130728371Y-107685500D01*
X131119160Y-107685500D01*
X131511628Y-107685499D01*
X131513476Y-107685324D01*
X131513484Y-107685324D01*
X131538551Y-107682955D01*
X131538552Y-107682955D01*
X131543343Y-107682502D01*
X131671867Y-107637368D01*
X131781438Y-107556438D01*
X131862368Y-107446867D01*
X131907502Y-107318343D01*
X131910500Y-107286629D01*
X131910499Y-106653372D01*
X131910084Y-106648972D01*
X131907955Y-106626449D01*
X131907955Y-106626448D01*
X131907502Y-106621657D01*
X131862368Y-106493133D01*
X131824438Y-106441780D01*
X133245000Y-106441780D01*
X133245338Y-106446939D01*
X133258802Y-106549206D01*
X133261461Y-106559130D01*
X133314174Y-106686388D01*
X133319311Y-106695288D01*
X133403171Y-106804576D01*
X133410424Y-106811829D01*
X133519712Y-106895689D01*
X133528612Y-106900826D01*
X133655870Y-106953539D01*
X133665794Y-106956198D01*
X133768061Y-106969662D01*
X133773220Y-106970000D01*
X133981070Y-106970000D01*
X133991741Y-106966116D01*
X133995000Y-106960472D01*
X133995000Y-106956070D01*
X134245000Y-106956070D01*
X134248884Y-106966741D01*
X134254528Y-106970000D01*
X134466780Y-106970000D01*
X134471939Y-106969662D01*
X134574206Y-106956198D01*
X134584130Y-106953539D01*
X134711388Y-106900826D01*
X134720288Y-106895689D01*
X134829576Y-106811829D01*
X134836829Y-106804576D01*
X134920689Y-106695288D01*
X134925826Y-106686388D01*
X134978539Y-106559130D01*
X134981198Y-106549206D01*
X134994662Y-106446939D01*
X134995000Y-106441780D01*
X134995000Y-105858930D01*
X134991116Y-105848259D01*
X134985472Y-105845000D01*
X134258930Y-105845000D01*
X134248259Y-105848884D01*
X134245000Y-105854528D01*
X134245000Y-106956070D01*
X133995000Y-106956070D01*
X133995000Y-105858930D01*
X133991116Y-105848259D01*
X133985472Y-105845000D01*
X133258930Y-105845000D01*
X133248259Y-105848884D01*
X133245000Y-105854528D01*
X133245000Y-106441780D01*
X131824438Y-106441780D01*
X131781438Y-106383562D01*
X131671867Y-106302632D01*
X131543343Y-106257498D01*
X131531181Y-106256348D01*
X131513485Y-106254675D01*
X131513475Y-106254675D01*
X131511629Y-106254500D01*
X131120840Y-106254500D01*
X130728372Y-106254501D01*
X130726524Y-106254676D01*
X130726516Y-106254676D01*
X130701449Y-106257045D01*
X130701448Y-106257045D01*
X130696657Y-106257498D01*
X130568133Y-106302632D01*
X130563384Y-106306140D01*
X130558165Y-106308903D01*
X130556986Y-106306677D01*
X130514603Y-106319188D01*
X130465066Y-106297594D01*
X130441000Y-106249210D01*
X130440500Y-106240340D01*
X130440500Y-105581070D01*
X133245000Y-105581070D01*
X133248884Y-105591741D01*
X133254528Y-105595000D01*
X133981070Y-105595000D01*
X133991741Y-105591116D01*
X133995000Y-105585472D01*
X133995000Y-105581070D01*
X134245000Y-105581070D01*
X134248884Y-105591741D01*
X134254528Y-105595000D01*
X134981070Y-105595000D01*
X134991741Y-105591116D01*
X134995000Y-105585472D01*
X134995000Y-104998220D01*
X134994662Y-104993061D01*
X134981198Y-104890794D01*
X134978539Y-104880870D01*
X134925826Y-104753612D01*
X134920689Y-104744712D01*
X134836829Y-104635424D01*
X134829576Y-104628171D01*
X134720288Y-104544311D01*
X134711388Y-104539174D01*
X134584130Y-104486461D01*
X134574206Y-104483802D01*
X134471939Y-104470338D01*
X134466780Y-104470000D01*
X134258930Y-104470000D01*
X134248259Y-104473884D01*
X134245000Y-104479528D01*
X134245000Y-105581070D01*
X133995000Y-105581070D01*
X133995000Y-104483930D01*
X133991116Y-104473259D01*
X133985472Y-104470000D01*
X133773220Y-104470000D01*
X133768061Y-104470338D01*
X133665794Y-104483802D01*
X133655870Y-104486461D01*
X133528612Y-104539174D01*
X133519712Y-104544311D01*
X133410424Y-104628171D01*
X133403171Y-104635424D01*
X133319311Y-104744712D01*
X133314174Y-104753612D01*
X133261461Y-104880870D01*
X133258802Y-104890794D01*
X133245338Y-104993061D01*
X133245000Y-104998220D01*
X133245000Y-105581070D01*
X130440500Y-105581070D01*
X130440500Y-105492221D01*
X130440801Y-105485336D01*
X130443546Y-105453964D01*
X130443546Y-105453962D01*
X130444148Y-105447079D01*
X130434207Y-105409978D01*
X130432717Y-105403257D01*
X130427247Y-105372234D01*
X130426047Y-105365428D01*
X130422591Y-105359443D01*
X130420227Y-105352947D01*
X130420339Y-105352906D01*
X130420170Y-105352499D01*
X130420063Y-105352549D01*
X130417140Y-105346281D01*
X130415352Y-105339607D01*
X130408625Y-105330000D01*
X130393316Y-105308135D01*
X130389613Y-105302324D01*
X130389315Y-105301807D01*
X130370415Y-105269072D01*
X130340991Y-105244382D01*
X130335911Y-105239726D01*
X129933639Y-104837454D01*
X129910801Y-104788478D01*
X129910500Y-104781593D01*
X129910499Y-104155241D01*
X129910499Y-104153372D01*
X129909869Y-104146699D01*
X129907955Y-104126449D01*
X129907955Y-104126448D01*
X129907502Y-104121657D01*
X129862368Y-103993133D01*
X129781438Y-103883562D01*
X129671867Y-103802632D01*
X129543343Y-103757498D01*
X129531181Y-103756348D01*
X129513485Y-103754675D01*
X129513475Y-103754675D01*
X129511629Y-103754500D01*
X129120840Y-103754500D01*
X128728372Y-103754501D01*
X128726524Y-103754676D01*
X128726516Y-103754676D01*
X128701449Y-103757045D01*
X128701448Y-103757045D01*
X128696657Y-103757498D01*
X128568133Y-103802632D01*
X128458562Y-103883562D01*
X128377632Y-103993133D01*
X128332498Y-104121657D01*
X128331891Y-104128075D01*
X128330131Y-104146699D01*
X128329500Y-104153371D01*
X128329501Y-104786628D01*
X128332498Y-104818343D01*
X128377632Y-104946867D01*
X128458562Y-105056438D01*
X128568133Y-105137368D01*
X128696657Y-105182502D01*
X128708819Y-105183652D01*
X128726515Y-105185325D01*
X128726525Y-105185325D01*
X128728371Y-105185500D01*
X128763937Y-105185500D01*
X129356592Y-105185499D01*
X129407372Y-105203981D01*
X129412454Y-105208638D01*
X129786362Y-105582547D01*
X129809199Y-105631523D01*
X129809500Y-105638408D01*
X129809500Y-106247726D01*
X129791018Y-106298506D01*
X129744218Y-106325526D01*
X129691000Y-106316142D01*
X129683565Y-106311272D01*
X129680357Y-106308903D01*
X129671867Y-106302632D01*
X129543343Y-106257498D01*
X129531181Y-106256348D01*
X129513485Y-106254675D01*
X129513475Y-106254675D01*
X129511629Y-106254500D01*
X129120840Y-106254500D01*
X128728372Y-106254501D01*
X128726524Y-106254676D01*
X128726516Y-106254676D01*
X128701449Y-106257045D01*
X128701448Y-106257045D01*
X128696657Y-106257498D01*
X128568133Y-106302632D01*
X128458562Y-106383562D01*
X128377632Y-106493133D01*
X128332498Y-106621657D01*
X128331362Y-106633670D01*
X128329916Y-106648972D01*
X128329500Y-106653371D01*
X128329501Y-107286628D01*
X128329676Y-107288476D01*
X128329676Y-107288484D01*
X128331397Y-107306693D01*
X128332498Y-107318343D01*
X128377632Y-107446867D01*
X128458562Y-107556438D01*
X128568133Y-107637368D01*
X128696657Y-107682502D01*
X128722935Y-107684986D01*
X128771750Y-107708165D01*
X128794246Y-107757299D01*
X128794500Y-107763635D01*
X128794500Y-109366509D01*
X128776018Y-109417289D01*
X128729218Y-109444309D01*
X128715500Y-109445509D01*
X128453180Y-109445509D01*
X128450615Y-109445847D01*
X128450610Y-109445847D01*
X128369223Y-109456561D01*
X128341443Y-109460218D01*
X128202418Y-109517804D01*
X128198310Y-109520956D01*
X128198307Y-109520958D01*
X128135296Y-109569309D01*
X128083036Y-109609410D01*
X127991430Y-109728793D01*
X127933844Y-109867817D01*
X127933168Y-109872952D01*
X127933168Y-109872953D01*
X127925594Y-109930487D01*
X127919134Y-109979553D01*
X127919135Y-110816462D01*
X127919473Y-110819027D01*
X127919473Y-110819032D01*
X127926773Y-110874483D01*
X127933844Y-110928199D01*
X127935825Y-110932982D01*
X127937166Y-110937987D01*
X127935246Y-110938501D01*
X127937264Y-110984759D01*
X127904365Y-111027630D01*
X127861921Y-111040000D01*
X127399118Y-111040000D01*
X127348338Y-111021518D01*
X127321318Y-110974718D01*
X127323255Y-110938960D01*
X127339691Y-110882384D01*
X127341136Y-110874473D01*
X127343511Y-110844293D01*
X127343634Y-110841175D01*
X127343634Y-110536938D01*
X127339750Y-110526267D01*
X127334106Y-110523008D01*
X125333565Y-110523008D01*
X125322894Y-110526892D01*
X125319635Y-110532536D01*
X125319635Y-110841191D01*
X125319755Y-110844264D01*
X125322133Y-110874483D01*
X125323575Y-110882379D01*
X125340013Y-110938960D01*
X125336432Y-110992880D01*
X125299029Y-111031884D01*
X125264150Y-111040000D01*
X124219000Y-111040000D01*
X124168220Y-111021518D01*
X124141200Y-110974718D01*
X124140000Y-110961000D01*
X124140000Y-110259078D01*
X125319634Y-110259078D01*
X125323518Y-110269749D01*
X125329162Y-110273008D01*
X126192704Y-110273008D01*
X126203375Y-110269124D01*
X126206634Y-110263480D01*
X126206634Y-110259078D01*
X126456634Y-110259078D01*
X126460518Y-110269749D01*
X126466162Y-110273008D01*
X127329703Y-110273008D01*
X127340374Y-110269124D01*
X127343633Y-110263480D01*
X127343633Y-109954825D01*
X127343513Y-109951752D01*
X127341135Y-109921533D01*
X127339693Y-109913637D01*
X127297728Y-109769195D01*
X127293807Y-109760133D01*
X127217714Y-109631468D01*
X127211668Y-109623674D01*
X127105968Y-109517974D01*
X127098174Y-109511928D01*
X126969509Y-109435835D01*
X126960447Y-109431914D01*
X126816010Y-109389951D01*
X126808099Y-109388506D01*
X126777919Y-109386131D01*
X126774800Y-109386008D01*
X126470564Y-109386008D01*
X126459893Y-109389892D01*
X126456634Y-109395536D01*
X126456634Y-110259078D01*
X126206634Y-110259078D01*
X126206634Y-109399939D01*
X126202750Y-109389268D01*
X126197106Y-109386009D01*
X125888451Y-109386009D01*
X125885378Y-109386129D01*
X125855159Y-109388507D01*
X125847263Y-109389949D01*
X125702821Y-109431914D01*
X125693759Y-109435835D01*
X125565094Y-109511928D01*
X125557300Y-109517974D01*
X125451600Y-109623674D01*
X125445554Y-109631468D01*
X125369461Y-109760133D01*
X125365540Y-109769195D01*
X125323577Y-109913632D01*
X125322132Y-109921543D01*
X125319757Y-109951723D01*
X125319634Y-109954842D01*
X125319634Y-110259078D01*
X124140000Y-110259078D01*
X124140000Y-107049000D01*
X124158482Y-106998220D01*
X124205282Y-106971200D01*
X124219000Y-106970000D01*
X124466780Y-106970000D01*
X124471939Y-106969662D01*
X124574206Y-106956198D01*
X124584130Y-106953539D01*
X124711388Y-106900826D01*
X124720288Y-106895689D01*
X124829576Y-106811829D01*
X124836829Y-106804576D01*
X124920689Y-106695288D01*
X124925826Y-106686388D01*
X124939502Y-106653371D01*
X126329500Y-106653371D01*
X126329501Y-107286628D01*
X126329676Y-107288476D01*
X126329676Y-107288484D01*
X126331397Y-107306693D01*
X126332498Y-107318343D01*
X126377632Y-107446867D01*
X126458562Y-107556438D01*
X126568133Y-107637368D01*
X126696657Y-107682502D01*
X126708819Y-107683652D01*
X126726515Y-107685325D01*
X126726525Y-107685325D01*
X126728371Y-107685500D01*
X127119160Y-107685500D01*
X127511628Y-107685499D01*
X127513476Y-107685324D01*
X127513484Y-107685324D01*
X127538551Y-107682955D01*
X127538552Y-107682955D01*
X127543343Y-107682502D01*
X127671867Y-107637368D01*
X127781438Y-107556438D01*
X127862368Y-107446867D01*
X127907502Y-107318343D01*
X127910500Y-107286629D01*
X127910499Y-106653372D01*
X127910084Y-106648972D01*
X127907955Y-106626449D01*
X127907955Y-106626448D01*
X127907502Y-106621657D01*
X127862368Y-106493133D01*
X127781438Y-106383562D01*
X127671867Y-106302632D01*
X127543343Y-106257498D01*
X127531181Y-106256348D01*
X127513485Y-106254675D01*
X127513475Y-106254675D01*
X127511629Y-106254500D01*
X127120840Y-106254500D01*
X126728372Y-106254501D01*
X126726524Y-106254676D01*
X126726516Y-106254676D01*
X126701449Y-106257045D01*
X126701448Y-106257045D01*
X126696657Y-106257498D01*
X126568133Y-106302632D01*
X126458562Y-106383562D01*
X126377632Y-106493133D01*
X126332498Y-106621657D01*
X126331362Y-106633670D01*
X126329916Y-106648972D01*
X126329500Y-106653371D01*
X124939502Y-106653371D01*
X124978539Y-106559130D01*
X124981198Y-106549206D01*
X124994662Y-106446939D01*
X124995000Y-106441780D01*
X124995000Y-105858930D01*
X124991116Y-105848259D01*
X124985472Y-105845000D01*
X124219000Y-105845000D01*
X124168220Y-105826518D01*
X124141200Y-105779718D01*
X124140000Y-105766000D01*
X124140000Y-105674000D01*
X124158482Y-105623220D01*
X124205282Y-105596200D01*
X124219000Y-105595000D01*
X124981070Y-105595000D01*
X124991741Y-105591116D01*
X124995000Y-105585472D01*
X124995000Y-104998220D01*
X124994662Y-104993061D01*
X124981198Y-104890794D01*
X124978539Y-104880870D01*
X124925826Y-104753612D01*
X124920689Y-104744712D01*
X124836829Y-104635424D01*
X124829576Y-104628171D01*
X124720288Y-104544311D01*
X124711388Y-104539174D01*
X124584130Y-104486461D01*
X124574206Y-104483802D01*
X124471939Y-104470338D01*
X124466780Y-104470000D01*
X124219000Y-104470000D01*
X124168220Y-104451518D01*
X124141200Y-104404718D01*
X124140000Y-104391000D01*
X124140000Y-104153371D01*
X126329500Y-104153371D01*
X126329501Y-104786628D01*
X126332498Y-104818343D01*
X126377632Y-104946867D01*
X126458562Y-105056438D01*
X126568133Y-105137368D01*
X126696657Y-105182502D01*
X126708819Y-105183652D01*
X126726515Y-105185325D01*
X126726525Y-105185325D01*
X126728371Y-105185500D01*
X127119160Y-105185500D01*
X127511628Y-105185499D01*
X127513476Y-105185324D01*
X127513484Y-105185324D01*
X127538551Y-105182955D01*
X127538552Y-105182955D01*
X127543343Y-105182502D01*
X127671867Y-105137368D01*
X127781438Y-105056438D01*
X127862368Y-104946867D01*
X127907502Y-104818343D01*
X127910500Y-104786629D01*
X127910499Y-104153372D01*
X127909869Y-104146699D01*
X127907955Y-104126449D01*
X127907955Y-104126448D01*
X127907502Y-104121657D01*
X127862368Y-103993133D01*
X127781438Y-103883562D01*
X127671867Y-103802632D01*
X127543343Y-103757498D01*
X127531181Y-103756348D01*
X127513485Y-103754675D01*
X127513475Y-103754675D01*
X127511629Y-103754500D01*
X127120840Y-103754500D01*
X126728372Y-103754501D01*
X126726524Y-103754676D01*
X126726516Y-103754676D01*
X126701449Y-103757045D01*
X126701448Y-103757045D01*
X126696657Y-103757498D01*
X126568133Y-103802632D01*
X126458562Y-103883562D01*
X126377632Y-103993133D01*
X126332498Y-104121657D01*
X126331891Y-104128075D01*
X126330131Y-104146699D01*
X126329500Y-104153371D01*
X124140000Y-104153371D01*
X124140000Y-101734265D01*
X125324500Y-101734265D01*
X125324501Y-102345734D01*
X125328875Y-102373350D01*
X125337268Y-102426344D01*
X125338983Y-102437175D01*
X125395141Y-102547391D01*
X125482609Y-102634859D01*
X125524809Y-102656361D01*
X125587282Y-102688193D01*
X125587284Y-102688194D01*
X125592825Y-102691017D01*
X125598968Y-102691990D01*
X125681201Y-102705015D01*
X125681205Y-102705015D01*
X125684265Y-102705500D01*
X125914962Y-102705500D01*
X126145734Y-102705499D01*
X126190247Y-102698449D01*
X126231033Y-102691990D01*
X126231035Y-102691989D01*
X126237175Y-102691017D01*
X126347391Y-102634859D01*
X126434859Y-102547391D01*
X126471489Y-102475500D01*
X126488193Y-102442718D01*
X126488194Y-102442716D01*
X126491017Y-102437175D01*
X126493006Y-102424618D01*
X126505015Y-102348799D01*
X126505015Y-102348795D01*
X126505500Y-102345735D01*
X126505499Y-101734266D01*
X126495845Y-101673307D01*
X126491990Y-101648967D01*
X126491989Y-101648965D01*
X126491017Y-101642825D01*
X126434859Y-101532609D01*
X126347391Y-101445141D01*
X126278635Y-101410108D01*
X126241780Y-101370587D01*
X126235500Y-101339719D01*
X126235500Y-101113406D01*
X126253982Y-101062626D01*
X126258639Y-101057545D01*
X126827545Y-100488639D01*
X126876521Y-100465801D01*
X126883406Y-100465500D01*
X126912422Y-100465500D01*
X127087270Y-100465499D01*
X127138049Y-100483981D01*
X127165069Y-100530780D01*
X127155685Y-100583999D01*
X127149944Y-100592591D01*
X127132135Y-100615801D01*
X127107874Y-100647418D01*
X127078067Y-100719379D01*
X127065360Y-100750057D01*
X127053412Y-100778901D01*
X127034836Y-100920000D01*
X127053412Y-101061099D01*
X127107874Y-101192582D01*
X127111026Y-101196690D01*
X127111028Y-101196693D01*
X127194511Y-101305489D01*
X127193018Y-101306635D01*
X127212715Y-101348876D01*
X127198729Y-101401074D01*
X127169884Y-101426148D01*
X127132609Y-101445141D01*
X127045141Y-101532609D01*
X127018949Y-101584013D01*
X127005939Y-101609548D01*
X126988983Y-101642825D01*
X126988010Y-101648967D01*
X126988010Y-101648968D01*
X126974986Y-101731199D01*
X126974500Y-101734265D01*
X126974501Y-102345734D01*
X126978875Y-102373350D01*
X126987268Y-102426344D01*
X126988983Y-102437175D01*
X127045141Y-102547391D01*
X127132609Y-102634859D01*
X127174809Y-102656361D01*
X127237282Y-102688193D01*
X127237284Y-102688194D01*
X127242825Y-102691017D01*
X127248968Y-102691990D01*
X127331201Y-102705015D01*
X127331205Y-102705015D01*
X127334265Y-102705500D01*
X127564962Y-102705500D01*
X127795734Y-102705499D01*
X127840247Y-102698449D01*
X127881033Y-102691990D01*
X127881035Y-102691989D01*
X127887175Y-102691017D01*
X127997391Y-102634859D01*
X128084859Y-102547391D01*
X128121489Y-102475500D01*
X128138193Y-102442718D01*
X128138194Y-102442716D01*
X128141017Y-102437175D01*
X128143006Y-102424618D01*
X128155015Y-102348799D01*
X128155015Y-102348795D01*
X128155500Y-102345735D01*
X128155499Y-101734266D01*
X128145845Y-101673307D01*
X128141990Y-101648967D01*
X128141989Y-101648965D01*
X128141017Y-101642825D01*
X128084859Y-101532609D01*
X127997391Y-101445141D01*
X127979994Y-101436277D01*
X127943139Y-101396757D01*
X127940309Y-101342792D01*
X127959997Y-101310026D01*
X127961384Y-101308639D01*
X127965489Y-101305489D01*
X127988075Y-101276055D01*
X128048972Y-101196693D01*
X128048974Y-101196690D01*
X128052126Y-101192582D01*
X128106588Y-101061099D01*
X128125164Y-100920000D01*
X128106588Y-100778901D01*
X128094641Y-100750057D01*
X128081933Y-100719379D01*
X128052126Y-100647418D01*
X128027866Y-100615801D01*
X127968639Y-100538616D01*
X127965489Y-100534511D01*
X127912328Y-100493719D01*
X127856693Y-100451028D01*
X127856690Y-100451026D01*
X127852582Y-100447874D01*
X127828411Y-100437862D01*
X127788571Y-100401355D01*
X127781518Y-100347779D01*
X127795097Y-100317945D01*
X127862368Y-100226867D01*
X127907502Y-100098343D01*
X127908652Y-100086181D01*
X127910325Y-100068485D01*
X127910325Y-100068475D01*
X127910500Y-100066629D01*
X127910499Y-99433372D01*
X127910499Y-99433371D01*
X128329500Y-99433371D01*
X128329501Y-100066628D01*
X128329676Y-100068476D01*
X128329676Y-100068484D01*
X128332045Y-100093549D01*
X128332498Y-100098343D01*
X128377632Y-100226867D01*
X128458562Y-100336438D01*
X128568133Y-100417368D01*
X128696657Y-100462502D01*
X128719447Y-100464656D01*
X128726519Y-100465325D01*
X128726521Y-100465325D01*
X128728371Y-100465500D01*
X128729332Y-100465500D01*
X128779072Y-100486303D01*
X128803859Y-100534322D01*
X128804500Y-100544364D01*
X128804500Y-102452783D01*
X128804199Y-102459669D01*
X128801938Y-102485512D01*
X128800852Y-102497922D01*
X128802855Y-102505395D01*
X128810790Y-102535011D01*
X128812281Y-102541736D01*
X128817753Y-102572768D01*
X128818953Y-102579572D01*
X128822407Y-102585555D01*
X128824772Y-102592052D01*
X128824661Y-102592093D01*
X128824831Y-102592503D01*
X128824939Y-102592453D01*
X128827860Y-102598717D01*
X128829649Y-102605393D01*
X128833613Y-102611055D01*
X128833614Y-102611056D01*
X128851679Y-102636855D01*
X128855379Y-102642662D01*
X128874585Y-102675928D01*
X128891663Y-102690258D01*
X128904015Y-102700623D01*
X128909095Y-102705279D01*
X130306361Y-104102545D01*
X130329199Y-104151521D01*
X130329500Y-104158406D01*
X130329501Y-104473259D01*
X130329501Y-104786628D01*
X130332498Y-104818343D01*
X130377632Y-104946867D01*
X130458562Y-105056438D01*
X130568133Y-105137368D01*
X130696657Y-105182502D01*
X130708819Y-105183652D01*
X130726515Y-105185325D01*
X130726525Y-105185325D01*
X130728371Y-105185500D01*
X131119160Y-105185500D01*
X131511628Y-105185499D01*
X131513476Y-105185324D01*
X131513484Y-105185324D01*
X131538551Y-105182955D01*
X131538552Y-105182955D01*
X131543343Y-105182502D01*
X131671867Y-105137368D01*
X131781438Y-105056438D01*
X131862368Y-104946867D01*
X131907502Y-104818343D01*
X131910500Y-104786629D01*
X131910499Y-104153372D01*
X131909869Y-104146699D01*
X131907955Y-104126449D01*
X131907955Y-104126448D01*
X131907502Y-104121657D01*
X131862368Y-103993133D01*
X131781438Y-103883562D01*
X131671867Y-103802632D01*
X131543343Y-103757498D01*
X131531181Y-103756348D01*
X131513485Y-103754675D01*
X131513475Y-103754675D01*
X131511629Y-103754500D01*
X131476062Y-103754500D01*
X130883407Y-103754501D01*
X130832627Y-103736019D01*
X130827546Y-103731362D01*
X129458639Y-102362455D01*
X129435801Y-102313479D01*
X129435500Y-102306594D01*
X129435500Y-100544364D01*
X129453982Y-100493584D01*
X129500782Y-100466564D01*
X129510356Y-100465499D01*
X129511628Y-100465499D01*
X129529849Y-100463777D01*
X129538551Y-100462955D01*
X129538552Y-100462955D01*
X129543343Y-100462502D01*
X129671867Y-100417368D01*
X129781438Y-100336438D01*
X129862368Y-100226867D01*
X129907502Y-100098343D01*
X129908652Y-100086181D01*
X129910325Y-100068485D01*
X129910325Y-100068475D01*
X129910500Y-100066629D01*
X129910499Y-99433372D01*
X129910499Y-99433371D01*
X130329500Y-99433371D01*
X130329501Y-100066628D01*
X130329676Y-100068476D01*
X130329676Y-100068484D01*
X130332045Y-100093549D01*
X130332498Y-100098343D01*
X130377632Y-100226867D01*
X130458562Y-100336438D01*
X130568133Y-100417368D01*
X130573704Y-100419324D01*
X130573707Y-100419326D01*
X130686676Y-100458998D01*
X130728464Y-100493261D01*
X130739500Y-100533535D01*
X130739500Y-101357171D01*
X130721018Y-101407951D01*
X130696367Y-101427560D01*
X130622609Y-101465141D01*
X130535141Y-101552609D01*
X130530681Y-101561363D01*
X130482542Y-101655841D01*
X130478983Y-101662825D01*
X130478010Y-101668967D01*
X130478010Y-101668968D01*
X130464986Y-101751199D01*
X130464500Y-101754265D01*
X130464501Y-102365734D01*
X130471333Y-102408870D01*
X130474843Y-102431032D01*
X130478983Y-102457175D01*
X130535141Y-102567391D01*
X130622609Y-102654859D01*
X130635211Y-102661280D01*
X130727282Y-102708193D01*
X130727284Y-102708194D01*
X130732825Y-102711017D01*
X130738968Y-102711990D01*
X130821201Y-102725015D01*
X130821205Y-102725015D01*
X130824265Y-102725500D01*
X131054962Y-102725500D01*
X131285734Y-102725499D01*
X131330247Y-102718449D01*
X131371033Y-102711990D01*
X131371035Y-102711989D01*
X131377175Y-102711017D01*
X131487391Y-102654859D01*
X131574859Y-102567391D01*
X131607458Y-102503412D01*
X131628193Y-102462718D01*
X131628194Y-102462716D01*
X131631017Y-102457175D01*
X131642638Y-102383807D01*
X131645015Y-102368799D01*
X131645015Y-102368795D01*
X131645500Y-102365735D01*
X131645499Y-101754266D01*
X131638342Y-101709079D01*
X131631990Y-101668967D01*
X131631989Y-101668965D01*
X131631017Y-101662825D01*
X131574859Y-101552609D01*
X131487391Y-101465141D01*
X131413634Y-101427560D01*
X131376780Y-101388038D01*
X131370500Y-101357171D01*
X131370500Y-100544499D01*
X131388982Y-100493719D01*
X131435782Y-100466699D01*
X131449500Y-100465499D01*
X131511628Y-100465499D01*
X131513476Y-100465324D01*
X131513484Y-100465324D01*
X131538551Y-100462955D01*
X131538552Y-100462955D01*
X131543343Y-100462502D01*
X131671867Y-100417368D01*
X131781438Y-100336438D01*
X131862368Y-100226867D01*
X131907502Y-100098343D01*
X131908652Y-100086181D01*
X131910325Y-100068485D01*
X131910325Y-100068475D01*
X131910500Y-100066629D01*
X131910499Y-99433372D01*
X131907502Y-99401657D01*
X131862368Y-99273133D01*
X131781438Y-99163562D01*
X131671867Y-99082632D01*
X131543343Y-99037498D01*
X131531181Y-99036348D01*
X131513485Y-99034675D01*
X131513475Y-99034675D01*
X131511629Y-99034500D01*
X131120840Y-99034500D01*
X130728372Y-99034501D01*
X130726524Y-99034676D01*
X130726516Y-99034676D01*
X130701449Y-99037045D01*
X130701448Y-99037045D01*
X130696657Y-99037498D01*
X130692115Y-99039093D01*
X130645374Y-99055507D01*
X130568133Y-99082632D01*
X130458562Y-99163562D01*
X130377632Y-99273133D01*
X130332498Y-99401657D01*
X130329500Y-99433371D01*
X129910499Y-99433371D01*
X129907502Y-99401657D01*
X129862368Y-99273133D01*
X129781438Y-99163562D01*
X129671867Y-99082632D01*
X129543343Y-99037498D01*
X129531181Y-99036348D01*
X129513485Y-99034675D01*
X129513475Y-99034675D01*
X129511629Y-99034500D01*
X129120840Y-99034500D01*
X128728372Y-99034501D01*
X128726524Y-99034676D01*
X128726516Y-99034676D01*
X128701449Y-99037045D01*
X128701448Y-99037045D01*
X128696657Y-99037498D01*
X128692115Y-99039093D01*
X128645374Y-99055507D01*
X128568133Y-99082632D01*
X128458562Y-99163562D01*
X128377632Y-99273133D01*
X128332498Y-99401657D01*
X128329500Y-99433371D01*
X127910499Y-99433371D01*
X127907502Y-99401657D01*
X127862368Y-99273133D01*
X127781438Y-99163562D01*
X127671867Y-99082632D01*
X127543343Y-99037498D01*
X127531181Y-99036348D01*
X127513485Y-99034675D01*
X127513475Y-99034675D01*
X127511629Y-99034500D01*
X127120840Y-99034500D01*
X126728372Y-99034501D01*
X126726524Y-99034676D01*
X126726516Y-99034676D01*
X126701449Y-99037045D01*
X126701448Y-99037045D01*
X126696657Y-99037498D01*
X126692115Y-99039093D01*
X126645374Y-99055507D01*
X126568133Y-99082632D01*
X126458562Y-99163562D01*
X126377632Y-99273133D01*
X126332498Y-99401657D01*
X126329500Y-99433371D01*
X126329501Y-99749662D01*
X126329501Y-100061593D01*
X126311019Y-100112373D01*
X126306362Y-100117454D01*
X125709094Y-100714722D01*
X125704013Y-100719379D01*
X125674585Y-100744072D01*
X125657241Y-100774113D01*
X125655382Y-100777333D01*
X125651679Y-100783145D01*
X125646620Y-100790371D01*
X125629649Y-100814607D01*
X125627860Y-100821283D01*
X125624939Y-100827547D01*
X125624831Y-100827497D01*
X125624661Y-100827907D01*
X125624772Y-100827948D01*
X125622408Y-100834444D01*
X125618953Y-100840428D01*
X125617753Y-100847233D01*
X125612282Y-100878261D01*
X125610793Y-100884976D01*
X125604767Y-100907466D01*
X125602785Y-100914865D01*
X125600852Y-100922078D01*
X125601454Y-100928961D01*
X125601454Y-100928963D01*
X125604199Y-100960335D01*
X125604500Y-100967220D01*
X125604500Y-101334624D01*
X125586018Y-101385404D01*
X125561370Y-101405010D01*
X125482609Y-101445141D01*
X125395141Y-101532609D01*
X125368949Y-101584013D01*
X125355939Y-101609548D01*
X125338983Y-101642825D01*
X125338010Y-101648967D01*
X125338010Y-101648968D01*
X125324986Y-101731199D01*
X125324500Y-101734265D01*
X124140000Y-101734265D01*
X124140000Y-99829000D01*
X124158482Y-99778220D01*
X124205282Y-99751200D01*
X124219000Y-99750000D01*
X124466780Y-99750000D01*
X124471939Y-99749662D01*
X124574206Y-99736198D01*
X124584130Y-99733539D01*
X124711388Y-99680826D01*
X124720288Y-99675689D01*
X124829576Y-99591829D01*
X124836829Y-99584576D01*
X124920689Y-99475288D01*
X124925826Y-99466388D01*
X124978539Y-99339130D01*
X124981198Y-99329206D01*
X124994662Y-99226939D01*
X124995000Y-99221780D01*
X124995000Y-98638930D01*
X124991116Y-98628259D01*
X124985472Y-98625000D01*
X124219000Y-98625000D01*
X124168220Y-98606518D01*
X124141200Y-98559718D01*
X124140000Y-98546000D01*
X124140000Y-98454000D01*
X124158482Y-98403220D01*
X124205282Y-98376200D01*
X124219000Y-98375000D01*
X124981070Y-98375000D01*
X124991741Y-98371116D01*
X124995000Y-98365472D01*
X124995000Y-97778220D01*
X124994662Y-97773061D01*
X124981198Y-97670794D01*
X124978539Y-97660870D01*
X124925826Y-97533612D01*
X124920689Y-97524712D01*
X124836829Y-97415424D01*
X124829576Y-97408171D01*
X124720288Y-97324311D01*
X124711388Y-97319174D01*
X124584130Y-97266461D01*
X124574206Y-97263802D01*
X124471939Y-97250338D01*
X124466780Y-97250000D01*
X124219000Y-97250000D01*
X124168220Y-97231518D01*
X124141200Y-97184718D01*
X124140000Y-97171000D01*
X124140000Y-96933371D01*
X126329500Y-96933371D01*
X126329501Y-97566628D01*
X126329676Y-97568479D01*
X126331892Y-97591925D01*
X126332498Y-97598343D01*
X126377632Y-97726867D01*
X126458562Y-97836438D01*
X126568133Y-97917368D01*
X126696657Y-97962502D01*
X126708819Y-97963652D01*
X126726515Y-97965325D01*
X126726525Y-97965325D01*
X126728371Y-97965500D01*
X127119160Y-97965500D01*
X127511628Y-97965499D01*
X127513476Y-97965324D01*
X127513484Y-97965324D01*
X127538551Y-97962955D01*
X127538552Y-97962955D01*
X127543343Y-97962502D01*
X127671867Y-97917368D01*
X127781438Y-97836438D01*
X127862368Y-97726867D01*
X127907502Y-97598343D01*
X127910500Y-97566629D01*
X127910499Y-96933372D01*
X127907502Y-96901657D01*
X127862368Y-96773133D01*
X127781438Y-96663562D01*
X127671867Y-96582632D01*
X127543343Y-96537498D01*
X127531181Y-96536348D01*
X127513485Y-96534675D01*
X127513475Y-96534675D01*
X127511629Y-96534500D01*
X127120840Y-96534500D01*
X126728372Y-96534501D01*
X126726524Y-96534676D01*
X126726516Y-96534676D01*
X126701449Y-96537045D01*
X126701448Y-96537045D01*
X126696657Y-96537498D01*
X126568133Y-96582632D01*
X126458562Y-96663562D01*
X126377632Y-96773133D01*
X126332498Y-96901657D01*
X126329500Y-96933371D01*
X124140000Y-96933371D01*
X124140000Y-96169000D01*
X124158482Y-96118220D01*
X124205282Y-96091200D01*
X124219000Y-96090000D01*
X134951000Y-96090000D01*
X135001780Y-96108482D01*
G37*
G04 #@! TD.AperFunction*
G04 #@! TA.AperFunction,Conductor*
G36*
X139295872Y-105603011D02*
G01*
X139303641Y-105609825D01*
X139524721Y-105830905D01*
X139529378Y-105835986D01*
X139554071Y-105865414D01*
X139587337Y-105884620D01*
X139593144Y-105888320D01*
X139611409Y-105901109D01*
X139624606Y-105910350D01*
X139631282Y-105912139D01*
X139637546Y-105915060D01*
X139637496Y-105915168D01*
X139637906Y-105915338D01*
X139637947Y-105915227D01*
X139644443Y-105917591D01*
X139650427Y-105921046D01*
X139688265Y-105927718D01*
X139694975Y-105929206D01*
X139712700Y-105933955D01*
X139725403Y-105937359D01*
X139725404Y-105937359D01*
X139732077Y-105939147D01*
X139738960Y-105938545D01*
X139738962Y-105938545D01*
X139770334Y-105935800D01*
X139777219Y-105935499D01*
X139815077Y-105935499D01*
X139865857Y-105953981D01*
X139892877Y-106000781D01*
X139883493Y-106053999D01*
X139863169Y-106077174D01*
X139818616Y-106111361D01*
X139814511Y-106114511D01*
X139811361Y-106118616D01*
X139739003Y-106212915D01*
X139727874Y-106227418D01*
X139696313Y-106303614D01*
X139677149Y-106349880D01*
X139673412Y-106358901D01*
X139654836Y-106500000D01*
X139673412Y-106641099D01*
X139675395Y-106645885D01*
X139675395Y-106645887D01*
X139678801Y-106654109D01*
X139727874Y-106772582D01*
X139814511Y-106885489D01*
X139818616Y-106888639D01*
X139923307Y-106968972D01*
X139923310Y-106968974D01*
X139927418Y-106972126D01*
X139990415Y-106998220D01*
X140054113Y-107024605D01*
X140054115Y-107024605D01*
X140058901Y-107026588D01*
X140200000Y-107045164D01*
X140248839Y-107038734D01*
X140301597Y-107050430D01*
X140315012Y-107061197D01*
X140384727Y-107130912D01*
X140389384Y-107135993D01*
X140414072Y-107165415D01*
X140447324Y-107184613D01*
X140453135Y-107188316D01*
X140478944Y-107206387D01*
X140484607Y-107210352D01*
X140491281Y-107212140D01*
X140497549Y-107215063D01*
X140497499Y-107215170D01*
X140497906Y-107215339D01*
X140497947Y-107215227D01*
X140504443Y-107217591D01*
X140510428Y-107221047D01*
X140517234Y-107222247D01*
X140548257Y-107227717D01*
X140554978Y-107229207D01*
X140573343Y-107234128D01*
X140585405Y-107237360D01*
X140585406Y-107237360D01*
X140592079Y-107239148D01*
X140598962Y-107238546D01*
X140598964Y-107238546D01*
X140630336Y-107235801D01*
X140637221Y-107235500D01*
X141746923Y-107235500D01*
X141790813Y-107248814D01*
X141832770Y-107276848D01*
X141888337Y-107287901D01*
X143279159Y-107287901D01*
X143294955Y-107284759D01*
X143327096Y-107278366D01*
X143327097Y-107278365D01*
X143334726Y-107276848D01*
X143397740Y-107234744D01*
X143398009Y-107235146D01*
X143441706Y-107214770D01*
X143493904Y-107228756D01*
X143521575Y-107263234D01*
X143537874Y-107302582D01*
X143541026Y-107306690D01*
X143541028Y-107306693D01*
X143553452Y-107322884D01*
X143624511Y-107415489D01*
X143628616Y-107418639D01*
X143733307Y-107498972D01*
X143733310Y-107498974D01*
X143737418Y-107502126D01*
X143809502Y-107531984D01*
X143864113Y-107554605D01*
X143864115Y-107554605D01*
X143868901Y-107556588D01*
X144010000Y-107575164D01*
X144151099Y-107556588D01*
X144155885Y-107554605D01*
X144155887Y-107554605D01*
X144210498Y-107531984D01*
X144282582Y-107502126D01*
X144286690Y-107498974D01*
X144286693Y-107498972D01*
X144391384Y-107418639D01*
X144395489Y-107415489D01*
X144466548Y-107322884D01*
X144478972Y-107306693D01*
X144478974Y-107306690D01*
X144482126Y-107302582D01*
X144521971Y-107206387D01*
X144534605Y-107175887D01*
X144534605Y-107175885D01*
X144536588Y-107171099D01*
X144555164Y-107030000D01*
X144553685Y-107018762D01*
X144547220Y-106969662D01*
X144536588Y-106888901D01*
X144533475Y-106881384D01*
X144503441Y-106808877D01*
X144501083Y-106754889D01*
X144533980Y-106712017D01*
X144586739Y-106700321D01*
X144599024Y-106703613D01*
X144599117Y-106703266D01*
X144604113Y-106704605D01*
X144608901Y-106706588D01*
X144710973Y-106720026D01*
X144739936Y-106723839D01*
X144750000Y-106725164D01*
X144760065Y-106723839D01*
X144789027Y-106720026D01*
X144891099Y-106706588D01*
X144895885Y-106704605D01*
X144895887Y-106704605D01*
X144939866Y-106686388D01*
X145022582Y-106652126D01*
X145026690Y-106648974D01*
X145026693Y-106648972D01*
X145052408Y-106629240D01*
X145103946Y-106612990D01*
X145153872Y-106633670D01*
X145178824Y-106681604D01*
X145179500Y-106691915D01*
X145179500Y-107018762D01*
X145190553Y-107074329D01*
X145232657Y-107137343D01*
X145295671Y-107179447D01*
X145303300Y-107180964D01*
X145303301Y-107180965D01*
X145330319Y-107186339D01*
X145351238Y-107190500D01*
X145885500Y-107190500D01*
X145936280Y-107208982D01*
X145963300Y-107255782D01*
X145964500Y-107269500D01*
X145964500Y-109492594D01*
X145946018Y-109543374D01*
X145933593Y-109555269D01*
X145863036Y-109609410D01*
X145771430Y-109728793D01*
X145713844Y-109867817D01*
X145713168Y-109872952D01*
X145713168Y-109872953D01*
X145705594Y-109930487D01*
X145699134Y-109979553D01*
X145699135Y-110816462D01*
X145699473Y-110819027D01*
X145699473Y-110819032D01*
X145706773Y-110874483D01*
X145713844Y-110928199D01*
X145715825Y-110932982D01*
X145717166Y-110937987D01*
X145715246Y-110938501D01*
X145717264Y-110984759D01*
X145684365Y-111027630D01*
X145641921Y-111040000D01*
X145179118Y-111040000D01*
X145128338Y-111021518D01*
X145101318Y-110974718D01*
X145103255Y-110938960D01*
X145119691Y-110882384D01*
X145121136Y-110874473D01*
X145123511Y-110844293D01*
X145123634Y-110841175D01*
X145123634Y-110536938D01*
X145119750Y-110526267D01*
X145114106Y-110523008D01*
X143113565Y-110523008D01*
X143102894Y-110526892D01*
X143099635Y-110532536D01*
X143099635Y-110841191D01*
X143099755Y-110844264D01*
X143102133Y-110874483D01*
X143103575Y-110882379D01*
X143120013Y-110938960D01*
X143116432Y-110992880D01*
X143079029Y-111031884D01*
X143044150Y-111040000D01*
X142581346Y-111040000D01*
X142530566Y-111021518D01*
X142503546Y-110974718D01*
X142507526Y-110938366D01*
X142506102Y-110937984D01*
X142507441Y-110932986D01*
X142509424Y-110928199D01*
X142524134Y-110816463D01*
X142524133Y-110259078D01*
X143099634Y-110259078D01*
X143103518Y-110269749D01*
X143109162Y-110273008D01*
X143972704Y-110273008D01*
X143983375Y-110269124D01*
X143986634Y-110263480D01*
X143986634Y-110259078D01*
X144236634Y-110259078D01*
X144240518Y-110269749D01*
X144246162Y-110273008D01*
X145109703Y-110273008D01*
X145120374Y-110269124D01*
X145123633Y-110263480D01*
X145123633Y-109954825D01*
X145123513Y-109951752D01*
X145121135Y-109921533D01*
X145119693Y-109913637D01*
X145077728Y-109769195D01*
X145073807Y-109760133D01*
X144997714Y-109631468D01*
X144991668Y-109623674D01*
X144885968Y-109517974D01*
X144878174Y-109511928D01*
X144749509Y-109435835D01*
X144740447Y-109431914D01*
X144596010Y-109389951D01*
X144588099Y-109388506D01*
X144557919Y-109386131D01*
X144554800Y-109386008D01*
X144250564Y-109386008D01*
X144239893Y-109389892D01*
X144236634Y-109395536D01*
X144236634Y-110259078D01*
X143986634Y-110259078D01*
X143986634Y-109399939D01*
X143982750Y-109389268D01*
X143977106Y-109386009D01*
X143668451Y-109386009D01*
X143665378Y-109386129D01*
X143635159Y-109388507D01*
X143627263Y-109389949D01*
X143482821Y-109431914D01*
X143473759Y-109435835D01*
X143345094Y-109511928D01*
X143337300Y-109517974D01*
X143231600Y-109623674D01*
X143225554Y-109631468D01*
X143149461Y-109760133D01*
X143145540Y-109769195D01*
X143103577Y-109913632D01*
X143102132Y-109921543D01*
X143099757Y-109951723D01*
X143099634Y-109954842D01*
X143099634Y-110259078D01*
X142524133Y-110259078D01*
X142524133Y-109979554D01*
X142520470Y-109951723D01*
X142510100Y-109872952D01*
X142509424Y-109867817D01*
X142451838Y-109728792D01*
X142448686Y-109724684D01*
X142448684Y-109724681D01*
X142363382Y-109613515D01*
X142360232Y-109609410D01*
X142356127Y-109606260D01*
X142244960Y-109520958D01*
X142244957Y-109520956D01*
X142240849Y-109517804D01*
X142236062Y-109515821D01*
X142236060Y-109515820D01*
X142174265Y-109490224D01*
X142101825Y-109460218D01*
X142057678Y-109454406D01*
X141992659Y-109445846D01*
X141992654Y-109445846D01*
X141990089Y-109445508D01*
X141987499Y-109445508D01*
X141571635Y-109445509D01*
X141153180Y-109445509D01*
X141150617Y-109445846D01*
X141150608Y-109445847D01*
X141115377Y-109450485D01*
X141062619Y-109438788D01*
X141049206Y-109428022D01*
X138000278Y-106379094D01*
X137995621Y-106374013D01*
X137975371Y-106349880D01*
X137970928Y-106344585D01*
X137937662Y-106325379D01*
X137931855Y-106321679D01*
X137906056Y-106303614D01*
X137906055Y-106303613D01*
X137900393Y-106299649D01*
X137893717Y-106297860D01*
X137887453Y-106294939D01*
X137887503Y-106294831D01*
X137887093Y-106294661D01*
X137887052Y-106294772D01*
X137880556Y-106292408D01*
X137874572Y-106288953D01*
X137836734Y-106282281D01*
X137830024Y-106280793D01*
X137806537Y-106274500D01*
X137799596Y-106272640D01*
X137799595Y-106272640D01*
X137792922Y-106270852D01*
X137786038Y-106271454D01*
X137779152Y-106270852D01*
X137779357Y-106268511D01*
X137737087Y-106257183D01*
X137706092Y-106212915D01*
X137703401Y-106192471D01*
X137703401Y-106073838D01*
X137702643Y-106070027D01*
X137702643Y-106070024D01*
X137694664Y-106029911D01*
X137702885Y-105976501D01*
X137743514Y-105940871D01*
X137772146Y-105935500D01*
X138123828Y-105935500D01*
X138174608Y-105953982D01*
X138186502Y-105966407D01*
X138212878Y-106000781D01*
X138235232Y-106029912D01*
X138239511Y-106035489D01*
X138243616Y-106038639D01*
X138348307Y-106118972D01*
X138348310Y-106118974D01*
X138352418Y-106122126D01*
X138445596Y-106160721D01*
X138479113Y-106174605D01*
X138479115Y-106174605D01*
X138483901Y-106176588D01*
X138625000Y-106195164D01*
X138766099Y-106176588D01*
X138770885Y-106174605D01*
X138770887Y-106174605D01*
X138804404Y-106160721D01*
X138897582Y-106122126D01*
X138901690Y-106118974D01*
X138901693Y-106118972D01*
X139006384Y-106038639D01*
X139010489Y-106035489D01*
X139013639Y-106031384D01*
X139093972Y-105926693D01*
X139093974Y-105926690D01*
X139097126Y-105922582D01*
X139145128Y-105806695D01*
X139149605Y-105795887D01*
X139149605Y-105795885D01*
X139151588Y-105791099D01*
X139169456Y-105655374D01*
X139194408Y-105607441D01*
X139244334Y-105586761D01*
X139295872Y-105603011D01*
G37*
G04 #@! TD.AperFunction*
G04 #@! TA.AperFunction,Conductor*
G36*
X134426759Y-101433982D02*
G01*
X134453779Y-101480782D01*
X134444395Y-101534000D01*
X134424074Y-101557173D01*
X134414511Y-101564511D01*
X134411361Y-101568616D01*
X134334358Y-101668968D01*
X134327874Y-101677418D01*
X134294758Y-101757368D01*
X134281089Y-101790368D01*
X134273412Y-101808901D01*
X134254836Y-101950000D01*
X134273412Y-102091099D01*
X134327874Y-102222582D01*
X134331026Y-102226690D01*
X134331028Y-102226693D01*
X134392339Y-102306594D01*
X134414511Y-102335489D01*
X134418616Y-102338639D01*
X134523307Y-102418972D01*
X134523310Y-102418974D01*
X134527418Y-102422126D01*
X134609750Y-102456229D01*
X134654113Y-102474605D01*
X134654115Y-102474605D01*
X134658901Y-102476588D01*
X134800000Y-102495164D01*
X134941099Y-102476588D01*
X134945885Y-102474605D01*
X134945887Y-102474605D01*
X134990250Y-102456229D01*
X135072582Y-102422126D01*
X135076690Y-102418974D01*
X135076693Y-102418972D01*
X135122520Y-102383807D01*
X135174058Y-102367557D01*
X135223983Y-102388237D01*
X135248936Y-102436170D01*
X135237240Y-102488928D01*
X135226473Y-102502343D01*
X134942455Y-102786361D01*
X134893479Y-102809199D01*
X134886594Y-102809500D01*
X134428152Y-102809500D01*
X134377372Y-102791018D01*
X134365477Y-102778592D01*
X134365203Y-102778234D01*
X134335489Y-102739511D01*
X134317230Y-102725500D01*
X134226693Y-102656028D01*
X134226690Y-102656026D01*
X134222582Y-102652874D01*
X134107953Y-102605393D01*
X134095887Y-102600395D01*
X134095885Y-102600395D01*
X134091099Y-102598412D01*
X133950000Y-102579836D01*
X133808901Y-102598412D01*
X133804115Y-102600395D01*
X133804113Y-102600395D01*
X133792047Y-102605393D01*
X133677418Y-102652874D01*
X133673310Y-102656026D01*
X133673307Y-102656028D01*
X133582770Y-102725500D01*
X133564511Y-102739511D01*
X133561361Y-102743616D01*
X133481704Y-102847427D01*
X133477874Y-102852418D01*
X133460236Y-102895001D01*
X133427513Y-102974001D01*
X133423412Y-102983901D01*
X133404836Y-103125000D01*
X133423412Y-103266099D01*
X133425395Y-103270885D01*
X133425395Y-103270887D01*
X133428422Y-103278195D01*
X133477874Y-103397582D01*
X133481026Y-103401690D01*
X133481028Y-103401693D01*
X133546800Y-103487408D01*
X133563050Y-103538946D01*
X133542370Y-103588872D01*
X133494437Y-103613824D01*
X133484125Y-103614500D01*
X133443408Y-103614500D01*
X133392628Y-103596018D01*
X133387547Y-103591362D01*
X133048639Y-103252455D01*
X133025801Y-103203478D01*
X133025500Y-103196593D01*
X133025500Y-102760281D01*
X133043982Y-102709501D01*
X133068635Y-102689892D01*
X133070317Y-102689035D01*
X133137391Y-102654859D01*
X133224859Y-102567391D01*
X133257458Y-102503412D01*
X133278193Y-102462718D01*
X133278194Y-102462716D01*
X133281017Y-102457175D01*
X133292638Y-102383807D01*
X133295015Y-102368799D01*
X133295015Y-102368795D01*
X133295500Y-102365735D01*
X133295499Y-101754266D01*
X133288342Y-101709079D01*
X133281990Y-101668967D01*
X133281989Y-101668965D01*
X133281017Y-101662825D01*
X133224859Y-101552609D01*
X133220461Y-101548211D01*
X133216808Y-101543183D01*
X133218642Y-101541850D01*
X133199773Y-101501385D01*
X133213759Y-101449187D01*
X133258025Y-101418192D01*
X133278472Y-101415500D01*
X134375979Y-101415500D01*
X134426759Y-101433982D01*
G37*
G04 #@! TD.AperFunction*
G04 #@! TA.AperFunction,Conductor*
G36*
X141655317Y-102643982D02*
G01*
X141682337Y-102690782D01*
X141677523Y-102734732D01*
X141670086Y-102752686D01*
X141657857Y-102814166D01*
X141657099Y-102821863D01*
X141657099Y-102881071D01*
X141660983Y-102891742D01*
X141666627Y-102895001D01*
X142629748Y-102895001D01*
X142680528Y-102913483D01*
X142707548Y-102960283D01*
X142708748Y-102974001D01*
X142708748Y-103066001D01*
X142690266Y-103116781D01*
X142643466Y-103143801D01*
X142629748Y-103145001D01*
X141671029Y-103145001D01*
X141660358Y-103148885D01*
X141657099Y-103154529D01*
X141657099Y-103218139D01*
X141657857Y-103225837D01*
X141664670Y-103260088D01*
X141656449Y-103313498D01*
X141615820Y-103349129D01*
X141587188Y-103354500D01*
X139983704Y-103354500D01*
X139932924Y-103336018D01*
X139905904Y-103289218D01*
X139910718Y-103245268D01*
X139949605Y-103151387D01*
X139949605Y-103151385D01*
X139951588Y-103146599D01*
X139970164Y-103005500D01*
X139951588Y-102864401D01*
X139948700Y-102857427D01*
X139911769Y-102768270D01*
X139897877Y-102734731D01*
X139895519Y-102680744D01*
X139928416Y-102637872D01*
X139970863Y-102625500D01*
X141604537Y-102625500D01*
X141655317Y-102643982D01*
G37*
G04 #@! TD.AperFunction*
M02*
